<svg width="105" height="69" viewBox="0 0 105 69" fill="none" xmlns="http://www.w3.org/2000/svg">
    <defs>
        <linearGradient id="paint0_linear_255_2854" x1="54.7073" y1="74.8281" x2="54.7073" y2="38.0254" gradientUnits="userSpaceOnUse">
            <stop stop-color="#3D2A39" stop-opacity="0"/>
            <stop offset="0.3704" stop-color="#4C3049" stop-opacity="0.3704"/>
            <stop offset="1" stop-color="#6E3E6D"/>
        </linearGradient>
        <linearGradient id="paint1_linear_255_2854" x1="55.1094" y1="20.9912" x2="60.7262" y2="53.5445" gradientUnits="userSpaceOnUse">
            <stop stop-color="#F99836"/>
            <stop offset="1" stop-color="#B35B10"/>
        </linearGradient>
        <linearGradient id="paint2_linear_255_2854" x1="55.6766" y1="23.9456" x2="56.7121" y2="29.9471" gradientUnits="userSpaceOnUse">
            <stop stop-color="#CB7319"/>
            <stop offset="1" stop-color="#9A4F0F"/>
        </linearGradient>
    </defs>
    <path d="M54.706 68.4031C79.1583 68.4031 98.9808 66.7539 98.9808 64.7196C98.9808 62.6853 79.1583 61.0361 54.706 61.0361C30.2538 61.0361 10.4313 62.6853 10.4313 64.7196C10.4313 66.7539 30.2538 68.4031 54.706 68.4031Z" fill="url(#paint0_linear_255_2854)"/>
    <path opacity="0.7" d="M36.0735 55.8565C35.9218 55.281 35.679 54.4177 35.6183 54.3025C34.4652 51.8853 31.9464 50.1874 31.2485 47.5399C31.0361 46.7342 31.0057 45.8421 30.5505 45.1226C30.065 44.4032 28.8815 44.0291 28.3353 44.691C27.7587 45.3529 28.0318 47.1658 26.5145 46.8205C25.3614 46.5615 25.4827 44.691 25.5434 43.8277C25.6041 43.0507 25.6648 42.2449 25.2703 41.5543C24.8758 40.8924 23.8441 40.4895 23.2371 41.0075C22.6302 41.5255 22.7516 42.6478 21.993 42.9644C21.5378 43.137 21.0219 42.878 20.7488 42.5039C20.4757 42.1298 20.3846 41.6694 20.2632 41.2377C19.8384 39.7125 18.9887 38.3025 17.8356 37.1802C17.4411 36.7773 16.9859 36.432 16.4397 36.2881C15.8934 36.1442 15.2258 36.3456 14.9527 36.8061C14.5582 37.5255 15.2258 38.3312 15.8024 38.9356C16.379 39.5399 16.8645 40.5471 16.2272 41.0938C15.681 41.5543 14.801 41.209 14.3761 40.6334C13.9816 40.0579 13.8906 39.3384 13.6175 38.7053C13.1016 37.4392 11.7664 36.4032 10.3098 36.432C9.85458 36.432 9.3387 36.5758 9.12628 36.9787C8.91385 37.3528 9.09593 37.842 9.36904 38.1874C9.64216 38.5327 10.0063 38.8205 10.2187 39.1946C11.0381 40.5471 9.12628 41.0938 8.18555 40.3169C7.39656 39.6838 7.21448 38.619 6.6986 37.7845C5.9703 36.6046 4.57438 35.8276 3.14812 35.8276C-0.00785783 35.8276 -0.584431 38.2449 0.508023 40.691C1.0846 41.9859 1.96463 43.3672 3.08743 44.3169C4.96888 45.8708 7.51794 46.7054 10.0063 46.5615C10.6739 46.5327 11.3719 46.4176 12.0395 46.6191C12.7071 46.7917 13.2837 47.396 13.1623 48.0291C12.9195 49.2378 10.6739 49.2378 10.4615 50.4464C10.3401 51.0795 10.9774 51.655 11.645 51.7989C12.3126 51.914 13.0106 51.7126 13.6478 51.5112C14.8313 51.1371 16.0148 50.763 17.1983 50.4176C17.6838 50.2737 18.1694 50.1299 18.6549 50.2162C19.1404 50.3025 19.626 50.7342 19.5349 51.1946C19.4439 51.8853 18.4121 52.1155 18.1694 52.7486C17.9569 53.3241 18.5335 53.986 19.1708 54.1011C19.8081 54.2162 20.4757 53.986 21.0522 53.727C21.7502 53.4104 24.3296 52.691 24.451 54.1011C24.4813 54.504 24.1475 54.8205 23.8137 55.0507C23.2068 55.54 22.9033 56.6047 23.9655 56.8349C24.3903 56.9213 24.8455 56.8062 25.2703 56.691C28.6387 55.7702 32.2499 55.6551 35.679 56.3457C35.8307 56.3745 36.0128 56.4033 36.1645 56.4608C36.1949 56.4033 36.1645 56.1731 36.0735 55.8565Z" fill="#FFE3CA"/>
    <path d="M36.1038 36.4895C35.8307 39.7989 38.0459 42.6766 38.4101 45.8996C38.4404 46.0723 38.3494 47.1371 38.2887 47.8853C38.2583 48.2881 38.228 48.5759 38.1976 48.5471C38.0156 48.432 37.8335 48.3457 37.6514 48.2594C33.9492 46.2162 29.7311 45.0363 25.4827 44.8924C24.9365 44.8637 24.3599 44.8637 23.9047 44.5759C22.7516 43.914 23.5405 42.7917 24.4509 42.4752C24.9365 42.3025 25.4523 42.0723 25.5737 41.5831C25.9682 39.8852 22.7212 39.7989 21.7805 39.8852C20.9915 39.9715 20.1418 40.0291 19.4438 39.655C18.7459 39.2809 18.3514 38.3313 18.8369 37.7269C19.3832 37.0651 20.6577 37.1802 21.0522 36.432C21.3253 35.914 20.9611 35.2521 20.4149 34.9931C19.8687 34.7053 19.2314 34.7053 18.6245 34.7053C17.1072 34.7053 15.5899 34.7053 14.0726 34.6766C13.2533 34.6766 12.3732 34.6478 11.6449 34.2737C10.9166 33.8708 10.4311 32.9787 10.8256 32.2881C11.5539 30.9643 14.1636 31.7988 14.9223 30.4751C15.3168 29.7844 14.8919 28.8924 14.194 28.4319C13.5264 27.9715 12.6767 27.8564 11.8574 27.6262C8.91379 26.878 6.33439 24.9787 4.78674 22.5038C3.87636 21.0362 3.42117 19.0794 3.29979 17.3815C3.02668 14.1585 4.6957 11.5685 8.33722 12.7196C10.0062 13.2376 11.3111 14.6477 11.6449 16.288C11.8877 17.4391 11.6753 18.7052 12.3429 19.7412C13.1015 20.9499 15.5292 21.0362 15.1651 19.1945C15.0437 18.6765 14.7402 18.216 14.5885 17.7268C14.4064 17.2376 14.4064 16.6045 14.8009 16.2304C15.1954 15.8563 15.8327 15.8851 16.3789 16.029C18.0783 16.5182 19.2011 18.216 19.2921 19.8563C19.3528 20.6909 19.1404 21.5254 19.3832 22.3312C19.6259 23.1369 20.506 23.8851 21.3253 23.5398C22.2964 23.1369 22.1143 21.8132 21.7198 20.8923C21.3253 19.9714 20.8701 18.7916 21.5984 18.1009C22.0839 17.6405 22.9336 17.6693 23.5405 18.0434C24.1171 18.3887 24.5116 18.993 24.8151 19.5973C25.6951 21.324 26.0896 23.252 25.9682 25.1801C25.9379 25.7269 25.8772 26.3024 26.0289 26.8204C26.211 27.3384 26.6965 27.8276 27.2731 27.7988C28.2745 27.7413 28.578 26.3887 29.4884 26.0146C30.3987 25.6405 31.4305 26.4751 31.6126 27.3959C31.7946 28.3168 31.3698 29.2377 31.0057 30.101C30.5808 31.0794 29.6704 33.1801 30.8843 33.9284C32.4926 34.878 32.9174 32.6909 33.8582 32.1442C34.7686 31.5974 36.0127 32.4607 36.2555 33.4391C36.5286 34.4176 36.1948 35.4535 36.1038 36.4895Z" fill="#29AB7C"/>
    <path d="M38.2889 47.8565C38.2585 48.2594 38.2282 48.5472 38.1978 48.5184C38.0158 48.4033 37.8337 48.317 37.6516 48.2306C36.6805 45.5544 35.3453 43.022 33.7673 40.6047C30.6114 35.7701 26.1808 31.5399 21.022 28.6334C18.3212 27.1082 15.3777 26.0147 12.7072 24.4319C10.5527 23.1945 8.06431 21.2952 7.36635 18.9067C7.33601 18.7628 7.54843 18.6765 7.60912 18.7916C8.54985 20.288 9.49057 21.7269 10.9472 22.8204C12.4038 23.8852 13.9818 24.7197 15.5901 25.4967C18.3819 26.8492 21.1131 28.1154 23.6925 29.8133C26.0291 31.3672 28.1533 33.1514 30.0955 35.1658C33.7066 38.9356 36.4378 43.1658 38.2889 47.8565Z" fill="white"/>
    <path opacity="0.7" d="M95.1874 40.8347L91.0907 39.7988C91.0907 39.7988 93.9128 39.3959 96.5529 39.1369C97.6757 37.7268 98.1613 36.8923 99.102 35.3383H94.3073L99.982 33.7843C100.771 32.403 101.287 31.3958 101.894 30.1009L98.7985 30.3599L102.47 28.7771C104.079 25.2951 104.716 23.2231 104.716 23.2231C104.716 23.2231 101.439 24.1728 98.2523 25.3239L97.0385 29.2376L96.7957 26.0145C94.9143 26.734 95.0053 26.6764 92.8811 27.7124L91.7886 32.2879L91.03 28.6045C89.6341 29.3239 89.1789 29.6117 87.9043 30.4462L87.085 34.993L86.296 31.4534C85.6284 31.9138 84.9911 32.4318 84.3842 32.921L84.5966 37.6117L82.9276 34.216C81.9262 35.1081 82.1083 35.0505 81.4103 36.0577C81.1979 36.3743 80.9855 36.6621 80.773 36.9786L81.0158 40.6045L79.802 38.1585C76.8281 44.6621 77.8295 47.9427 77.8295 47.9427C77.8295 47.9427 81.0462 49.8708 88.3899 46.0722L86.4174 45.2376L90.2106 45.065C90.4837 44.9211 90.2106 45.065 90.4838 44.8923C92.1831 43.9139 93.7611 42.475 95.1874 40.8347Z" fill="#FFE3CA"/>
    <path d="M96.8564 9.72668L93.5487 12.5756L96.7047 11.3094C96.5226 12.8634 96.3405 14.072 96.0067 15.7987L90.5748 19.2519L95.6122 17.6979C95.1874 19.626 94.975 20.662 94.277 22.5325C91.5762 23.6548 88.754 24.9786 88.754 24.9786L93.4273 24.7483C92.5169 26.9354 91.3638 28.9498 89.9679 30.5613C89.7251 30.8203 89.9679 30.5901 89.7251 30.8203L85.7801 32.2016L88.1775 32.4606C81.8048 38.8204 77.7081 37.8132 77.7081 37.8132C77.7081 37.8132 77.6171 37.6693 77.4653 37.3815C77.3439 37.1513 77.2226 36.8347 77.0708 36.4319C76.4943 34.8203 75.7963 31.77 76.3122 26.8491L78.4668 29.0361L76.9191 25.3239C77.0101 24.9498 77.1315 24.5469 77.2529 24.144C77.6474 22.8491 77.4653 22.9929 78.1936 21.7267L81.1675 24.7771L79.2557 19.885C79.7109 19.1656 80.1965 18.4174 80.7427 17.7267L82.8366 21.2088L82.0779 16.144C83.1097 14.8202 83.5345 14.3886 84.718 13.1799L86.8422 16.8346L86.3567 11.6548C88.2078 9.87057 88.1471 9.9569 89.8768 8.60437L91.2727 11.9425L91.1817 7.42451C94.1253 5.1799 97.2509 3.13672 97.2509 3.13672C97.2509 3.13672 97.3116 5.554 96.8564 9.72668Z" fill="#29AB7C"/>
    <path d="M93.8217 14.6476C93.2148 14.7627 92.6382 15.1944 92.1224 15.4822C91.8189 15.6548 91.5458 15.7987 91.2423 15.9714C92.183 13.7843 93.0024 11.5685 93.5486 9.35263C93.5486 9.29508 93.4879 9.2663 93.4576 9.32385C92.2134 11.9426 91.0299 14.5901 89.7857 17.2088C89.725 15.6836 89.5126 14.0433 89.0878 12.6332C89.0574 12.4893 88.845 12.5469 88.845 12.662C88.6629 14.4462 88.936 16.4606 89.3002 18.2448C88.3595 20.1441 87.3884 22.0146 86.3263 23.8563C86.2959 22.993 86.0532 22.1297 85.8711 21.2664C85.6587 20.2592 85.6283 19.0793 84.9911 18.216C84.9607 18.1872 84.9 18.1872 84.9 18.216C84.6572 19.1656 85.0214 20.2304 85.2035 21.18C85.4159 22.2448 85.5373 23.3959 85.9925 24.3743C85.9318 24.4606 85.9014 24.5182 85.8711 24.6045C85.3249 25.5254 84.7483 26.4175 84.1414 27.3096C83.7165 25.7268 82.8972 23.9714 82.1082 22.5613C82.0172 22.4174 81.7744 22.5038 81.8351 22.6764C82.2599 24.3455 82.8972 26.3599 83.7772 27.8851C83.2006 28.7196 82.5937 29.5542 81.9868 30.3887C81.653 29.7268 81.3495 29.065 81.0157 28.4319C80.6819 27.7412 80.3785 27.0218 79.8322 26.4462C79.7716 26.3887 79.6198 26.4175 79.6502 26.5326C79.7412 27.252 80.1357 27.9139 80.4392 28.547C80.8033 29.3527 81.1978 30.1297 81.5923 30.9355C80.955 31.7988 80.3178 32.6333 79.6502 33.4679C79.286 32.806 78.8612 32.1441 78.406 31.5398C78.3453 31.4822 78.2239 31.511 78.2543 31.5973C78.5577 32.3743 78.9219 33.1225 79.3467 33.842C78.6488 34.7341 77.9205 35.5974 77.1618 36.4607C77.3135 36.8636 77.4653 37.1801 77.5563 37.4103C78.315 36.547 79.0432 35.6549 79.7716 34.7628C80.2874 34.8492 80.8337 34.6765 81.3495 34.5902C82.2296 34.4175 83.1096 34.1297 83.9593 33.8707C84.111 33.842 84.0503 33.6405 83.8986 33.6693C82.9579 33.842 82.0475 33.8995 81.1068 34.0146C80.8337 34.0434 80.5606 34.0722 80.2874 34.101C81.653 32.3456 82.9579 30.5614 84.2021 28.6909C85.1731 28.6045 86.1139 28.3743 87.0546 28.1729C87.9953 27.9714 89.0574 27.8275 89.8768 27.3383C89.9981 27.252 89.9374 27.1081 89.8161 27.1081C88.936 27.0218 87.965 27.3096 87.1153 27.4822C86.3263 27.6261 85.5069 27.77 84.7179 27.9426C85.2945 27.0793 85.8407 26.1872 86.387 25.2952C86.8725 24.4894 87.358 23.6836 87.8132 22.8491C88.5112 22.7052 89.2091 22.3599 89.8768 22.1009C90.6961 21.7843 91.6672 21.4966 92.3348 20.921C92.3955 20.8635 92.3348 20.7484 92.2741 20.7771C91.394 20.8059 90.4533 21.2664 89.634 21.5541C89.2091 21.7268 88.7236 21.8419 88.2988 22.0433C89.2395 20.3743 90.1195 18.6476 90.9389 16.8922C91.4851 16.5469 92.0313 16.2016 92.5472 15.8563C93.0327 15.5397 93.6396 15.2519 94.0038 14.7915C93.9431 14.7052 93.8824 14.6476 93.8217 14.6476Z" fill="white"/>
    <path d="M84.081 51.9427L36.711 60.1154L29.6707 23.5397L77.0407 15.367C78.5884 15.108 80.1057 16.0864 80.3788 17.5541L86.3873 48.806C86.6604 50.2737 85.6287 51.6837 84.081 51.9427Z" fill="#974D0E"/>
    <path d="M79.0633 24.0016C81.1069 18.8385 78.3498 13.082 72.9053 11.1441C67.4607 9.20613 61.3904 11.8206 59.3468 16.9837C57.3032 22.1468 60.0602 27.9033 65.5048 29.8412C70.9493 31.7792 77.0197 29.1647 79.0633 24.0016Z" fill="#FFD524"/>
    <path d="M73.6802 27.4103C77.7102 25.0689 78.9757 20.0728 76.5067 16.2511C74.0378 12.4294 68.7693 11.2294 64.7392 13.5707C60.7092 15.912 59.4437 20.9082 61.9127 24.7298C64.3816 28.5515 69.6501 29.7516 73.6802 27.4103Z" fill="#FFB02D"/>
    <path d="M77.1016 23.6836C75.5236 27.252 71.3965 29.3239 67.2695 28.4031C62.6569 27.3959 59.774 23.0218 60.8665 18.6476C61.1699 17.439 61.7465 16.3455 62.5052 15.4534C62.3231 15.885 62.141 16.3167 62.05 16.7771C60.9575 21.1512 63.8404 25.5254 68.453 26.5326C71.7607 27.2808 75.0987 26.0721 77.1016 23.6836Z" fill="#F89723"/>
    <path d="M69.2114 24.4895L68.817 26.1585L67.2997 25.8132L67.7245 24.1441C66.6927 23.77 65.752 23.1082 65.1147 22.3312L66.2982 20.9499C66.9658 21.8132 68.0886 22.5614 68.908 22.7341C69.5149 22.8779 69.9701 22.7341 70.0611 22.3312C70.3646 21.0362 65.9644 20.8923 66.632 18.1873C66.9355 16.9786 68.0583 16.3455 69.5756 16.4319L69.9701 14.8491L71.4874 15.1944L71.0929 16.7772C72.0033 17.0937 72.8226 17.5829 73.3992 18.1585L72.2157 19.5686C71.4874 18.9355 70.486 18.3312 69.8184 18.1873C69.3025 18.0722 68.9383 18.1873 68.8473 18.5326C68.5438 19.7988 72.944 20.0002 72.2764 22.7341C71.9729 24.0866 70.6984 24.6333 69.2114 24.4895Z" fill="#FFD524"/>
    <path opacity="0.2" d="M69.0599 15.6832C69.1206 16.5177 69.4848 17.2947 69.9703 17.9566C70.8503 19.1364 72.0945 20.0573 73.5208 20.5465C73.976 20.6904 74.4311 20.8055 74.8863 20.7767C76.3126 20.7192 76.7374 19.3666 76.434 18.2443C76.0698 16.8055 75.0684 15.4817 73.8849 14.5609C72.9138 13.8127 70.8503 12.7767 69.6972 13.7551C69.2116 14.2443 69.0296 15.0501 69.0599 15.6832Z" fill="white"/>
    <path d="M49.9802 21.1471C54.652 19.4724 57.0075 14.5234 55.2415 10.0932C53.4755 5.66297 48.2567 3.4292 43.5849 5.10391C38.9132 6.77861 36.5577 11.7276 38.3237 16.1578C40.0897 20.588 45.3085 22.8218 49.9802 21.1471Z" fill="#FFD524"/>
    <path d="M46.8585 20.1159C50.9311 20.0788 54.2009 16.918 54.1618 13.056C54.1228 9.19393 50.7896 6.09316 46.717 6.1302C42.6444 6.16724 39.3746 9.32807 39.4137 13.1901C39.4527 17.0521 42.7859 20.1529 46.8585 20.1159Z" fill="#FFB02D"/>
    <path d="M54.1598 13.0648C54.2205 16.4029 51.7018 19.367 48.1513 20.0001C44.1456 20.6907 40.3221 18.1871 39.5634 14.4173C39.351 13.3526 39.4117 12.3166 39.6848 11.3669C39.6848 11.7698 39.7151 12.1727 39.8062 12.5756C40.5345 16.3742 44.3884 18.8778 48.3941 18.1583C51.2769 17.6404 53.4315 15.5972 54.1598 13.0648Z" fill="#F89723"/>
    <path d="M48.2424 16.2878L48.5155 17.7267L47.1802 17.9569L46.9071 16.5181C45.9361 16.5468 44.965 16.3454 44.2063 15.9425L44.6615 14.4749C45.4809 14.9353 46.6644 15.1655 47.3927 15.0217C47.9389 14.9353 48.2424 14.6763 48.1513 14.331C47.9389 13.2087 44.3884 14.5324 43.9332 12.2015C43.7208 11.1655 44.3884 10.3022 45.6023 9.87055L45.3291 8.48925L46.6644 8.25903L46.9375 9.64033C47.7568 9.58278 48.6065 9.69789 49.2438 9.95688L48.8189 11.4533C47.9996 11.1943 46.9982 11.0504 46.4216 11.1367C45.9968 11.2231 45.7236 11.4245 45.7843 11.7123C45.9968 12.8058 49.5472 11.5396 50.0024 13.8993C50.2755 15.0504 49.4865 15.9137 48.2424 16.2878Z" fill="#FFD524"/>
    <path opacity="0.2" d="M44.9347 9.41031C45.2685 10.0434 45.8451 10.5326 46.4824 10.9067C47.6052 11.5398 48.9101 11.8564 50.2149 11.77C50.6094 11.7413 51.0343 11.6837 51.3681 11.511C52.4605 10.9931 52.3088 9.81319 51.6715 9.00743C50.8825 8.00023 49.608 7.2808 48.3335 6.96426C47.3017 6.67648 45.2685 6.56138 44.7223 7.71246C44.5099 8.20167 44.6616 8.89232 44.9347 9.41031Z" fill="white"/>
    <path d="M27.8912 17.2536C31.8233 16.2475 34.1509 12.4091 33.09 8.68034C32.0291 4.95154 27.9814 2.74433 24.0494 3.75039C20.1173 4.75645 17.7897 8.59481 18.8506 12.3236C19.9115 16.0524 23.9592 18.2596 27.8912 17.2536Z" fill="#FFD524"/>
    <path d="M31.6013 12.4777C32.7561 9.52756 31.1703 6.24821 28.0593 5.15311C24.9483 4.05801 21.4902 5.56184 20.3354 8.51201C19.1806 11.4622 20.7664 14.7415 23.8774 15.8366C26.9884 16.9317 30.4465 15.4279 31.6013 12.4777Z" fill="#FFB02D"/>
    <path d="M31.7343 8.97827C32.5233 11.597 31.2184 14.4459 28.548 15.6546C25.5437 16.9783 21.9629 15.7984 20.5367 12.9495C20.1422 12.1725 19.9601 11.338 19.9601 10.5322C20.0511 10.8488 20.1725 11.1653 20.3242 11.4531C21.7505 14.302 25.3313 15.4819 28.3356 14.1294C30.4901 13.151 31.7647 11.1078 31.7343 8.97827Z" fill="#F89723"/>
    <path d="M27.8198 12.6909L28.366 13.7557L27.3646 14.2161L26.8184 13.1226C26.0598 13.3528 25.2708 13.3816 24.5728 13.2089L24.6031 11.9715C25.3618 12.1729 26.3329 12.1154 26.8791 11.8564C27.2736 11.6837 27.4557 11.4247 27.3343 11.1657C26.9094 10.3312 24.4211 12.0866 23.541 10.3312C23.1465 9.55423 23.4803 8.74847 24.33 8.17292L23.8142 7.13695L24.8156 6.67651L25.3315 7.71249C25.9687 7.51105 26.6363 7.42472 27.2129 7.51105V8.77724C26.5149 8.71969 25.6956 8.80602 25.2708 9.00746C24.937 9.15135 24.7852 9.35279 24.9066 9.583C25.3315 10.3888 27.8198 8.69091 28.7302 10.4751C29.1247 11.3096 28.6999 12.1442 27.8198 12.6909Z" fill="#FFD524"/>
    <path opacity="0.2" d="M23.6624 7.94269C24.0569 8.37435 24.6334 8.63335 25.21 8.80601C26.2418 9.09378 27.3342 9.065 28.3357 8.74845C28.6391 8.63335 28.9426 8.51824 29.1853 8.3168C29.944 7.71248 29.5495 6.79161 28.8819 6.27362C28.0322 5.64052 26.879 5.32397 25.7866 5.32397C24.9066 5.32397 23.2982 5.61175 23.1161 6.61895C23.0858 7.07938 23.3589 7.59737 23.6624 7.94269Z" fill="white"/>
    <path d="M84.9914 56.691L37.6213 64.8637L30.5811 28.288L77.9511 20.1153C79.4988 19.8563 81.016 20.8347 81.2892 22.3023L87.2977 53.5255C87.5708 55.0219 86.539 56.432 84.9914 56.691Z" fill="url(#paint1_linear_255_2854)"/>
    <path opacity="0.3" d="M81.2893 22.3025L81.9265 25.6118C81.6534 24.1442 80.1361 23.137 78.5885 23.4248L31.2184 31.5975L30.5812 28.2881L77.9512 20.1154C79.5292 19.8276 81.0162 20.806 81.2893 22.3025Z" fill="url(#paint2_linear_255_2854)"/>
    <path d="M85.8408 42.1587L69.363 45.0076L67.694 36.2594L84.1718 33.4104C85.0518 33.2666 85.8712 33.8133 86.0229 34.6191L87.1154 40.4033C87.2975 41.2378 86.7209 42.0148 85.8408 42.1587Z" fill="#CB7319"/>
    <path d="M75.3411 39.4533C75.5535 40.5756 74.7645 41.6404 73.581 41.8418C72.3975 42.0432 71.2747 41.295 71.0623 40.1727C70.8498 39.0504 71.6388 37.9857 72.8223 37.7842C74.0058 37.5828 75.1286 38.331 75.3411 39.4533Z" fill="#532C00"/>
    <path d="M72.4281 39.1082C72.5191 39.3384 72.7315 39.5111 72.9439 39.655C73.1867 39.8276 73.4598 40.0291 73.7633 40.0866C74.0668 40.1442 74.4309 40.0291 74.5523 39.7413C74.6433 39.5111 74.5523 39.2521 74.4006 39.0506C74.1274 38.6478 73.6116 38.3888 73.0957 38.3312C72.6101 38.2737 72.1853 38.5614 72.4281 39.1082Z" fill="#774206"/>
    <path d="M39.1082 58.5901H18.8675H17.6536V60.7484C17.6536 63.3671 22.7214 65.5254 29.003 65.5254C35.2543 65.5254 40.3524 63.3959 40.3524 60.7484V58.5901H39.1082Z" fill="#CB7319"/>
    <path d="M40.3222 58.5035V59.8848C40.3222 62.5036 35.2544 64.6618 28.9728 64.6618C22.7215 64.6618 17.6234 62.5323 17.6234 59.8848V58.5899C17.6234 58.3021 17.6841 58.0143 17.8055 57.7266H40.1098C40.2615 57.9856 40.3222 58.2445 40.3222 58.5035Z" fill="#F89723"/>
    <path d="M40.3222 58.59C40.3222 58.6188 40.3222 58.6475 40.3222 58.6763C40.2312 61.2663 35.1937 63.367 28.9728 63.367C22.7215 63.367 17.6234 61.2375 17.6234 58.59C17.6234 58.3022 17.6841 58.0144 17.8055 57.7267C18.7462 55.5108 23.3891 53.813 28.9728 53.813C34.5261 53.813 39.1691 55.5108 40.1401 57.7267C40.2615 57.9857 40.3222 58.2447 40.3222 58.5037C40.3222 58.5324 40.3222 58.5612 40.3222 58.59Z" fill="#FFD524"/>
    <path d="M28.9727 62.4749C34.0676 62.4749 38.1978 60.7356 38.1978 58.59C38.1978 56.4444 34.0676 54.7051 28.9727 54.7051C23.8777 54.7051 19.7475 56.4444 19.7475 58.59C19.7475 60.7356 23.8777 62.4749 28.9727 62.4749Z" fill="#FFB02D"/>
    <path d="M38.0764 59.2518C37.3177 61.0648 33.5548 62.4461 29.0029 62.4461C23.9048 62.4461 19.7778 60.7195 19.7778 58.5612C19.7778 57.9569 20.0812 57.4101 20.6578 56.9209C20.5668 57.1511 20.5061 57.3526 20.5061 57.5828C20.5061 59.7123 24.6331 61.4677 29.7312 61.4677C33.4031 61.4677 36.5894 60.5756 38.0764 59.2518Z" fill="#F89723"/>
    <path d="M30.035 60.0287V60.8345H28.366V60.0287C27.1825 59.9712 26.0293 59.7409 25.1796 59.4532L26.09 58.705C27.0004 59.0215 28.366 59.2805 29.3067 59.2805C30.0046 59.2805 30.4295 59.1654 30.4295 58.964C30.4295 58.3309 25.7562 58.705 25.7562 57.3812C25.7562 56.7769 26.7576 56.374 28.3963 56.2589V55.4819H30.035V56.2589C31.0667 56.3165 32.0682 56.4604 32.7965 56.6618L31.9164 57.4388C30.9757 57.2086 29.7922 57.0359 29.0639 57.0359C28.5177 57.0359 28.1535 57.1222 28.1535 57.2949C28.1535 57.8992 32.8268 57.5539 32.8268 58.9064C32.8268 59.5395 31.613 59.9424 30.035 60.0287Z" fill="#FFD524"/>
    <path opacity="0.2" d="M27.6071 56.3744C27.8802 56.7485 28.4568 57.065 29.1548 57.3528C30.3686 57.8132 31.9163 58.101 33.5549 58.1873C34.0405 58.2161 34.5564 58.2161 35.0419 58.1586C36.4985 57.9859 36.6199 57.324 36.013 56.806C35.2847 56.1729 33.8887 55.6549 32.4018 55.3672C31.188 55.1082 28.7299 54.8492 27.7892 55.4247C27.3644 55.6837 27.3947 56.0578 27.6071 56.3744Z" fill="white"/>
    <path d="M38.3795 55.1948H18.1388H16.9249V57.3531C16.9249 59.9718 21.9927 62.1301 28.2743 62.1301C34.5256 62.1301 39.6237 60.0006 39.6237 57.3531V55.1948H38.3795Z" fill="#CB7319"/>
    <path d="M39.5938 55.1083V56.4896C39.5938 59.1083 34.526 61.2666 28.2444 61.2666C21.9931 61.2666 16.895 59.1371 16.895 56.4896V55.1946C16.895 54.9068 16.9557 54.6191 17.0771 54.3313H39.3814C39.5331 54.5903 39.5938 54.8493 39.5938 55.1083Z" fill="#F89723"/>
    <path d="M39.594 55.1657C39.594 55.1944 39.594 55.2232 39.594 55.252C39.5029 57.8419 34.4655 59.9427 28.2446 59.9427C21.9933 59.9427 16.8952 57.8132 16.8952 55.1657C16.8952 54.8779 16.9559 54.5901 17.0773 54.3024C18.018 52.0865 22.6609 50.3887 28.2446 50.3887C33.7979 50.3887 38.4408 52.0865 39.4119 54.3024C39.5333 54.5614 39.594 54.8203 39.594 55.0793C39.594 55.1369 39.594 55.1369 39.594 55.1657Z" fill="#FFD524"/>
    <path d="M28.2444 59.0794C33.3393 59.0794 37.4696 57.3401 37.4696 55.1945C37.4696 53.0489 33.3393 51.3096 28.2444 51.3096C23.1495 51.3096 19.0192 53.0489 19.0192 55.1945C19.0192 57.3401 23.1495 59.0794 28.2444 59.0794Z" fill="#FFB02D"/>
    <path d="M37.348 55.8566C36.5894 57.6695 32.8265 59.0508 28.2746 59.0508C23.1765 59.0508 19.0494 57.3242 19.0494 55.1659C19.0494 54.5616 19.3529 54.0148 19.9295 53.5256C19.8384 53.7559 19.7777 53.9573 19.7777 54.1875C19.7777 56.317 23.9048 58.0724 29.0029 58.0724C32.6748 58.0724 35.8611 57.1516 37.348 55.8566Z" fill="#F89723"/>
    <path d="M29.3063 56.6335V57.4392H27.6069V56.6335C26.4234 56.5759 25.2703 56.3457 24.4206 56.0579L25.331 55.3097C26.2414 55.6263 27.6069 55.8852 28.5476 55.8852C29.2456 55.8852 29.6704 55.7701 29.6704 55.5687C29.6704 54.9356 24.9972 55.3097 24.9972 53.986C24.9972 53.3816 25.9986 52.9788 27.6373 52.8637V52.0867H29.3063V52.8637C30.3381 52.9212 31.3395 53.0651 32.0678 53.2665L31.1877 54.0435C30.247 53.8133 29.0635 53.6406 28.3352 53.6406C27.789 53.6406 27.4248 53.727 27.4248 53.8996C27.4248 54.5039 32.0981 54.1586 32.0981 55.5111C32.0678 56.1442 30.8843 56.5183 29.3063 56.6335Z" fill="#FFD524"/>
    <path opacity="0.2" d="M26.8789 52.9789C27.152 53.353 27.7285 53.6695 28.4265 53.9573C29.6403 54.4177 31.188 54.7055 32.8267 54.7918C33.3122 54.8206 33.8281 54.8206 34.3136 54.763C35.7702 54.5904 35.8916 53.9285 35.2847 53.4105C34.5564 52.7774 33.1605 52.2594 31.6735 51.9717C30.4597 51.7127 28.0017 51.4537 27.0609 52.0292C26.6361 52.2594 26.6664 52.6623 26.8789 52.9789Z" fill="white"/>
    <path d="M42.2942 51.1658H22.0535H20.8397V53.3241C20.8397 55.9428 25.9074 58.1011 32.189 58.1011C38.4403 58.1011 43.5384 55.9716 43.5384 53.3241V51.1658H42.2942Z" fill="#CB7319"/>
    <path d="M43.5082 51.0795V52.4608C43.5082 55.0795 38.4404 57.2378 32.1588 57.2378C25.9076 57.2378 20.8094 55.1083 20.8094 52.4608V51.1658C20.8094 50.878 20.8701 50.5903 20.9915 50.3025H43.2958C43.4475 50.5615 43.5082 50.8205 43.5082 51.0795Z" fill="#F89723"/>
    <path d="M43.5381 51.1657C43.5381 51.1945 43.5381 51.2232 43.5381 51.252C43.447 53.8419 38.4096 55.9427 32.1887 55.9427C25.9374 55.9427 20.8393 53.8132 20.8393 51.1657C20.8393 50.8779 20.9 50.5901 21.0214 50.3024C21.9621 48.0865 26.605 46.3887 32.1887 46.3887C37.742 46.3887 42.3849 48.0865 43.356 50.3024C43.4774 50.5614 43.5381 50.8203 43.5381 51.0793C43.5381 51.1081 43.5381 51.1369 43.5381 51.1657Z" fill="#FFD524"/>
    <path d="M32.1894 55.0506C37.2843 55.0506 41.4146 53.3113 41.4146 51.1657C41.4146 49.0201 37.2843 47.2808 32.1894 47.2808C27.0945 47.2808 22.9642 49.0201 22.9642 51.1657C22.9642 53.3113 27.0945 55.0506 32.1894 55.0506Z" fill="#FFB02D"/>
    <path d="M41.2625 51.8278C40.5039 53.6407 36.741 55.022 32.1891 55.022C27.091 55.022 22.9639 53.2954 22.9639 51.1371C22.9639 50.5328 23.2674 49.986 23.844 49.4968C23.7529 49.727 23.6922 49.9285 23.6922 50.1587C23.6922 52.2882 27.8193 54.0436 32.9174 54.0436C36.6196 54.0436 39.7756 53.1515 41.2625 51.8278Z" fill="#F89723"/>
    <path d="M33.221 52.6044V53.4102H31.5519V52.6044C30.3684 52.5469 29.2153 52.3166 28.3656 52.0289L29.276 51.2807C30.1864 51.5972 31.5519 51.8562 32.4927 51.8562C33.1906 51.8562 33.6155 51.7411 33.6155 51.5397C33.6155 50.9066 28.9422 51.2807 28.9422 49.9569C28.9422 49.3526 29.9436 48.9497 31.5823 48.8346V48.0576H33.2513V48.8346C34.2831 48.8922 35.2845 49.036 36.0128 49.2375L35.1328 50.0145C34.192 49.7842 33.0085 49.6116 32.2802 49.6116C31.734 49.6116 31.3699 49.6979 31.3699 49.8706C31.3699 50.4749 36.0431 50.1296 36.0431 51.4821C36.0128 52.144 34.8293 52.5181 33.221 52.6044Z" fill="#FFD524"/>
    <path opacity="0.2" d="M30.7931 48.9501C31.0662 49.3242 31.6428 49.6407 32.3408 49.9285C33.5546 50.3889 35.1022 50.6767 36.7409 50.763C37.2265 50.7918 37.7423 50.7918 38.2279 50.7342C39.6845 50.5616 39.8059 49.8997 39.1989 49.3817C38.4706 48.7486 37.0747 48.2306 35.5878 47.9429C34.3739 47.6839 31.9159 47.4249 30.9752 48.0004C30.5503 48.2594 30.5807 48.6623 30.7931 48.9501Z" fill="white"/>
    <path d="M35.7397 48.6907H15.4686H14.2548V50.849C14.2548 53.4677 19.3225 55.626 25.6042 55.626C31.8554 55.626 36.9535 53.4965 36.9535 50.849V48.6907H35.7397Z" fill="#CB7319"/>
    <path d="M36.9535 48.6044V49.9857C36.9535 52.6044 31.8858 54.7627 25.6042 54.7627C19.3529 54.7627 14.2548 52.6332 14.2548 49.9857V48.6907C14.2548 48.4029 14.3155 48.1152 14.4368 47.8274H36.7411C36.8625 48.0864 36.9232 48.3454 36.9535 48.6044Z" fill="#F89723"/>
    <path d="M36.9537 48.6908C36.9537 48.7196 36.9537 48.7484 36.9537 48.7771C36.8626 51.3671 31.8252 53.4678 25.6043 53.4678C19.353 53.4678 14.2549 51.3383 14.2549 48.6908C14.2549 48.403 14.3156 48.1153 14.437 47.8275C15.3777 45.6117 20.0206 43.9138 25.6043 43.9138C31.1576 43.9138 35.8005 45.6117 36.7716 47.8275C36.893 48.0865 36.9537 48.3455 36.9537 48.6045C36.9537 48.6333 36.9537 48.662 36.9537 48.6908Z" fill="#FFD524"/>
    <path d="M25.6044 52.5757C30.6994 52.5757 34.8296 50.8364 34.8296 48.6908C34.8296 46.5452 30.6994 44.8059 25.6044 44.8059C20.5095 44.8059 16.3793 46.5452 16.3793 48.6908C16.3793 50.8364 20.5095 52.5757 25.6044 52.5757Z" fill="#FFB02D"/>
    <path d="M34.678 49.3529C33.9194 51.1659 30.1565 52.5472 25.6046 52.5472C20.5064 52.5472 16.3794 50.8206 16.3794 48.6623C16.3794 48.058 16.6829 47.5112 17.2594 47.022C17.1684 47.2522 17.1077 47.4536 17.1077 47.6838C17.1077 49.8134 21.2347 51.5688 26.3329 51.5688C30.0351 51.5688 33.2214 50.6767 34.678 49.3529Z" fill="#F89723"/>
    <path d="M26.636 50.1298V50.9356H24.967V50.1298C23.7835 50.0722 22.6303 49.842 21.7806 49.5543L22.691 48.8061C23.6014 49.1226 24.967 49.3816 25.9077 49.3816C26.6056 49.3816 27.0305 49.2665 27.0305 49.065C27.0305 48.4319 22.3572 48.806 22.3572 47.4823C22.3572 46.878 23.3586 46.4751 24.9973 46.36V45.583H26.6663V46.36C27.6981 46.4175 28.6995 46.5614 29.4278 46.7629L28.5478 47.5399C27.6071 47.3096 26.4236 47.137 25.6953 47.137C25.149 47.137 24.7849 47.2233 24.7849 47.396C24.7849 48.0003 29.4582 47.655 29.4582 49.0075C29.4278 49.6694 28.2443 50.0435 26.636 50.1298Z" fill="#FFD524"/>
    <path opacity="0.2" d="M24.2086 46.475C24.4817 46.8491 25.0583 47.1656 25.7562 47.4534C26.9701 47.9138 28.5177 48.2016 30.1564 48.2879C30.6419 48.3167 31.1578 48.3167 31.6434 48.2591C33.1 48.0865 33.2213 47.4246 32.6144 46.9066C31.8861 46.2735 30.4902 45.7555 29.0033 45.4678C27.7894 45.2088 25.3314 44.9498 24.3907 45.5253C23.9962 45.7843 23.9962 46.1872 24.2086 46.475Z" fill="white"/>
    <path d="M41.2324 43.7415H20.9917H19.7778V45.8997C19.7778 48.5185 24.8456 50.6767 31.1272 50.6767C37.3785 50.6767 42.4766 48.5472 42.4766 45.8997V43.7415H41.2324Z" fill="#CB7319"/>
    <path d="M42.4464 43.6549V45.0362C42.4464 47.6549 37.3786 49.8132 31.097 49.8132C24.8457 49.8132 19.7476 47.6837 19.7476 45.0362V43.7412C19.7476 43.4535 19.8083 43.1657 19.9297 42.8779H42.234C42.3857 43.1369 42.4464 43.3959 42.4464 43.6549Z" fill="#F89723"/>
    <path d="M42.4463 43.7411C42.4463 43.7699 42.4463 43.7987 42.4463 43.8274C42.3553 46.4174 37.3179 48.5181 31.097 48.5181C24.8457 48.5181 19.7476 46.3886 19.7476 43.7411C19.7476 43.4533 19.8083 43.1656 19.9296 42.8778C20.8704 40.662 25.5133 38.9641 31.097 38.9641C36.6503 38.9641 41.2932 40.662 42.2643 42.8778C42.3857 43.1368 42.4463 43.3958 42.4463 43.6548C42.4463 43.6836 42.4463 43.7123 42.4463 43.7411Z" fill="#FFD524"/>
    <path d="M31.0975 47.626C36.1924 47.626 40.3227 45.8867 40.3227 43.7411C40.3227 41.5955 36.1924 39.8562 31.0975 39.8562C26.0026 39.8562 21.8723 41.5955 21.8723 43.7411C21.8723 45.8867 26.0026 47.626 31.0975 47.626Z" fill="#FFB02D"/>
    <path d="M40.2008 44.4032C39.4422 46.2162 35.6793 47.5975 31.1274 47.5975C26.0293 47.5975 21.9022 45.8708 21.9022 43.7126C21.9022 43.1082 22.2057 42.5615 22.7823 42.0723C22.6912 42.3025 22.6305 42.5039 22.6305 42.7341C22.6305 44.8636 26.7576 46.6191 31.8557 46.6191C35.5276 46.6191 38.7139 45.727 40.2008 44.4032Z" fill="#F89723"/>
    <path d="M32.1592 45.1801V45.9858H30.4902V45.1801C29.3067 45.1225 28.1536 44.8923 27.3039 44.6045L28.2143 43.8563C29.1247 44.1729 30.4902 44.4319 31.4309 44.4319C32.1289 44.4319 32.5537 44.3168 32.5537 44.1153C32.5537 43.4822 27.8805 43.8563 27.8805 42.5326C27.8805 41.9283 28.8819 41.5254 30.5206 41.4103V40.6333H32.1896V41.4103C33.2214 41.4678 34.2228 41.6117 34.9511 41.8132L34.071 42.5901C33.1303 42.3599 31.9468 42.1873 31.2185 42.1873C30.6723 42.1873 30.3081 42.2736 30.3081 42.4463C30.3081 43.0506 34.9814 42.7053 34.9814 44.0578C34.9207 44.7197 33.7372 45.0938 32.1592 45.1801Z" fill="#FFD524"/>
    <path opacity="0.2" d="M29.7316 41.5255C30.0048 41.8996 30.5813 42.2162 31.2793 42.5039C32.4931 42.9644 34.0408 43.2521 35.6795 43.3385C36.165 43.3672 36.6809 43.3672 37.1664 43.3097C38.623 43.137 38.7444 42.4751 38.1375 41.9572C37.4092 41.3241 36.0133 40.8061 34.5263 40.5183C33.3125 40.2593 30.8544 40.0003 29.9137 40.5759C29.4889 40.8348 29.5192 41.2377 29.7316 41.5255Z" fill="white"/>
    <path d="M91.6672 58.8779H71.4264H70.2126V61.0362C70.2126 63.6549 75.2804 65.8132 81.562 65.8132C87.8132 65.8132 92.9114 63.6837 92.9114 61.0362V58.8779H91.6672Z" fill="#CB7319"/>
    <path d="M92.8811 58.7914V60.1727C92.8811 62.7914 87.8134 64.9497 81.5318 64.9497C75.2805 64.9497 70.1824 62.8202 70.1824 60.1727V58.8777C70.1824 58.5899 70.2431 58.3022 70.3644 58.0144H92.6687C92.8204 58.2734 92.8811 58.5324 92.8811 58.7914Z" fill="#F89723"/>
    <path d="M92.9109 58.8781C92.9109 58.9069 92.9109 58.9356 92.9109 58.9644C92.8199 61.5543 87.7825 63.6551 81.5615 63.6551C75.3103 63.6551 70.2122 61.5256 70.2122 58.8781C70.2122 58.5903 70.2729 58.3025 70.3942 58.0148C71.335 55.7989 75.9779 54.1011 81.5615 54.1011C87.1149 54.1011 91.7578 55.7989 92.7289 58.0148C92.8502 58.2738 92.9109 58.5328 92.9109 58.7917C92.9109 58.8205 92.9109 58.8493 92.9109 58.8781Z" fill="#FFD524"/>
    <path d="M81.5625 62.763C86.6574 62.763 90.7876 61.0237 90.7876 58.8781C90.7876 56.7325 86.6574 54.9932 81.5625 54.9932C76.4675 54.9932 72.3373 56.7325 72.3373 58.8781C72.3373 61.0237 76.4675 62.763 81.5625 62.763Z" fill="#FFB02D"/>
    <path d="M90.6358 59.5402C89.8771 61.3531 86.1142 62.7344 81.5623 62.7344C76.4642 62.7344 72.3372 61.0078 72.3372 58.8495C72.3372 58.2452 72.6406 57.6984 73.2172 57.2092C73.1262 57.4394 73.0655 57.6409 73.0655 57.8711C73.0655 60.0006 77.1925 61.756 82.2906 61.756C85.9929 61.756 89.1488 60.8639 90.6358 59.5402Z" fill="#F89723"/>
    <path d="M82.5939 60.3168V61.1226H80.9249V60.3168C79.7414 60.2593 78.5882 60.029 77.7385 59.7413L78.6489 58.9931C79.5593 59.3096 80.9248 59.5686 81.8656 59.5686C82.5635 59.5686 82.9884 59.4535 82.9884 59.2521C82.9884 58.619 78.3151 58.9931 78.3151 57.6693C78.3151 57.065 79.3165 56.6621 80.9552 56.547V55.77H82.6242V56.547C83.656 56.6046 84.6574 56.7484 85.3857 56.9499L84.5057 57.7269C83.5649 57.4966 82.3815 57.324 81.6532 57.324C81.1069 57.324 80.7428 57.4103 80.7428 57.583C80.7428 58.1873 85.4161 57.842 85.4161 59.1945C85.3857 59.8276 84.2022 60.2305 82.5939 60.3168Z" fill="#FFD524"/>
    <path opacity="0.2" d="M80.1666 56.6625C80.4397 57.0366 81.0163 57.3531 81.7142 57.6409C82.9281 58.1013 84.4757 58.3891 86.1144 58.4754C86.5999 58.5042 87.1158 58.5042 87.6013 58.4466C89.058 58.274 89.1793 57.6121 88.5724 57.0941C87.8441 56.461 86.4482 55.943 84.9612 55.6553C83.7474 55.3963 81.2894 55.1373 80.3487 55.7128C79.9238 55.9718 79.9542 56.3459 80.1666 56.6625Z" fill="white"/>
    <path d="M95.5212 54.8491H75.2502H74.0363V57.0074C74.0363 59.6261 79.1041 61.7844 85.3857 61.7844C91.637 61.7844 96.7351 59.6549 96.7351 57.0074V54.8491H95.5212Z" fill="#CB7319"/>
    <path d="M96.7351 54.7626V56.1439C96.7351 58.7626 91.6673 60.9209 85.3857 60.9209C79.1344 60.9209 74.0363 58.7914 74.0363 56.1439V54.8489C74.0363 54.5611 74.097 54.2734 74.2184 53.9856H96.5227C96.6441 54.2446 96.7047 54.5036 96.7351 54.7626Z" fill="#F89723"/>
    <path d="M96.7352 54.849C96.7352 54.8778 96.7352 54.9066 96.7352 54.9354C96.6442 57.5253 91.6067 59.626 85.3858 59.626C79.1346 59.626 74.0364 57.4965 74.0364 54.849C74.0364 54.5613 74.0971 54.2735 74.2185 53.9857C75.1592 51.7699 79.8022 50.072 85.3858 50.072C90.9391 50.072 95.5821 51.7699 96.5531 53.9857C96.6745 54.2447 96.7352 54.5037 96.7352 54.7627C96.7352 54.7915 96.7352 54.8202 96.7352 54.849Z" fill="#FFD524"/>
    <path d="M85.3862 58.7339C90.4811 58.7339 94.6113 56.9946 94.6113 54.849C94.6113 52.7034 90.4811 50.9641 85.3862 50.9641C80.2913 50.9641 76.161 52.7034 76.161 54.849C76.161 56.9946 80.2913 58.7339 85.3862 58.7339Z" fill="#FFB02D"/>
    <path d="M94.4594 55.5109C93.7007 57.3238 89.9378 58.7051 85.3859 58.7051C80.2878 58.7051 76.1608 56.9785 76.1608 54.8202C76.1608 54.2159 76.4642 53.6691 77.0408 53.1799C76.9498 53.4101 76.8891 53.6116 76.8891 53.8418C76.8891 55.9713 81.0161 57.7267 86.1142 57.7267C89.8164 57.7555 93.0028 56.8346 94.4594 55.5109Z" fill="#F89723"/>
    <path d="M86.4176 56.2878V57.0935H84.7486V56.2878C83.5651 56.2302 82.4119 56 81.5623 55.7122L82.4726 54.964C83.383 55.2806 84.7486 55.5395 85.6893 55.5395C86.3873 55.5395 86.8121 55.4244 86.8121 55.223C86.8121 54.5899 82.1388 54.964 82.1388 53.6403C82.1388 53.0359 83.1402 52.6331 84.7789 52.5179V51.741H86.448V52.5179C87.4797 52.5755 88.4811 52.7194 89.2094 52.9208L88.3294 53.6978C87.3887 53.4676 86.2052 53.2949 85.4769 53.2949C84.9307 53.2949 84.5665 53.3813 84.5665 53.5539C84.5665 54.1582 89.2398 53.8129 89.2398 55.1654C89.2094 55.8273 88.0259 56.2014 86.4176 56.2878Z" fill="#FFD524"/>
    <path opacity="0.2" d="M83.9897 52.6334C84.2628 53.0075 84.8393 53.3241 85.5373 53.6118C86.7511 54.0723 88.2988 54.36 89.9375 54.4464C90.423 54.4751 90.9389 54.4751 91.4244 54.4176C92.881 54.2449 93.0024 53.5831 92.3955 53.0651C91.6672 52.432 90.2713 51.914 88.7843 51.6262C87.5705 51.3672 85.1125 51.1082 84.1717 51.6838C83.7772 51.9428 83.8076 52.3456 83.9897 52.6334Z" fill="white"/>
    <path d="M80.6824 5.69794L80.4396 4.97852L80.1968 5.69794C79.863 6.61881 79.1954 7.39579 78.285 7.85623C79.1954 8.31666 79.863 9.09365 80.1968 10.0145L80.4396 10.7339L80.6824 10.0145C81.0162 9.09365 81.6838 8.31666 82.5942 7.85623C81.7141 7.39579 81.0162 6.61881 80.6824 5.69794Z" fill="white"/>
    <path d="M14.528 37.6979L14.2852 36.9785L14.0425 37.6979C13.7087 38.6188 13.0411 39.3958 12.1307 39.8562C13.0411 40.3167 13.7087 41.0936 14.0425 42.0145L14.2852 42.7339L14.528 42.0145C14.8618 41.0936 15.5294 40.3167 16.4398 39.8562C15.5294 39.3958 14.8315 38.6188 14.528 37.6979Z" fill="white"/>
    <path d="M74.8861 0.546765L74.704 0L74.522 0.546765C74.2792 1.23742 73.7633 1.81296 73.0654 2.18706C73.733 2.53239 74.2489 3.10793 74.522 3.82736L74.704 4.37412L74.8861 3.82736C75.1289 3.13671 75.6448 2.56116 76.3427 2.18706C75.6448 1.81296 75.1289 1.23742 74.8861 0.546765Z" fill="white"/>
    <path d="M79.3772 42.7914L79.1951 42.2446L79.0131 42.7914C78.7703 43.482 78.2544 44.0576 77.5565 44.4317C78.2241 44.777 78.7399 45.3526 79.0131 46.072L79.1951 46.6188L79.3772 46.072C79.62 45.3813 80.1358 44.8058 80.8338 44.4317C80.1358 44.0576 79.62 43.482 79.3772 42.7914Z" fill="white"/>
    <path d="M58.469 3.16542L58.2869 2.61865L58.1049 3.16542C57.8621 3.85607 57.3462 4.43161 56.6483 4.80571C57.3159 5.15104 57.8317 5.72658 58.1049 6.44601L58.2869 6.99277L58.469 6.44601C58.7118 5.75536 59.2277 5.17982 59.9256 4.80571C59.2277 4.46039 58.7118 3.88485 58.469 3.16542Z" fill="white"/>
    <path d="M17.3806 0.604382L17.1986 0.0576172L16.9861 0.604382C16.7434 1.29503 16.2275 1.87058 15.5295 2.24468C16.1972 2.59 16.713 3.16555 16.9861 3.88497L17.1682 4.43174L17.3503 3.88497C17.5931 3.19432 18.1089 2.61878 18.8069 2.24468C18.1393 1.89935 17.6234 1.32381 17.3806 0.604382Z" fill="white"/>
    <path d="M13.3142 6.01424L13.1928 5.64014L13.0411 6.01424C12.859 6.47467 12.5252 6.87755 12.07 7.10777C12.5252 7.33799 12.8893 7.74087 13.0411 8.2013L13.1625 8.5754L13.2838 8.2013C13.4659 7.74087 13.7997 7.33799 14.2549 7.10777C13.8301 6.87755 13.4659 6.50345 13.3142 6.01424Z" fill="white"/>
    <path d="M10.5527 43.3097L10.4313 42.9355L10.3099 43.3097C10.1279 43.7701 9.79406 44.173 9.33887 44.4032C9.79406 44.6334 10.1582 45.0363 10.3099 45.4967L10.4313 45.8708L10.5527 45.4967C10.7348 45.0363 11.0686 44.6334 11.5238 44.4032C11.0686 44.173 10.7348 43.7701 10.5527 43.3097Z" fill="white"/>
    <path d="M80.9553 37.2088L80.8339 36.8347L80.7125 37.2088C80.5305 37.6693 80.1966 38.0721 79.7415 38.3024C80.1966 38.5326 80.5608 38.9354 80.7125 39.3959L80.8339 39.77L80.9553 39.3959C81.1374 38.9354 81.4712 38.5326 81.9264 38.3024C81.4712 38.1009 81.107 37.698 80.9553 37.2088Z" fill="white"/>
    <path d="M95.9212 42.5829C99.2485 40.3561 100.042 35.993 97.6939 32.8377C95.3457 29.6824 90.7447 28.9298 87.4174 31.1566C84.0901 33.3835 83.2965 37.7466 85.6447 40.9019C87.993 44.0572 92.5939 44.8098 95.9212 42.5829Z" fill="#FFD524"/>
    <path d="M97.6359 37.5536C98.0277 34.4287 95.6746 31.5894 92.38 31.2119C89.0855 30.8345 86.0972 33.0617 85.7055 36.1866C85.3137 39.3115 87.6669 42.1507 90.9614 42.5282C94.2559 42.9057 97.2442 40.6785 97.6359 37.5536Z" fill="#FFB02D"/>
    <path d="M97.342 38.7054C96.4013 41.2666 93.6398 42.9069 90.7266 42.4752C87.4492 41.986 85.234 39.0507 85.7498 35.9428C85.9016 35.0795 86.2354 34.3025 86.7209 33.6406C86.5995 33.9572 86.5085 34.2737 86.4781 34.5903C85.9623 37.6982 88.1775 40.6047 91.4549 41.1227C93.8219 41.468 96.0675 40.4896 97.342 38.7054Z" fill="#F89723"/>
    <path d="M91.8799 39.6548L91.6674 40.8346L90.575 40.662L90.7874 39.4821C90.0288 39.2519 89.3611 38.849 88.8756 38.3598L89.6343 37.3526C90.1501 37.9281 90.9695 38.3886 91.5461 38.4749C91.9709 38.5325 92.2744 38.4174 92.335 38.1584C92.4868 37.2375 89.3915 37.3526 89.7253 35.4245C89.877 34.5612 90.6053 34.072 91.6978 34.072L91.8799 32.9497L92.9723 33.1224L92.7902 34.2447C93.4578 34.4173 94.0344 34.7339 94.4593 35.0792L93.7006 36.1152C93.1544 35.7123 92.4261 35.3382 91.9709 35.2519C91.6067 35.1943 91.364 35.2807 91.3033 35.5396C91.1516 36.4317 94.2468 36.3742 93.913 38.331C93.7917 39.2519 92.942 39.6836 91.8799 39.6548Z" fill="#FFD524"/>
    <path opacity="0.2" d="M91.3338 33.5252C91.3945 34.1007 91.7283 34.6187 92.0924 35.0791C92.7601 35.8561 93.7008 36.4317 94.7022 36.7194C95.0057 36.8058 95.3395 36.8633 95.6733 36.8345C96.6443 36.7194 96.8871 35.7698 96.6443 34.9928C96.3105 34.0144 95.5519 33.1223 94.6718 32.5467C93.9435 32.0575 92.4566 31.4244 91.698 32.1726C91.3338 32.4892 91.2731 33.0647 91.3338 33.5252Z" fill="white"/>

</svg>
