<svg width="60" height="60" viewBox="0 0 60 60" fill="none" xmlns="http://www.w3.org/2000/svg">
    <defs>
        <linearGradient id="paint0_linear_1329_12283" x1="60" y1="30" x2="2.29454e-07" y2="30" gradientUnits="userSpaceOnUse">
            <stop stop-color="#EA1E5B"/>
            <stop offset="1" stop-color="#F5932F"/>
        </linearGradient>
        <linearGradient id="paint1_linear_1329_12283" x1="47.7048" y1="39.54" x2="47.7761" y2="31.2892" gradientUnits="userSpaceOnUse">
            <stop stop-color="#F6F6F6"/>
            <stop offset="0.4778" stop-color="#EAEAEA"/>
            <stop offset="1" stop-color="#DADADA"/>
        </linearGradient>
        <linearGradient id="paint2_linear_1329_12283" x1="47.4585" y1="32.3246" x2="45.5152" y2="33.1844" gradientUnits="userSpaceOnUse">
            <stop stop-color="#BDBCBC"/>
            <stop offset="1" stop-color="#D0D0D0"/>
        </linearGradient>
        <linearGradient id="paint3_linear_1329_12283" x1="50.008" y1="31.8075" x2="39.3269" y2="21.8375" gradientUnits="userSpaceOnUse">
            <stop stop-color="#FAFAFA"/>
            <stop offset="1" stop-color="#E9E9E9"/>
        </linearGradient>
    </defs>
    <rect width="60" height="60" rx="8" fill="url(#paint0_linear_1329_12283)"/>
    <path d="M13.6981 29.1316C13.6981 27.5735 12.6899 26.5104 10.9302 26.5104C8.89553 26.5104 7.0625 28.1051 7.0625 30.4881C7.0625 32.5594 8.36395 33.4576 10.0687 33.4576C11.2601 33.4576 12.3233 33.1643 13.1482 32.6144L12.4516 31.2029C11.8467 31.5695 11.2785 31.8445 10.5636 31.8445C9.88537 31.8445 9.26214 31.5879 9.18882 30.598H13.4598C13.5331 30.3597 13.6981 29.7182 13.6981 29.1316ZM10.8752 28.1234C11.4068 28.1234 11.7551 28.4351 11.7551 29.0949C11.7551 29.1499 11.7551 29.2049 11.7367 29.2599H9.39045C9.7204 28.4717 10.3803 28.1234 10.8752 28.1234Z" fill="white"/>
    <path d="M15.8246 24.6774H18.6108C20.3155 24.6774 21.7086 25.3189 21.7086 27.042C21.7086 29.5716 19.8206 30.4881 17.676 30.4881H16.7778L16.2095 33.2926H14.1016L15.8246 24.6774ZM17.8043 28.82C18.9224 28.82 19.564 28.3068 19.564 27.3536C19.564 26.657 19.1057 26.3454 18.2809 26.3454H17.6027L17.1261 28.82H17.8043Z" fill="white"/>
    <path d="M21.4883 30.8913C21.4883 28.4534 23.193 26.5104 25.026 26.5104C25.8692 26.5104 26.4925 26.822 26.7857 27.3352H26.8407L27.134 26.6753H28.8387L27.519 33.3109H25.7592V32.4311H25.7043C25.0994 33.091 24.3295 33.4576 23.6146 33.4576C22.3131 33.4576 21.4883 32.541 21.4883 30.8913ZM25.8692 30.818L26.3092 28.7467C26.1259 28.3984 25.7043 28.2334 25.4293 28.2334C24.5311 28.2334 23.7063 29.2233 23.7063 30.6164C23.7063 31.4046 23.9995 31.7345 24.4578 31.7345C24.8611 31.7345 25.4293 31.4779 25.8692 30.818Z" fill="white"/>
    <path d="M28.8389 32.2479L29.9937 30.9281C30.6902 31.6246 31.4968 31.9179 32.2666 31.9179C32.7799 31.9179 33.0365 31.7896 33.0365 31.5513C33.0365 31.258 32.8165 31.1297 31.9 30.8364C30.5802 30.4148 29.8104 29.8099 29.8104 28.7651C29.8104 27.2987 31.1851 26.5288 32.7249 26.5288C34.0264 26.5288 34.9062 26.9871 35.5294 27.6103L34.3746 28.8384C33.843 28.4168 33.1465 28.0869 32.4683 28.0869C32.065 28.0869 31.7717 28.2152 31.7717 28.4902C31.7717 28.7468 32.065 28.8934 33.0732 29.2417C34.2463 29.645 35.0162 30.1765 35.0162 31.258C35.0162 32.7795 33.6597 33.4943 31.9184 33.4943C30.6536 33.4577 29.5904 32.9811 28.8389 32.2479Z" fill="white"/>
    <path d="M35.4746 32.2479L36.6294 30.9281C37.326 31.6246 38.1325 31.9179 38.9024 31.9179C39.4156 31.9179 39.6723 31.7896 39.6723 31.5513C39.6723 31.258 39.4523 31.1297 38.5358 30.8364C37.216 30.4148 36.4461 29.8099 36.4461 28.7651C36.4461 27.2987 37.8209 26.5288 39.3606 26.5288C40.6621 26.5288 41.542 26.9871 42.1652 27.6103L41.0104 28.8384C40.4788 28.4168 39.7822 28.0869 39.104 28.0869C38.7008 28.0869 38.4075 28.2152 38.4075 28.4902C38.4075 28.7468 38.7008 28.8934 39.7089 29.2417C40.8821 29.645 41.6519 30.1765 41.6519 31.258C41.6519 32.7795 40.2955 33.4943 38.5541 33.4943C37.2893 33.4577 36.2262 32.9811 35.4746 32.2479Z" fill="white"/>
    <path d="M42.642 40.1125C42.642 40.1125 42.3304 37.8762 42.3854 37.6195L47.6829 24.8433C47.8112 24.715 48.0312 24.715 48.1778 24.8433L53.0353 29.6825C53.1637 29.8108 53.1637 30.0308 53.0353 30.1774L43.137 40.1308C42.9903 40.2408 42.7704 40.2408 42.642 40.1125Z" fill="url(#paint1_linear_1329_12283)"/>
    <path opacity="0.7" d="M48.2509 34.9434L47.8477 35.365C47.591 35.1083 44.6582 32.1388 44.6582 32.1388L45.5564 29.9575L48.2509 34.9434Z" fill="url(#paint2_linear_1329_12283)"/>
    <path d="M42.7336 19.9124C42.7336 19.9124 42.257 22.0754 42.312 22.332L47.8478 35.3649C47.8845 35.3282 48.0494 35.1449 48.1961 35.0166L53.0353 30.1591C53.1636 30.0308 53.1636 29.8108 53.0353 29.6642L43.2102 19.8941C43.0819 19.7658 42.8619 19.7658 42.7336 19.9124Z" fill="url(#paint3_linear_1329_12283)"/>
    <path opacity="0.3" d="M51.3671 28.0145C51.3671 28.0145 51.7154 28.6927 51.5321 29.481C51.3671 30.2142 50.6339 31.424 49.974 32.3405C48.4159 34.5218 47.8477 35.3467 47.8477 35.3467L53.0168 30.1408C53.0168 30.1408 53.2551 29.9025 53.0168 29.6459C52.7785 29.4076 51.3671 28.0145 51.3671 28.0145Z" fill="white"/>

</svg>
