<svg width="24" height="24" viewBox="0 0 24 24" fill="none" xmlns="http://www.w3.org/2000/svg">
    <path d="M21.9361 10.6368C21.8923 10.6944 21.8357 10.741 21.7706 10.7727C21.7056 10.8044 21.634 10.8203 21.5617 10.8192C21.4535 10.8178 21.3489 10.7807 21.2641 10.7136L20.1601 9.83037V19.2768C20.1563 19.6146 20.086 19.9485 19.9532 20.2592C19.8204 20.5699 19.6278 20.8514 19.3862 21.0876C19.1446 21.3239 18.8588 21.5102 18.5452 21.636C18.2316 21.7618 17.8963 21.8246 17.5585 21.8208H14.4001V16.5504C14.4051 15.906 14.1569 15.2855 13.7089 14.8224C13.4888 14.5906 13.2238 14.4064 12.9299 14.2809C12.636 14.1554 12.3196 14.0914 12.0001 14.0928C11.6811 14.0965 11.366 14.1631 11.0728 14.2886C10.7795 14.4142 10.5139 14.5963 10.291 14.8245C10.0682 15.0527 9.89242 15.3226 9.77387 15.6187C9.65531 15.9148 9.59625 16.2314 9.60005 16.5504V21.8208H6.46085C6.12172 21.8258 5.7849 21.7641 5.46964 21.639C5.15439 21.5139 4.86686 21.3279 4.62349 21.0916C4.38012 20.8554 4.18567 20.5735 4.05125 20.2621C3.91682 19.9507 3.84506 19.6159 3.84005 19.2768V9.82077L2.72645 10.7136C2.62631 10.7801 2.50482 10.8067 2.38603 10.788C2.26724 10.7693 2.15981 10.7066 2.08498 10.6125C2.01015 10.5184 1.97339 10.3996 1.98196 10.2796C1.99053 10.1597 2.0438 10.0473 2.13125 9.96477L11.7313 2.28477C11.8144 2.2144 11.9199 2.17578 12.0289 2.17578C12.1378 2.17578 12.2433 2.2144 12.3265 2.28477L21.9265 9.96477C22.0157 10.0532 22.0667 10.1732 22.0685 10.2988C22.0703 10.4245 22.0227 10.5458 21.9361 10.6368Z" fill="#73777A"/>
</svg>
