<svg width="24" height="24" viewBox="0 0 24 24" fill="none" xmlns="http://www.w3.org/2000/svg">
<defs>
    <linearGradient id="paint0_linear_27_1500" x1="22.0685" y1="11.9984" x2="1.98071" y2="11.9984" gradientUnits="userSpaceOnUse">
        <stop stop-color="#EA1E5B"/>
        <stop offset="1" stop-color="#F5932F"/>
    </linearGradient>
</defs>
<path d="M21.936 10.6367C21.8923 10.6944 21.8357 10.741 21.7706 10.7726C21.7056 10.8043 21.634 10.8203 21.5616 10.8191C21.4535 10.8178 21.3488 10.7806 21.264 10.7135L20.16 9.83034V19.2767C20.1563 19.6146 20.086 19.9484 19.9532 20.2591C19.8204 20.5698 19.6277 20.8514 19.3862 21.0876C19.1446 21.3238 18.8588 21.5102 18.5452 21.636C18.2316 21.7618 17.8963 21.8245 17.5584 21.8207H14.4V16.5503C14.4051 15.906 14.1569 15.2855 13.7088 14.8223C13.4888 14.5906 13.2237 14.4063 12.9299 14.2809C12.636 14.1554 12.3196 14.0914 12 14.0927C11.6811 14.0965 11.366 14.1631 11.0727 14.2886C10.7795 14.4141 10.5139 14.5962 10.291 14.8244C10.0681 15.0526 9.8924 15.3225 9.77384 15.6187C9.65529 15.9148 9.59623 16.2314 9.60003 16.5503V21.8207H6.46083C6.12169 21.8258 5.78488 21.764 5.46962 21.6389C5.15436 21.5138 4.86684 21.3278 4.62347 21.0916C4.3801 20.8554 4.18565 20.5735 4.05122 20.2621C3.9168 19.9507 3.84504 19.6159 3.84003 19.2767V9.82074L2.72643 10.7135C2.62628 10.7801 2.5048 10.8067 2.38601 10.7879C2.26722 10.7692 2.15979 10.7066 2.08496 10.6125C2.01013 10.5183 1.97337 10.3995 1.98193 10.2796C1.9905 10.1596 2.04378 10.0473 2.13123 9.96474L11.7312 2.28474C11.8144 2.21437 11.9199 2.17575 12.0288 2.17575C12.1378 2.17575 12.2432 2.21437 12.3264 2.28474L21.9264 9.96474C22.0157 10.0532 22.0667 10.1731 22.0685 10.2988C22.0703 10.4244 22.0227 10.5458 21.936 10.6367Z" fill="url(#paint0_linear_27_1500)"/>
</svg>
