<svg width="24" height="24" viewBox="0 0 24 24" fill="none" xmlns="http://www.w3.org/2000/svg">
    <defs>
        <linearGradient id="paint0_linear_27_1620" x1="21" y1="9.75" x2="3" y2="9.75" gradientUnits="userSpaceOnUse">
            <stop stop-color="#EA1E5B"/>
            <stop offset="1" stop-color="#F5932F"/>
        </linearGradient>
        <linearGradient id="paint1_linear_27_1620" x1="15.6751" y1="21.75" x2="8.32507" y2="21.75" gradientUnits="userSpaceOnUse">
            <stop stop-color="#EA1E5B"/>
            <stop offset="1" stop-color="#F5932F"/>
        </linearGradient>
    </defs>
    <path d="M20.25 17.25H19.5V9.75C19.4977 7.89146 18.8062 6.09981 17.5594 4.72153C16.3126 3.34326 14.599 2.47627 12.75 2.28825V1.5C12.75 1.30109 12.671 1.11032 12.5303 0.96967C12.3897 0.829018 12.1989 0.75 12 0.75C11.8011 0.75 11.6103 0.829018 11.4697 0.96967C11.329 1.11032 11.25 1.30109 11.25 1.5V2.28825C9.40099 2.47627 7.68739 3.34326 6.44058 4.72153C5.19378 6.09981 4.50234 7.89146 4.5 9.75V17.25H3.75C3.55109 17.25 3.36032 17.329 3.21967 17.4697C3.07902 17.6103 3 17.8011 3 18C3 18.1989 3.07902 18.3897 3.21967 18.5303C3.36032 18.671 3.55109 18.75 3.75 18.75H20.25C20.4489 18.75 20.6397 18.671 20.7803 18.5303C20.921 18.3897 21 18.1989 21 18C21 17.8011 20.921 17.6103 20.7803 17.4697C20.6397 17.329 20.4489 17.25 20.25 17.25Z" fill="url(#paint0_linear_27_1620)"/>
    <path d="M12.0001 23.25C12.8642 23.2489 13.7016 22.9499 14.371 22.4035C15.0404 21.857 15.501 21.0964 15.6751 20.25H8.32507C8.49915 21.0964 8.95971 21.857 9.62914 22.4035C10.2986 22.9499 11.1359 23.2489 12.0001 23.25V23.25Z" fill="url(#paint1_linear_27_1620)"/>
</svg>
