<svg width="24" height="24" viewBox="0 0 24 24" fill="none" xmlns="http://www.w3.org/2000/svg">
    <defs>
        <linearGradient id="paint0_linear_27_1566" x1="23" y1="-2" x2="0.749998" y2="12.0053" gradientUnits="userSpaceOnUse">
            <stop stop-color="#EA1E5B"/>
            <stop offset="1" stop-color="#F5932F"/>
        </linearGradient>
    </defs>
    <path d="M21.9075 8.87999C21.4699 8.81642 21.0522 8.65494 20.6856 8.40758C20.3191 8.16022 20.013 7.83335 19.7903 7.45131C19.5675 7.06927 19.4339 6.6419 19.3992 6.20103C19.3645 5.76017 19.4297 5.31715 19.59 4.90499C19.6919 4.63554 19.7069 4.34095 19.6329 4.06254C19.559 3.78412 19.3997 3.53584 19.1775 3.35249C18.1965 2.52874 17.0799 1.88162 15.8775 1.43999C15.6037 1.33828 15.3048 1.32557 15.0233 1.40368C14.7419 1.48178 14.4922 1.64672 14.31 1.87499C14.0357 2.22573 13.6852 2.50941 13.2849 2.7045C12.8847 2.8996 12.4453 3.00099 12 3.00099C11.5548 3.00099 11.1153 2.8996 10.7151 2.7045C10.3149 2.50941 9.96431 2.22573 9.69002 1.87499C9.50778 1.64672 9.25816 1.48178 8.9767 1.40368C8.69525 1.32557 8.39632 1.33828 8.12252 1.43999C7.01227 1.84772 5.97421 2.43005 5.04752 3.16499C4.81392 3.34991 4.64567 3.60477 4.56739 3.89223C4.48912 4.17969 4.50493 4.48466 4.61252 4.76249C4.78558 5.18556 4.85709 5.6433 4.8213 6.09899C4.7855 6.55468 4.64341 6.99565 4.40642 7.3865C4.16942 7.77736 3.84412 8.10724 3.45661 8.34967C3.0691 8.5921 2.63016 8.74034 2.17502 8.78249C1.87952 8.81409 1.60198 8.93972 1.38325 9.1409C1.16452 9.34207 1.01616 9.60816 0.960016 9.89999C0.820364 10.5913 0.750016 11.2947 0.750016 12C0.74899 12.5904 0.796651 13.1799 0.892516 13.7625C0.940227 14.0637 1.08583 14.3407 1.3068 14.5509C1.52778 14.761 1.81182 14.8925 2.11502 14.925C2.58016 14.9686 3.02808 15.1231 3.42129 15.3754C3.8145 15.6277 4.14156 15.9705 4.37509 16.3751C4.60862 16.7797 4.74182 17.2344 4.76356 17.7011C4.78529 18.1678 4.69492 18.6329 4.50002 19.0575C4.37246 19.3337 4.34082 19.6445 4.41012 19.9408C4.47942 20.237 4.64568 20.5016 4.88252 20.6925C5.8576 21.5013 6.96345 22.1379 8.15252 22.575C8.30457 22.6277 8.46411 22.6555 8.62502 22.6575C8.84564 22.657 9.06294 22.6036 9.25868 22.5019C9.45443 22.4001 9.62292 22.2528 9.75002 22.0725C10.0173 21.683 10.3757 21.3647 10.7939 21.1451C11.2121 20.9255 11.6776 20.8114 12.15 20.8125C12.6077 20.8131 13.0589 20.9205 13.4678 21.1262C13.8766 21.332 14.2318 21.6303 14.505 21.9975C14.6867 22.2418 14.9442 22.4191 15.2372 22.5019C15.5302 22.5846 15.8423 22.5681 16.125 22.455C17.2123 22.0174 18.2245 21.4126 19.125 20.6625C19.3512 20.4755 19.5123 20.2215 19.5851 19.9372C19.6578 19.6528 19.6386 19.3527 19.53 19.08C19.3536 18.6624 19.2767 18.2095 19.3053 17.757C19.334 17.3046 19.4674 16.865 19.6951 16.473C19.9227 16.0809 20.2384 15.7472 20.6171 15.4981C20.9959 15.2489 21.4274 15.0913 21.8775 15.0375C22.1694 14.9971 22.4409 14.8649 22.6526 14.6599C22.8643 14.455 23.0052 14.1879 23.055 13.8975C23.1755 13.2719 23.2407 12.637 23.25 12C23.2502 11.3281 23.1874 10.6577 23.0625 9.99749C23.0119 9.71347 22.873 9.45262 22.6657 9.25201C22.4583 9.0514 22.1931 8.92123 21.9075 8.87999ZM15.75 12C15.75 12.7417 15.5301 13.4667 15.118 14.0834C14.706 14.7001 14.1203 15.1807 13.4351 15.4645C12.7499 15.7484 11.9959 15.8226 11.2684 15.6779C10.541 15.5332 9.87281 15.1761 9.34837 14.6516C8.82392 14.1272 8.46677 13.459 8.32207 12.7316C8.17738 12.0042 8.25164 11.2502 8.53547 10.5649C8.8193 9.87971 9.29994 9.29404 9.91663 8.88198C10.5333 8.46992 11.2583 8.24999 12 8.24999C12.9946 8.24999 13.9484 8.64508 14.6517 9.34834C15.3549 10.0516 15.75 11.0054 15.75 12Z" fill="url(#paint0_linear_27_1566)"/>
</svg>
