<svg width="24" height="24" viewBox="0 0 24 24" fill="none" xmlns="http://www.w3.org/2000/svg">
    <path d="M10.5 13.4488C11.2681 14.2178 11.6906 15.2398 11.6906 16.3282C11.6906 17.4166 11.2675 18.4386 10.5 19.2076C9.7325 19.9773 8.7125 20.4 7.62625 20.4C6.75625 20.4 5.93188 20.1244 5.2425 19.6209L3.585 21.278C3.46312 21.3994 3.30375 21.4608 3.14375 21.4608C2.98313 21.4608 2.82312 21.3994 2.70125 21.2767C2.4575 21.0318 2.4575 20.6354 2.7025 20.3912L4.35625 18.738C3.84375 18.0435 3.5625 17.2087 3.5625 16.3282C3.5625 15.2404 3.98563 14.2178 4.75312 13.4488C5.52062 12.6798 6.54 12.2564 7.62625 12.2564C8.7125 12.2564 9.7325 12.6804 10.5 13.4488ZM3.875 10.9764H9.08375C10.1175 10.9764 10.9587 10.1335 10.9587 9.09772V3.8787C10.9587 2.84291 10.1175 2 9.08375 2H3.875C2.84125 2 2 2.84291 2 3.8787V9.09772C2 10.1335 2.84125 10.9764 3.875 10.9764ZM20.125 2H14.9163C13.8825 2 13.0413 2.84291 13.0413 3.8787V9.09772C13.0413 10.1335 13.8825 10.9764 14.9163 10.9764H20.125C21.1587 10.9764 22 10.1335 22 9.09772V3.8787C22 2.84291 21.1587 2 20.125 2ZM20.125 13.0236H14.9163C13.8825 13.0236 13.0413 13.8665 13.0413 14.9023V20.1213C13.0413 21.1571 13.8825 22 14.9163 22H20.125C21.1587 22 22 21.1571 22 20.1213V14.9023C22 13.8665 21.1587 13.0236 20.125 13.0236Z" fill="#838383"/>
</svg>
