<?xml version="1.0" encoding="iso-8859-1"?>
<!-- Generator: Adobe Illustrator 18.0.0, SVG Export Plug-In . SVG Version: 6.00 Build 0)  -->
<!DOCTYPE svg PUBLIC "-//W3C//DTD SVG 1.1//EN" "http://www.w3.org/Graphics/SVG/1.1/DTD/svg11.dtd">
<svg version="1.1" id="Capa_1" xmlns="http://www.w3.org/2000/svg" xmlns:xlink="http://www.w3.org/1999/xlink" x="0px" y="0px"
	 viewBox="0 0 466.972 466.972" style="enable-background:new 0 0 466.972 466.972;" xml:space="preserve">
<g>
	<path d="M233.482,311.854c6.747,0,13.133-2.563,17.982-7.219c2.191-2.104,2.262-5.586,0.159-7.776
		c-2.104-2.191-5.585-2.262-7.777-0.159c-2.791,2.679-6.471,4.154-10.364,4.154c-3.888,0-7.565-1.476-10.355-4.154
		c-2.191-2.103-5.672-2.032-7.777,0.159c-2.104,2.19-2.032,5.673,0.159,7.776C220.357,309.291,226.74,311.854,233.482,311.854z"/>
	<g>
		<circle cx="171.225" cy="237.831" r="10.831"/>
		<circle cx="295.746" cy="237.831" r="10.831"/>
	</g>
	<path d="M398.585,68.387C354.485,24.287,295.852,0,233.486,0s-121,24.287-165.099,68.387S0,171.119,0,233.485
		s24.287,121,68.386,165.1s102.733,68.387,165.099,68.387s121-24.287,165.1-68.387c44.1-44.1,68.386-102.733,68.386-165.1
		S442.685,112.486,398.585,68.387z M103.456,239.067c1.975,7.661,4.609,15.129,7.92,22.326c-4.763-2.694-8.259-7.508-9.036-13.267
		C101.916,244.996,102.333,241.889,103.456,239.067z M212.15,107.354c-31.979,3.524-36.832,26.2-37.487,45.562
		c-0.428,12.673-0.293,31.911-0.186,41.637c-19.46-2.108-55.282-10.009-57.414-29.65c-0.454-12.25,3.314-22.366,9.534-34.696
		c13.998-27.736,34.831-45.994,61.92-54.266c20.823-6.357,39.225-4.578,44.03-3.45c17.935,4.2,29,10.233,33.272,12.882
		c0.999,21.364-0.08,44.956-3.321,58.522c-1.413-3.876-3.277-8.174-5.745-12.44C246.429,113.61,231.003,105.278,212.15,107.354z
		 M249.675,141.44c-2.61-1.728-5.52-3.402-8.722-4.877c-12.322-5.679-30.984-9.27-53.503,2.269
		c3.269-13.025,11.139-18.917,25.906-20.544C233.133,116.119,243.965,129.346,249.675,141.44z M124.614,191.246
		c-5.56,18.898-5.268,44.831-3.927,64.046c-6.91-15.577-10.495-32.471-10.495-49.875c0-7.704,0.969-15.438,2.955-23.525
		C116.26,185.521,120.206,188.614,124.614,191.246z M134.237,279.143c-0.83-5.783-7.334-53.696,0.409-82.93
		c20.015,8.253,43.434,9.729,45.097,9.823c1.522,0.085,3.02-0.466,4.123-1.523c1.103-1.059,1.715-2.529,1.69-4.058
		c-0.005-0.298-0.479-29.971,0.102-47.168c0.008-0.251,0.022-0.491,0.032-0.738c42.209-27.276,69.664,8.133,70.828,9.675
		c0.003,0.004,0.011,0.006,0.014,0.01c0.484,0.645,1.106,1.188,1.84,1.573c1.546,0.811,3.387,0.837,4.958,0.076
		c0.119-0.058,12.03-5.77,26.653-6.261c18.92-0.622,33.075,7.675,42.119,24.698c13.071,24.605,1.992,89.966,0.887,96.24
		c-17.751,47.828-56.759,78.71-99.491,78.71C190.995,357.27,152.088,326.619,134.237,279.143z M276.895,87.533
		c22.912-0.602,48.162,6.998,55.64,30.399c4.649,14.563,9.411,27.604,14.556,39.86c6.332,15.11,9.542,31.133,9.542,47.624
		c0,15.991-3.029,31.56-8.883,46.071c2.375-24.107,3.334-56.883-5.934-74.328c-13.274-24.986-34.014-30.57-49.893-30.57
		c-0.782,0-1.552,0.013-2.309,0.038c-6.364,0.214-12.253,1.268-17.159,2.514c1.993-6.891,3.616-17.019,4.311-32.16
		C277.313,105.107,277.107,93.928,276.895,87.533z M363.691,237.808c1.545,3.152,2.187,6.74,1.703,10.323
		c-0.852,6.327-4.861,11.421-10.262,13.914C358.767,254.252,361.629,246.145,363.691,237.808z M237.489,380.396l25.05,22.808
		c1.272,1.157,3.009,1.651,4.704,1.341c1.691-0.313,3.139-1.399,3.912-2.937l27.85-55.366c29,13.864,53.028,36.7,68.363,64.971
		c-37.33,28.243-82.385,43.878-129.879,44.71V380.396z M240.233,368.018c14.544-0.984,28.579-5.13,41.538-11.995l-17.186,34.167
		L240.233,368.018z M225.426,367.928l-24.113,22.216l-17.276-34.775C196.934,362.409,210.922,366.748,225.426,367.928z
		 M194.723,401.603c0.77,1.55,2.225,2.647,3.927,2.961c0.333,0.062,0.667,0.092,0.999,0.092c1.369,0,2.703-0.512,3.727-1.455
		l23.113-21.295v73.946c-46.402-1.424-90.358-16.996-126.907-44.656c15.225-28.125,39.025-50.859,67.749-64.731L194.723,401.603z
		 M390.807,390.807c-4.728,4.729-9.641,9.204-14.706,13.449c-15.879-28.453-40.03-51.626-69.069-66.323
		c15.35-14.306,27.908-33.129,36.18-55.313c1.824-2.59,3.557-5.228,5.183-7.918c14.06-0.366,25.975-10.8,27.9-25.101
		c1.32-9.77-2.526-19.577-9.915-25.915c0.815-6.014,1.253-12.11,1.253-18.268c0-17.958-3.498-35.412-10.398-51.879
		c-5.02-11.958-9.671-24.699-14.222-38.952c-6.469-20.245-28.325-40.641-70.317-37.883c-4.41-2.879-16.844-10.053-37.64-14.924
		c-5.953-1.395-26.498-3.458-49.75,3.641c-29.647,9.053-53.344,29.742-68.529,59.831c-6.833,13.546-11.269,25.566-10.702,40.179
		c0.003,0.241,0,2.008-0.766,4.194c-0.711,2.032-1.221,3.614-1.651,5.131c-3.006,10.596-4.468,20.626-4.468,30.662
		c0,6.403,0.469,12.738,1.349,18.98c-6.928,6.365-10.384,15.727-9.102,25.202c1.862,13.799,13.38,24.227,26.971,25.058
		c1.746,2.89,3.612,5.721,5.586,8.495c8.262,21.91,20.726,40.519,35.926,54.704c-29.041,14.68-53.195,37.877-69.073,66.379
		c-5.056-4.239-9.962-8.708-14.683-13.43C34.143,348.784,11,292.913,11,233.485s23.143-115.299,65.165-157.32
		C118.187,34.143,174.058,11,233.486,11c59.428,0,115.299,23.143,157.321,65.165c42.022,42.021,65.165,97.893,65.165,157.32
		S432.829,348.785,390.807,390.807z"/>
</g>
<g>
</g>
<g>
</g>
<g>
</g>
<g>
</g>
<g>
</g>
<g>
</g>
<g>
</g>
<g>
</g>
<g>
</g>
<g>
</g>
<g>
</g>
<g>
</g>
<g>
</g>
<g>
</g>
<g>
</g>
</svg>
