<?xml version="1.0" encoding="iso-8859-1"?>
<!-- Generator: Adobe Illustrator 18.0.0, SVG Export Plug-In . SVG Version: 6.00 Build 0)  -->
<!DOCTYPE svg PUBLIC "-//W3C//DTD SVG 1.1//EN" "http://www.w3.org/Graphics/SVG/1.1/DTD/svg11.dtd">
<svg version="1.1" id="Capa_1" xmlns="http://www.w3.org/2000/svg" xmlns:xlink="http://www.w3.org/1999/xlink" x="0px" y="0px"
	 viewBox="0 0 466.971 466.971" style="enable-background:new 0 0 466.971 466.971;" xml:space="preserve">
<g>
	<path d="M398.585,68.386C354.485,24.287,295.852,0,233.485,0s-121,24.287-165.1,68.386C24.287,112.486,0,171.119,0,233.485
		s24.287,121,68.386,165.099c44.1,44.1,102.733,68.386,165.1,68.386s121-24.287,165.1-68.386
		c44.099-44.1,68.386-102.733,68.386-165.099S442.684,112.486,398.585,68.386z M124.19,228.093c0-7.154,0.482-14.095,1.393-20.688
		c8.982-10.572,22.345-16.805,36.375-16.805h23.797c18.955,0,36.813-9.422,47.729-24.622c10.916,15.2,28.772,24.622,47.729,24.622
		h23.797c14.027,0,27.387,6.229,36.374,16.804c0.912,6.591,1.395,13.532,1.395,20.688c0,74.096-49.031,134.377-109.299,134.377
		C173.218,362.471,124.19,302.189,124.19,228.093z M238.985,373.312c21.567-1.18,41.672-9.253,58.84-22.438
		c28.168,13.181,51.906,34.96,67.495,61.88c-36.529,26.983-80.257,42.039-126.335,43.15V373.312z M306.974,343.104
		c28.451-26.612,46.806-68.267,46.806-115.01c0-1.423-0.04-2.828-0.074-4.236l1.042,1.408c1.808,2.442,5.252,2.955,7.692,1.15
		c2.441-1.807,2.956-5.251,1.149-7.693l-11.33-15.312c-10.985-14.909-28.648-23.81-47.248-23.81h-23.797
		c-17.898,0-34.593-10.346-42.634-26.387c-0.819-2.004-2.792-3.41-5.095-3.41c-2.223,0-4.138,1.328-5.005,3.23
		c-8.008,16.143-24.761,26.566-42.725,26.566h-23.797c-18.6,0-36.263,8.901-47.241,23.801l-11.336,15.32
		c-1.808,2.442-1.292,5.886,1.149,7.693c0.984,0.728,2.131,1.079,3.268,1.079c1.684,0,3.347-0.771,4.425-2.229l1.041-1.407
		c-0.034,1.408-0.074,2.813-0.074,4.235c0,46.714,18.329,88.345,46.748,114.959c-10.207,5.164-19.828,11.397-28.705,18.55
		c-27.192-12.206-45.248-39.583-45.248-69.127v-80.488c0-81.979,66.131-148.708,147.416-148.75c0.026,0,0.052,0,0.078,0
		c39.334,0,76.349,15.33,104.232,43.17c27.905,27.862,43.273,64.872,43.273,104.21v81.858c0,30.355-17.604,57.216-45.121,69.321
		C326.936,354.587,317.25,348.306,306.974,343.104z M169.078,350.827c17.182,13.216,37.312,21.306,58.907,22.486v82.591
		c-46.086-1.111-89.82-16.172-126.353-43.163C117.203,385.783,140.924,363.991,169.078,350.827z M390.807,390.806
		c-5.355,5.355-10.938,10.4-16.722,15.133c-7.955-13.445-17.818-25.664-29.175-36.282c12.613-6.472,23.442-15.929,31.628-27.723
		c10.105-14.558,15.447-31.66,15.447-49.458v-81.858c0-42.28-16.515-82.054-46.502-111.995
		c-29.962-29.916-69.732-46.386-112.004-46.386c-0.026,0-0.058,0-0.084,0c-87.348,0.045-158.41,71.708-158.41,159.75v80.488
		c0,17.665,5.391,34.702,15.589,49.268c8.214,11.731,19.039,21.181,31.617,27.701c-11.422,10.662-21.337,22.949-29.323,36.481
		c-5.778-4.729-11.354-9.769-16.704-15.119C34.143,348.785,11,292.914,11,233.485S34.143,118.186,76.164,76.165
		C118.187,34.143,174.058,11,233.485,11s115.299,23.143,157.321,65.165c42.021,42.021,65.164,97.893,65.164,157.321
		S432.828,348.785,390.807,390.806z"/>
	<path d="M260.478,308.084c-2.104-2.191-5.585-2.263-7.776-0.159c-5.179,4.971-12.006,7.709-19.223,7.709
		c-7.208,0-14.03-2.738-19.209-7.709c-2.192-2.104-5.673-2.033-7.776,0.159c-2.104,2.191-2.032,5.673,0.159,7.776
		c7.237,6.947,16.765,10.773,26.826,10.773c10.07,0,19.603-3.826,26.84-10.773C262.51,313.757,262.581,310.275,260.478,308.084z"/>
	<path d="M192.836,238.363c-5.346-5.737-13.628-7.831-21.123-5.198c-2.926,1.029-6.223,0.438-8.608-1.542
		c-2.337-1.94-5.807-1.616-7.744,0.721c-1.939,2.338-1.617,5.805,0.721,7.745c5.278,4.38,12.55,5.718,19.043,3.528
		c-0.602,2.26-0.49,4.727,0.503,7.043c2.355,5.499,8.722,8.047,14.221,5.692c5.499-2.355,8.047-8.722,5.692-14.22
		C194.903,240.644,193.965,239.38,192.836,238.363z"/>
	<path d="M277.122,256.353c5.499,2.355,11.865-0.193,14.22-5.692c0.992-2.316,1.105-4.784,0.503-7.043
		c6.494,2.19,13.765,0.851,19.044-3.528c2.338-1.939,2.661-5.407,0.722-7.745c-1.94-2.338-5.406-2.662-7.745-0.721
		c-2.386,1.979-5.685,2.57-8.608,1.542c-7.492-2.632-15.773-0.54-21.118,5.194c-1.131,1.018-2.071,2.283-2.709,3.773
		C269.074,247.631,271.623,253.998,277.122,256.353z"/>
</g>
<g>
</g>
<g>
</g>
<g>
</g>
<g>
</g>
<g>
</g>
<g>
</g>
<g>
</g>
<g>
</g>
<g>
</g>
<g>
</g>
<g>
</g>
<g>
</g>
<g>
</g>
<g>
</g>
<g>
</g>
</svg>
