<svg width="24" height="24" viewBox="0 0 24 24" fill="none" xmlns="http://www.w3.org/2000/svg">
    <defs>
        <linearGradient id="paint0_linear_1410_9566" x1="22.9486" y1="11.7002" x2="2" y2="11.7002"
                        gradientUnits="userSpaceOnUse">
            <stop stop-color="#EA1E5B"/>
            <stop offset="1" stop-color="#F5932F"/>
        </linearGradient>
    </defs>
    <path fill-rule="evenodd" clip-rule="evenodd"
          d="M2.83192 10.9497H12.4602H12.4622C15.6866 10.9497 18.9109 10.9497 22.1353 10.9544C22.6214 10.9544 22.9439 10.6609 22.9486 10.2183C22.9486 9.7757 22.612 9.4589 22.1259 9.4589C21.6586 9.45424 21.1912 9.45424 20.7238 9.4589C20.6163 9.4589 20.5602 9.44026 20.5368 9.31447C20.3545 8.38973 20.1676 7.46499 19.9806 6.54024C19.7937 5.6154 19.6067 4.69056 19.4244 3.76572C19.2094 2.69418 18.3868 2 17.2884 2H7.63673C6.63651 2 5.7952 2.66156 5.58955 3.63527C5.19226 5.50349 4.809 7.37171 4.43041 9.24459C4.39302 9.43095 4.32291 9.46356 4.15932 9.4589C3.68258 9.44958 3.21051 9.44958 2.73377 9.4589C2.22431 9.47288 1.88311 9.96206 2.03735 10.4373C2.14485 10.7727 2.41594 10.9497 2.83192 10.9497ZM18.7001 21.3391C20.9108 21.0502 22.5841 19.1401 22.5748 16.8945C22.5688 16.8186 22.5642 16.7402 22.5596 16.6603C22.5497 16.4901 22.5394 16.3126 22.514 16.1351C22.2008 14.183 20.4201 12.5617 18.443 12.4453C16.1481 12.3101 14.2178 13.7358 13.7036 15.9674C13.6569 16.1631 13.5821 16.1724 13.4279 16.1724C13.3377 16.1717 13.2476 16.1709 13.1575 16.1702C12.6166 16.1656 12.0758 16.1611 11.5349 16.177C11.3293 16.1817 11.2825 16.1025 11.2451 15.9301C10.7544 13.624 8.40337 12.0632 6.08043 12.5012C3.58454 12.9671 1.99073 15.2965 2.4628 17.789C2.90682 20.1464 5.31857 21.8003 7.66489 21.3158C9.57186 20.9198 10.7777 19.7597 11.2498 17.8682C11.2919 17.7005 11.3573 17.6539 11.5256 17.6586C12.1472 17.6679 12.7735 17.6679 13.3951 17.6586C13.5868 17.6539 13.6709 17.6912 13.7176 17.9008C14.2551 20.193 16.3678 21.6466 18.7001 21.3391Z"
          fill="url(#paint0_linear_1410_9566)"/>
</svg>
