<svg height="512" viewBox="0 0 32 32" width="512" xmlns="http://www.w3.org/2000/svg">
    <g id="Layer_2">
        <path d="m8.52 29a6 6 0 1 1 6-6 6 6 0 0 1 -6 6zm0-10a4 4 0 1 0 4 4 4 4 0 0 0 -4-4z"/>
        <path d="m23.52 29a6 6 0 1 1 6-6 6 6 0 0 1 -6 6zm0-10a4 4 0 1 0 4 4 4 4 0 0 0 -4-4z"/>
        <path d="m13.52 22.01h5v2h-5z"/>
        <rect height="2" rx="1" width="28" x="2.02" y="13.01"/>
        <path d="m27.24 15h-22.44l2-9.75a2.8 2.8 0 0 1 2.69-2.25h13.05a2.8 2.8 0 0 1 2.74 2.25zm-20-2h17.56l-1.48-7.36a.8.8 0 0 0 -.78-.64h-13.05a.8.8 0 0 0 -.78.64z"/>
    </g>
</svg>