<svg width="37" height="36" viewBox="0 0 37 36" fill="none" xmlns="http://www.w3.org/2000/svg">
    <defs>
        <linearGradient id="paint0_linear_416_6324" x1="33.6559" y1="18.1562" x2="3.65625" y2="18.1562" gradientUnits="userSpaceOnUse">
            <stop stop-color="#EA1E5B"/>
            <stop offset="1" stop-color="#F5932F"/>
        </linearGradient>
    </defs>
    <path d="M21.656 3.15625C16.6961 3.15625 12.6561 7.19623 12.6561 12.1561C12.6561 17.116 16.6961 21.156 21.656 21.156C26.6159 21.156 30.6559 17.116 30.6559 12.1561C30.6559 7.19623 26.6159 3.15625 21.656 3.15625ZM20.156 11.1561H23.156C24.5358 11.1561 25.656 12.2762 25.656 13.6561V14.6561C25.656 16.036 24.5358 17.1561 23.156 17.1561H22.656C22.656 17.7059 22.2058 18.156 21.656 18.156C21.1062 18.156 20.656 17.7059 20.656 17.1561H20.156C18.7762 17.1561 17.6561 16.036 17.6561 14.6561C17.6561 14.1063 18.1062 13.6561 18.656 13.6561C19.2058 13.6561 19.656 14.1063 19.656 14.6561C19.656 14.9256 19.886 15.1561 20.156 15.1561H23.156C23.426 15.1561 23.656 14.9256 23.656 14.6561V13.6561C23.656 13.3866 23.426 13.1561 23.156 13.1561H20.156C18.7762 13.1561 17.6561 12.036 17.6561 10.6561V9.65616C17.6561 8.2763 18.7762 7.1562 20.156 7.1562H20.656C20.656 6.6064 21.1062 6.15621 21.656 6.15621C22.2058 6.15621 22.656 6.6064 22.656 7.1562H23.156C24.5358 7.1562 25.656 8.2763 25.656 9.65616C25.656 10.206 25.2058 10.6561 24.656 10.6561C24.1062 10.6561 23.656 10.206 23.656 9.65616C23.656 9.38663 23.426 9.15617 23.156 9.15617H20.156C19.886 9.15617 19.656 9.38663 19.656 9.65616V10.6561C19.656 10.9257 19.886 11.1561 20.156 11.1561ZM3.65625 31.1559V24.156V24.1579H10.6591C11.5087 22.8874 13.119 21.9978 14.5887 22.2068L22.5193 23.3279C23.6091 23.4773 24.3689 24.488 24.2185 25.5778C24.1286 26.1872 23.779 26.6969 23.2888 26.9977C22.9089 27.238 22.4392 27.3571 21.9587 27.2868L16.0848 26.4567L15.8387 27.4372C15.7088 27.9684 16.0487 28.4684 16.5887 28.5485L21.6687 29.2672C21.8591 29.2985 22.0486 29.3082 22.2292 29.3082C22.9792 29.3082 23.7185 29.0973 24.3288 28.7077C24.9489 28.3278 25.4489 27.778 25.7888 27.1383L31.1393 25.2878C32.2086 24.9977 33.2984 25.6286 33.5787 26.6979C33.8687 27.7575 33.3287 28.7077 32.1686 29.1481L20.6091 33.0074C20.0886 33.1773 19.2293 33.2076 18.699 33.068L9.6591 31.1578H3.65625V31.1559Z" fill="url(#paint0_linear_416_6324)"/>
</svg>
