<svg width="32" height="32" viewBox="0 0 32 32" fill="none" xmlns="http://www.w3.org/2000/svg">
    <path d="M16 21.3335C18.2091 21.3335 20 19.5426 20 17.3335C20 15.1244 18.2091 13.3335 16 13.3335C13.7909 13.3335 12 15.1244 12 17.3335C12 19.5426 13.7909 21.3335 16 21.3335Z" fill="#8F9294"/>
    <path d="M23.3212 6.66667C22.76 6.66667 22.2246 6.43085 21.8457 6.01678L20.595 4.64989C20.2161 4.23582 19.6807 4 19.1194 4H12.8812C12.32 4 11.7845 4.23582 11.4057 4.64989L10.155 6.01678C9.7761 6.43085 9.24068 6.66667 8.67944 6.66667H4.66699C3.56242 6.66667 2.66699 7.5621 2.66699 8.66667V26C2.66699 27.1046 3.56242 28 4.66699 28H27.3337C28.4382 28 29.3337 27.1046 29.3337 26V8.66667C29.3337 7.5621 28.4382 6.66667 27.3337 6.66667H23.3212ZM16.0003 24C12.3203 24 9.33366 21.0133 9.33366 17.3333C9.33366 13.6533 12.3203 10.6667 16.0003 10.6667C19.6803 10.6667 22.667 13.6533 22.667 17.3333C22.667 21.0133 19.6803 24 16.0003 24Z" fill="#8F9294"/>
</svg>
