<svg width="24" height="24" viewBox="0 0 24 24" fill="none" xmlns="http://www.w3.org/2000/svg">
    <path d="M0 12C0 5.37258 5.37258 0 12 0C18.6274 0 24 5.37258 24 12C24 18.6274 18.6274 24 12 24C5.37258 24 0 18.6274 0 12Z" fill="#F2994A"/>
    <path d="M12.0002 13.8011C12.9943 13.8011 13.8002 12.9953 13.8002 12.0012C13.8002 11.0071 12.9943 10.2012 12.0002 10.2012C11.0061 10.2012 10.2002 11.0071 10.2002 12.0012C10.2002 12.9953 11.0061 13.8011 12.0002 13.8011Z" fill="white"/>
    <path d="M15.2282 7.19999C15.0178 7.19999 14.817 7.11155 14.6749 6.95628L14.0229 6.2437C13.8808 6.08843 13.68 6 13.4696 6H10.5303C10.3198 6 10.119 6.08843 9.97696 6.24371L9.32495 6.95628C9.18288 7.11155 8.9821 7.19999 8.77164 7.19999H6.74999C6.33578 7.19999 6 7.53577 6 7.94998V16.0499C6 16.4641 6.33578 16.7999 6.74999 16.7999H17.2499C17.6641 16.7999 17.9999 16.4641 17.9999 16.0499V7.94998C17.9999 7.53577 17.6641 7.19999 17.2499 7.19999H15.2282ZM11.9999 14.9999C10.344 14.9999 8.99997 13.6559 8.99997 11.9999C8.99997 10.344 10.344 8.99997 11.9999 8.99997C13.6559 8.99997 14.9999 10.344 14.9999 11.9999C14.9999 13.6559 13.6559 14.9999 11.9999 14.9999Z" fill="white"/>
</svg>
