<svg width="32" height="21" viewBox="0 0 32 21" fill="none" xmlns="http://www.w3.org/2000/svg">
    <defs>
        <linearGradient id="paint0_linear_1_1646" x1="2.29167" y1="10.36" x2="31.2836" y2="10.36"
            gradientUnits="userSpaceOnUse">
            <stop stop-color="#F6871F" />
            <stop offset="0.1324" stop-color="#F17A2D" />
            <stop offset="0.5293" stop-color="#E65247" />
            <stop offset="0.831" stop-color="#E12F50" />
            <stop offset="1" stop-color="#DF1C52" />
        </linearGradient>
        <linearGradient id="paint1_linear_1_1646" x1="2.87488" y1="18.9042" x2="7.03308"
            y2="18.9042" gradientUnits="userSpaceOnUse">
            <stop stop-color="#F6871F" />
            <stop offset="0.1324" stop-color="#F17A2D" />
            <stop offset="0.5293" stop-color="#E65247" />
            <stop offset="0.831" stop-color="#E12F50" />
            <stop offset="1" stop-color="#DF1C52" />
        </linearGradient>
        <linearGradient id="paint2_linear_1_1646" x1="0.00642861" y1="6.43871" x2="3.87825"
            y2="6.43871" gradientUnits="userSpaceOnUse">
            <stop stop-color="#F6871F" />
            <stop offset="0.1324" stop-color="#F17A2D" />
            <stop offset="0.5293" stop-color="#E65247" />
            <stop offset="0.831" stop-color="#E12F50" />
            <stop offset="1" stop-color="#DF1C52" />
        </linearGradient>
    </defs>
    <g id="Group">
        <path id="Vector"
            d="M15.781 11.4322C15.781 12.135 15.781 12.8308 15.781 13.5614C16.1359 13.5614 16.4699 13.5614 16.7969 13.5614C17.945 13.5614 19.1 13.5614 20.2481 13.5614C20.8326 13.5614 21.3336 13.7492 21.7441 14.1737C22.0085 14.452 22.2868 14.7164 22.5582 14.9878C23.1496 15.5583 24.0263 15.5583 24.6039 14.9878C24.6386 14.953 24.6874 14.9182 24.7152 14.8765C25.5084 13.8397 26.5243 13.3387 27.8602 13.5266C27.9785 13.5405 28.1733 13.3735 28.2568 13.2483C28.6326 12.6499 29.3005 12.3368 29.9894 12.4759C30.6295 12.6012 31.1653 13.1508 31.2627 13.784C31.374 14.4868 31.047 15.1478 30.4278 15.4888C29.6693 15.9062 28.7022 15.6418 28.2638 14.8625C28.1386 14.6399 27.9924 14.612 27.7698 14.5703C26.74 14.3824 26.0581 14.9043 25.4597 15.6279C24.9587 16.2333 24.3186 16.449 23.5323 16.449C22.753 16.449 22.1755 16.1359 21.6467 15.6001C20.4986 14.4311 20.937 14.6538 19.3157 14.6329C18.2859 14.619 17.2492 14.6329 16.2194 14.6329C16.0802 14.6329 15.9341 14.6329 15.7671 14.6329C15.7671 15.3357 15.7671 15.9897 15.7671 16.6925C15.948 16.6995 16.115 16.7203 16.282 16.7203C17.1796 16.7203 18.0842 16.7273 18.9818 16.7203C19.6289 16.7134 20.1646 16.9569 20.6169 17.4022C22.0363 18.7938 21.4588 18.5712 23.581 18.5921C24.4021 18.599 25.2231 18.5851 26.0442 18.599C26.2807 18.606 26.4199 18.5364 26.5452 18.3207C26.9348 17.6666 27.6863 17.3883 28.396 17.611C29.1196 17.8336 29.558 18.4668 29.5302 19.2322C29.5023 19.9628 29.0083 20.5612 28.2847 20.7351C27.5749 20.9091 26.8443 20.5751 26.4895 19.8932C26.3851 19.6845 26.2529 19.6497 26.0511 19.6566C24.8474 19.6636 23.6436 19.6566 22.4399 19.6636C21.7302 19.6706 21.1318 19.434 20.6238 18.926C19.2809 17.5901 19.7123 17.778 17.7989 17.771C14.8904 17.764 11.9819 17.771 9.06652 17.771C8.92736 17.771 8.78124 17.771 8.53075 17.771C9.07348 17.1309 9.53271 16.5394 10.0546 16.0106C10.2424 15.8227 10.6042 15.7462 10.8895 15.7392C12.135 15.7114 13.3736 15.7253 14.619 15.7253C15.2661 15.7253 15.2661 15.7253 15.1896 15.0156C15.0574 15.0086 14.9252 14.9947 14.786 14.9947C13.4918 14.9947 12.1907 15.0017 10.8965 14.9878C10.2355 14.9808 9.71361 15.2313 9.29613 15.7184C8.78123 16.3237 8.29418 16.9499 7.77232 17.5483C7.66795 17.6666 7.47312 17.764 7.31309 17.764C6.60337 17.764 5.87276 17.8128 5.17696 17.6875C3.47919 17.3953 2.31721 15.9828 2.28242 14.2572C2.26154 13.1995 2.2685 12.1419 2.28242 11.0843C2.30329 9.66486 2.94342 8.58636 4.11238 7.8001C4.27241 7.69573 4.41853 7.54961 4.51595 7.38957C5.28133 6.10929 6.01193 4.80119 6.79123 3.52786C7.7584 1.94838 9.12914 1.07167 11.0426 1.09254C13.3805 1.12037 15.7254 1.09253 18.0633 1.10645C18.3346 1.10645 18.5086 1.05078 18.6617 0.77942C19.0165 0.13232 19.7611 -0.132085 20.4708 0.0627407C21.1875 0.257566 21.6467 0.869883 21.6467 1.6144C21.6467 2.33108 21.1805 2.9712 20.5125 3.16603C19.775 3.38173 19.0444 3.11733 18.6617 2.45631C18.5156 2.19191 18.3486 2.12928 18.0633 2.12928C15.7254 2.1432 13.3805 2.15712 11.0426 2.12928C9.651 2.11537 8.61424 2.72768 7.88364 3.84793C7.20871 4.88468 6.61728 5.98405 5.99105 7.06254C5.97018 7.09038 5.97018 7.13213 5.95627 7.21562C6.10935 7.22258 6.2485 7.2365 6.38766 7.2365C9.69274 7.2365 13.0048 7.22954 16.3099 7.24346C16.79 7.24346 17.1796 7.09735 17.5136 6.74944C17.9589 6.28325 18.439 5.8449 18.8982 5.37871C19.4131 4.86381 20.0185 4.61331 20.7491 4.62722C21.7163 4.6481 22.6834 4.62723 23.6436 4.63419C23.8663 4.63419 23.9915 4.57851 24.1029 4.36282C24.4577 3.68788 25.2231 3.3539 25.912 3.54177C26.6495 3.74355 27.1227 4.34195 27.1366 5.10733C27.1505 5.83793 26.6843 6.47111 25.9746 6.6729C25.2579 6.88164 24.5204 6.60332 24.1377 5.93534C24.0194 5.7266 23.8872 5.67093 23.6715 5.67093C22.6904 5.67789 21.7163 5.67789 20.7352 5.67093C20.3038 5.67093 19.942 5.80313 19.6358 6.1232C19.2183 6.56156 18.7521 6.95817 18.3416 7.41045C17.7641 8.04363 17.0683 8.34283 16.2194 8.25933C15.8367 8.21758 15.7045 8.34979 15.7323 8.73944C15.7671 9.18475 15.7463 9.63703 15.7393 10.0893C15.7323 10.305 15.8089 10.3955 16.0315 10.3955C17.9659 10.3885 19.8933 10.3955 21.8276 10.3816C21.9459 10.3816 22.099 10.2215 22.1755 10.0963C22.5651 9.44221 23.2679 9.1291 24.0055 9.31C24.7013 9.477 25.2092 10.1171 25.2231 10.8408C25.237 11.5644 24.7778 12.2045 24.0681 12.4272C23.3723 12.6499 22.6278 12.3507 22.2033 11.7175C22.1198 11.5922 21.9598 11.4461 21.8345 11.4461C19.8515 11.4322 17.8685 11.4392 15.8854 11.4392C15.8785 11.3905 15.8506 11.4044 15.781 11.4322ZM6.78427 13.283C6.98605 13.2413 7.34788 13.1856 7.69578 13.0813C8.00194 12.9908 8.09239 12.7473 7.9741 12.4481C7.91148 12.302 7.84885 12.1559 7.75144 12.0306C6.96518 11.0426 5.97714 10.3259 4.78731 9.92926C4.51595 9.83881 4.13325 9.83881 3.88276 9.95013C2.9643 10.3676 2.83906 11.5714 3.63923 12.2185C4.50203 12.9073 5.5179 13.2065 6.78427 13.283ZM15.1966 10.6251C15.3009 9.91534 15.294 9.90839 14.6469 9.90839C12.9282 9.90839 11.2166 9.90144 9.49792 9.91535C8.84386 9.92231 8.25243 9.76923 7.69578 9.41437C7.18089 9.08734 6.65207 8.79511 6.13022 8.48199C5.90756 8.34979 5.69882 8.315 5.5527 8.57245C5.40658 8.8299 5.5527 8.98994 5.7684 9.11518C6.31808 9.43525 6.86081 9.75532 7.39658 10.0893C7.99497 10.465 8.64208 10.6529 9.34484 10.6529C11.1957 10.6529 13.0396 10.6529 14.8904 10.6529C14.9948 10.6459 15.0852 10.632 15.1966 10.6251ZM24.1794 10.8408C24.1864 10.5207 23.9359 10.2633 23.6158 10.2633C23.2957 10.2633 23.0383 10.5207 23.0383 10.8338C23.0452 11.1261 23.3027 11.3835 23.5949 11.3974C23.915 11.4113 24.1725 11.1608 24.1794 10.8408ZM28.5073 19.1348C28.5073 18.8356 28.2499 18.5712 27.9576 18.5642C27.6306 18.5573 27.3732 18.8077 27.3732 19.1348C27.3732 19.4409 27.6237 19.6984 27.9159 19.7053C28.222 19.7193 28.5073 19.4409 28.5073 19.1348ZM29.6832 13.4779C29.3632 13.4709 29.0988 13.7353 29.0988 14.0554C29.0988 14.3616 29.3423 14.612 29.6484 14.619C29.9546 14.6329 30.2399 14.3546 30.2399 14.0484C30.2399 13.7632 29.9685 13.4848 29.6832 13.4779ZM20.0602 1.00208C19.7819 0.995125 19.4966 1.26649 19.4897 1.55178C19.4758 1.87185 19.6984 2.11538 20.0115 2.13625C20.3386 2.15712 20.6169 1.92054 20.6308 1.60047C20.6447 1.30127 20.3734 1.016 20.0602 1.00208ZM26.1138 5.07949C26.1207 4.7803 25.8285 4.49503 25.5293 4.50198C25.2301 4.50894 24.9865 4.7664 24.9865 5.07255C24.9865 5.39262 25.2092 5.62918 25.5223 5.6431C25.8285 5.65005 26.1068 5.39261 26.1138 5.07949Z"
            fill="url(#paint0_linear_1_1646)" />
        <path id="Vector_2"
            d="M2.99205 17.3605C4.13317 18.4042 5.50391 18.5851 7.00685 18.4529C7.05556 19.0722 7.07643 19.6497 6.71461 20.1437C6.60329 20.2968 6.35279 20.429 6.15797 20.436C5.36475 20.4638 4.57153 20.4429 3.77831 20.4499C3.333 20.4499 3.09642 20.1507 3.04772 19.7958C2.94334 19.0096 2.92247 18.2094 2.87376 17.4162C2.91551 17.3953 2.9503 17.3744 2.99205 17.3605Z"
            fill="url(#paint1_linear_1_1646)" />
        <path id="Vector_3"
            d="M1.97619 7.59834C1.5935 7.5566 1.27342 7.54964 0.967266 7.48701C0.403664 7.36873 0.0140129 6.9234 9.67597e-05 6.42937C-0.0068613 5.91448 0.361923 5.40655 0.953358 5.33001C1.60046 5.25347 2.26843 5.26044 2.91552 5.33698C3.46521 5.3996 3.84095 5.88666 3.86879 6.35981C3.89662 6.826 3.56263 7.28523 2.99903 7.44527C2.65808 7.54964 2.28235 7.5566 1.97619 7.59834Z"
            fill="url(#paint2_linear_1_1646)" />
    </g>
</svg>
