<svg width="9" height="12" viewBox="0 0 9 12" fill="none" xmlns="http://www.w3.org/2000/svg">
    <path d="M1.40995 0.000206632C1.2326 -0.00369422 1.05843 0.0477192 0.911671 0.147378C0.76491 0.247037 0.652846 0.390016 0.59106 0.556308C0.529274 0.722601 0.520836 0.903987 0.566918 1.0753C0.613 1.24661 0.711313 1.39923 0.848189 1.51209L6.07077 5.9862L0.848189 10.4587C0.753505 10.5283 0.67421 10.6167 0.615269 10.7183C0.556327 10.82 0.51901 10.9327 0.505654 11.0495C0.492298 11.1662 0.50319 11.2845 0.537649 11.3968C0.572107 11.5091 0.62939 11.6132 0.70591 11.7024C0.782429 11.7915 0.876538 11.8639 0.982341 11.915C1.08814 11.9661 1.20336 11.9948 1.32078 11.9994C1.4382 12.0039 1.55529 11.9842 1.66472 11.9414C1.77415 11.8986 1.87355 11.8336 1.95672 11.7506L7.9361 6.63464C8.03 6.55451 8.1054 6.45505 8.15711 6.34296C8.20881 6.23086 8.23558 6.10886 8.23558 5.98541C8.23558 5.86197 8.20881 5.73996 8.15711 5.62787C8.1054 5.51578 8.03 5.41622 7.9361 5.33609L1.95672 0.215205C1.80567 0.0810394 1.61193 0.00476303 1.40995 9.74702e-06V0.000206632Z" fill="#D0303A"/>
</svg>
