<svg width="35" height="36" viewBox="0 0 35 36" fill="none" xmlns="http://www.w3.org/2000/svg">
    <defs>
        <linearGradient id="paint0_linear_2962_18928" x1="30.7692" y1="11.1874" x2="12.7238" y2="11.1874"
                        gradientUnits="userSpaceOnUse">
            <stop stop-color="#EA1E5B"/>
            <stop offset="1" stop-color="#F5932F"/>
        </linearGradient>
        <linearGradient id="paint1_linear_2962_18928" x1="21.9279" y1="33.6646" x2="9.57758" y2="33.6646"
                        gradientUnits="userSpaceOnUse">
            <stop stop-color="#EA1E5B"/>
            <stop offset="1" stop-color="#F5932F"/>
        </linearGradient>
        <linearGradient id="paint2_linear_2962_18928" x1="21.9458" y1="19.0141" x2="5.23077" y2="19.0141"
                        gradientUnits="userSpaceOnUse">
            <stop stop-color="#EA1E5B"/>
            <stop offset="1" stop-color="#F5932F"/>
        </linearGradient>
        <clipPath id="clip0_2962_18928">
            <rect width="36" height="36" fill="white"/>
        </clipPath>
    </defs>
    <g clip-path="url(#clip0_2962_18928)">
        <path d="M30.2506 0H13.2424C12.9564 0 12.7238 0.237461 12.7238 0.529384V21.8454C12.7238 22.1374 12.9564 22.3748 13.2424 22.3748H15.5395V18.8292C15.5395 16.393 17.5296 14.4111 19.9758 14.4111C22.422 14.4111 24.4121 16.393 24.4121 18.8292V22.3748H30.2506C30.5365 22.3748 30.7692 22.1374 30.7692 21.8454V0.529384C30.7692 0.237461 30.5365 0 30.2506 0V0ZM21.7737 1.67492C22.479 1.67492 23.0426 2.30054 23.0034 3.00492L22.6906 8.61384C22.6635 9.09861 22.2588 9.49807 21.7737 9.49807C21.2886 9.49807 20.8838 9.09853 20.8568 8.61384L20.5441 3.00492C20.5048 2.30061 21.0684 1.67492 21.7737 1.67492ZM21.7737 13.1108C21.0666 13.1108 20.5334 12.5471 20.5334 11.7998C20.5334 11.0524 21.0666 10.4888 21.7737 10.4888C22.4923 10.4888 23.0139 11.0401 23.0139 11.7998C23.0139 12.5594 22.4923 13.1108 21.7737 13.1108Z"
              fill="url(#paint0_linear_2962_18928)"/>
        <path d="M9.57758 31.3291V35.4706C9.57758 35.7625 9.81027 36 10.0963 36H21.4093C21.6952 36 21.9279 35.7625 21.9279 35.4706V31.3291H9.57758Z"
              fill="url(#paint1_linear_2962_18928)"/>
        <path d="M9.04336 28.8584H21.9404L21.9458 18.8285C21.9458 17.7553 21.062 16.8817 19.9757 16.8817C18.8894 16.8817 18.0056 17.7553 18.0056 18.8292V23.6101C18.0056 24.2924 17.4536 24.8454 16.7725 24.8454H13.2423C11.5965 24.8454 10.2575 23.4997 10.2575 21.8455V9.16992L6.14921 16.7349C4.87121 19.0882 4.93067 21.9778 6.30436 24.2759L9.04336 28.8584Z"
              fill="url(#paint2_linear_2962_18928)"/>
    </g>
</svg>
