<svg width="24" height="24" viewBox="0 0 24 24" fill="none" xmlns="http://www.w3.org/2000/svg">
    <path d="M18 7H10C8.89543 7 8 8.04467 8 9.33333V18.6667C8 19.9553 8.89543 21 10 21H18C19.1046 21 20 19.9553 20 18.6667V9.33333C20 8.04467 19.1046 7 18 7Z" stroke="#F2994A" stroke-width="1.5" stroke-linecap="round" stroke-linejoin="round"/>
    <path d="M16 7V5.33333C16 4.71449 15.7893 4.121 15.4142 3.68342C15.0391 3.24583 14.5304 3 14 3H6C5.46957 3 4.96086 3.24583 4.58579 3.68342C4.21071 4.121 4 4.71449 4 5.33333V14.6667C4 15.2855 4.21071 15.879 4.58579 16.3166C4.96086 16.7542 5.46957 17 6 17H8" stroke="#F2994A" stroke-width="1.5" stroke-linecap="round" stroke-linejoin="round"/>
</svg>
