<svg width="24" height="24" viewBox="0 0 24 24" fill="none" xmlns="http://www.w3.org/2000/svg">
    <path d="M22.7027 12C22.7027 17.4905 18.7343 22.0414 13.5469 22.8664V15.1797H16.0753L16.5564 12H13.5469V9.93664C13.5469 9.06652 13.9674 8.21875 15.3153 8.21875H16.6836V5.51172C16.6836 5.51172 15.4416 5.29688 14.2543 5.29688C11.7759 5.29688 10.1558 6.81969 10.1558 9.57656V12H7.4006V15.1797H10.1558V22.8664C4.96837 22.0414 1 17.4905 1 12C1 5.92508 5.85852 1 11.8514 1C17.8442 1 22.7027 5.92508 22.7027 12Z" fill="#1877F2"/>
    <path d="M16.0754 15.1797L16.5565 12H13.5469V9.9366C13.5469 9.0667 13.9673 8.21875 15.3153 8.21875H16.6836V5.51172C16.6836 5.51172 15.4418 5.29688 14.2546 5.29688C11.7759 5.29688 10.1559 6.81969 10.1559 9.57656V12H7.40063V15.1797H10.1559V22.8663C10.7083 22.9542 11.2746 23 11.8514 23C12.4282 23 12.9944 22.9542 13.5469 22.8663V15.1797H16.0754Z" fill="white"/>
</svg>
