<svg width="56" height="56" viewBox="0 0 56 56" fill="none" xmlns="http://www.w3.org/2000/svg">
    <defs>
        <clipPath id="clip0_259_3893">
            <rect width="56" height="56" fill="white"/>
        </clipPath>
    </defs>
    <g clip-path="url(#clip0_259_3893)">
        <path fill-rule="evenodd" clip-rule="evenodd" d="M1.26479 18.8522C0.38267 18.8522 -0.333252 18.1363 -0.333252 17.2542V10.8621C-0.333252 4.69362 4.68459 -0.324219 10.853 -0.324219H17.2452C18.1273 -0.324219 18.8432 0.391703 18.8432 1.27382C18.8432 2.15594 18.1273 2.87186 17.2452 2.87186H10.853C6.44883 2.87186 2.86283 6.45466 2.86283 10.8621V17.2542C2.86283 18.1363 2.1469 18.8522 1.26479 18.8522V18.8522ZM52.402 18.8522C51.5199 18.8522 50.804 18.1363 50.804 17.2542V10.8621C50.804 6.45466 47.218 2.87186 42.8138 2.87186H36.4216C35.5395 2.87186 34.8236 2.15594 34.8236 1.27382C34.8236 0.391703 35.5395 -0.324219 36.4216 -0.324219H42.8138C48.9822 -0.324219 54.0001 4.69362 54.0001 10.8621V17.2542C54.0001 18.1363 53.2842 18.8522 52.402 18.8522ZM17.2452 25.2444C16.3631 25.2444 15.6471 24.5285 15.6471 23.6464V17.2542C15.6471 16.3721 16.3631 15.6562 17.2452 15.6562C18.1273 15.6562 18.8432 16.3721 18.8432 17.2542V23.6464C18.8432 24.5285 18.1273 25.2444 17.2452 25.2444ZM36.4216 25.2444C35.5395 25.2444 34.8236 24.5285 34.8236 23.6464V17.2542C34.8236 16.3721 35.5395 15.6562 36.4216 15.6562C37.3038 15.6562 38.0197 16.3721 38.0197 17.2542V23.6464C38.0197 24.5285 37.3038 25.2444 36.4216 25.2444ZM23.6373 31.6366C22.7552 31.6366 22.0393 30.9206 22.0393 30.0385C22.0393 29.1564 22.7552 28.4405 23.6373 28.4405C24.5195 28.4405 25.2354 27.7214 25.2354 26.8424V17.2542C25.2354 16.3721 25.9513 15.6562 26.8334 15.6562C27.7155 15.6562 28.4315 16.3721 28.4315 17.2542V26.8424C28.4315 29.4856 26.2805 31.6366 23.6373 31.6366ZM26.8334 41.2248C23.2155 41.2248 20.1472 39.9911 17.7118 37.5621C17.0886 36.9357 17.0886 35.9257 17.7118 35.2993C18.3382 34.676 19.3482 34.676 19.9746 35.2993C21.8092 37.137 24.0528 38.0287 26.8334 38.0287C29.614 38.0287 31.8576 37.137 33.6922 35.2993C34.3186 34.676 35.3286 34.676 35.955 35.2993C36.5783 35.9257 36.5783 36.9357 35.955 37.5621C33.5196 39.9911 30.4514 41.2248 26.8334 41.2248ZM17.2452 54.0091H10.853C4.68459 54.0091 -0.333252 48.9913 -0.333252 42.8228V36.4307C-0.333252 35.5486 0.38267 34.8326 1.26479 34.8326C2.1469 34.8326 2.86283 35.5486 2.86283 36.4307V42.8228C2.86283 47.2302 6.44883 50.813 10.853 50.813H17.2452C18.1273 50.813 18.8432 51.529 18.8432 52.4111C18.8432 53.2932 18.1273 54.0091 17.2452 54.0091ZM42.8138 54.0091H36.4216C35.5395 54.0091 34.8236 53.2932 34.8236 52.4111C34.8236 51.529 35.5395 50.813 36.4216 50.813H42.8138C47.218 50.813 50.804 47.2302 50.804 42.8228V36.4307C50.804 35.5486 51.5199 34.8326 52.402 34.8326C53.2842 34.8326 54.0001 35.5486 54.0001 36.4307V42.8228C54.0001 48.9913 48.9822 54.0091 42.8138 54.0091Z" fill="white"/>
    </g>
</svg>
