<svg xmlns="http://www.w3.org/2000/svg" xmlns:xlink="http://www.w3.org/1999/xlink" width="603" zoomAndPan="magnify" viewBox="0 0 452.25 452.249989" height="603" preserveAspectRatio="xMidYMid meet" version="1.0"><defs><clipPath id="ecd3d5aa48"><path d="M 65.289062 70.539062 L 386.507812 70.539062 L 386.507812 381.273438 L 65.289062 381.273438 Z M 65.289062 70.539062 " clip-rule="nonzero"/></clipPath></defs><g clip-path="url(#ecd3d5aa48)"><path fill="#f67321" d="M 385.109375 223.117188 C 386.507812 224.511719 386.507812 226.605469 385.109375 228 L 236.535156 379.378906 C 235.835938 380.074219 235.140625 380.421875 234.09375 380.421875 L 211.773438 381.121094 C 210.726562 381.121094 210.027344 380.773438 209.332031 380.074219 C 208.632812 379.378906 208.285156 378.679688 208.285156 377.632812 L 208.285156 318.339844 C 208.285156 317.292969 208.632812 316.59375 209.332031 315.898438 L 299.3125 225.210938 L 208.632812 135.222656 C 207.9375 134.523438 207.585938 133.824219 207.585938 132.78125 L 207.585938 88.484375 C 207.585938 87.4375 208.285156 86.042969 209.332031 85.691406 L 231.652344 71.390625 C 232.699219 70.695312 233.746094 70.695312 234.792969 71.042969 C 235.140625 71.042969 235.835938 71.390625 236.1875 71.742188 Z M 68.777344 381.121094 L 91.445312 380.421875 C 92.492188 380.421875 93.191406 380.074219 93.886719 379.378906 L 242.464844 228 C 243.859375 226.605469 243.859375 224.511719 242.464844 223.117188 L 93.886719 71.742188 C 93.539062 71.390625 93.191406 71.042969 92.492188 71.042969 C 91.445312 70.695312 90.050781 70.695312 89.355469 71.390625 L 67.03125 85.691406 C 65.988281 86.042969 65.289062 87.4375 65.289062 88.484375 L 65.289062 132.78125 C 65.289062 133.824219 65.636719 134.523438 66.335938 135.222656 L 156.316406 225.210938 L 66.335938 315.898438 C 65.636719 316.59375 65.289062 317.292969 65.289062 318.339844 L 65.289062 377.632812 C 65.289062 378.679688 65.636719 379.378906 66.335938 380.074219 C 67.03125 380.773438 67.730469 381.121094 68.777344 381.121094 Z M 68.777344 381.121094 " fill-opacity="1" fill-rule="nonzero"/></g></svg>