<svg width="24" height="24" viewBox="0 0 24 24" fill="none" xmlns="http://www.w3.org/2000/svg">
    <mask id="path-1-inside-1_3146_15134" fill="white">
        <path d="M20.5625 2H4.0625C2.92537 2 2 2.92537 2 4.0625V15.0625C2 16.1996 2.92537 17.125 4.0625 17.125H6.125V20.5625C6.125 20.8272 6.27694 21.0671 6.51412 21.1819C6.60969 21.2273 6.71144 21.25 6.8125 21.25C6.96581 21.25 7.11775 21.1991 7.24219 21.0994L12.2101 17.125H20.5625C21.6996 17.125 22.625 16.1996 22.625 15.0625V4.0625C22.625 2.92537 21.6996 2 20.5625 2ZM12.3125 11.625H6.8125C6.43231 11.625 6.125 11.317 6.125 10.9375C6.125 10.558 6.43231 10.25 6.8125 10.25H12.3125C12.6927 10.25 13 10.558 13 10.9375C13 11.317 12.6927 11.625 12.3125 11.625ZM17.8125 8.875H6.8125C6.43231 8.875 6.125 8.567 6.125 8.1875C6.125 7.808 6.43231 7.5 6.8125 7.5H17.8125C18.1927 7.5 18.5 7.808 18.5 8.1875C18.5 8.567 18.1927 8.875 17.8125 8.875Z"/>
    </mask>
    <path d="M20.5625 2H4.0625C2.92537 2 2 2.92537 2 4.0625V15.0625C2 16.1996 2.92537 17.125 4.0625 17.125H6.125V20.5625C6.125 20.8272 6.27694 21.0671 6.51412 21.1819C6.60969 21.2273 6.71144 21.25 6.8125 21.25C6.96581 21.25 7.11775 21.1991 7.24219 21.0994L12.2101 17.125H20.5625C21.6996 17.125 22.625 16.1996 22.625 15.0625V4.0625C22.625 2.92537 21.6996 2 20.5625 2ZM12.3125 11.625H6.8125C6.43231 11.625 6.125 11.317 6.125 10.9375C6.125 10.558 6.43231 10.25 6.8125 10.25H12.3125C12.6927 10.25 13 10.558 13 10.9375C13 11.317 12.6927 11.625 12.3125 11.625ZM17.8125 8.875H6.8125C6.43231 8.875 6.125 8.567 6.125 8.1875C6.125 7.808 6.43231 7.5 6.8125 7.5H17.8125C18.1927 7.5 18.5 7.808 18.5 8.1875C18.5 8.567 18.1927 8.875 17.8125 8.875Z"
          fill="#F2994A"/>
    <path d="M6.125 17.125H22.125V1.125H6.125V17.125ZM6.51412 21.1819L-0.457032 35.5834L-0.402945 35.6096L-0.348663 35.6354L6.51412 21.1819ZM7.24219 21.0994L-2.75315 8.6057L-2.76134 8.61227L7.24219 21.0994ZM12.2101 17.125V1.125H6.59741L2.21473 4.63127L12.2101 17.125ZM20.5625 -14H4.0625V18H20.5625V-14ZM4.0625 -14C-5.91118 -14 -14 -5.91118 -14 4.0625H18C18 11.7619 11.7619 18 4.0625 18V-14ZM-14 4.0625V15.0625H18V4.0625H-14ZM-14 15.0625C-14 25.0362 -5.91118 33.125 4.0625 33.125V1.125C11.7619 1.125 18 7.36307 18 15.0625H-14ZM4.0625 33.125H6.125V1.125H4.0625V33.125ZM-9.875 17.125V20.5625H22.125V17.125H-9.875ZM-9.875 20.5625C-9.875 27.0096 -6.17241 32.8169 -0.457032 35.5834L13.4853 6.78044C18.7263 9.3174 22.125 14.6448 22.125 20.5625H-9.875ZM-0.348663 35.6354C1.86402 36.686 4.30728 37.25 6.8125 37.25V5.25C9.1156 5.25 11.3554 5.76861 13.3769 6.72849L-0.348663 35.6354ZM6.8125 37.25C10.5048 37.25 14.2075 36.0205 17.2457 33.5866L-2.76134 8.61227C0.0280099 6.3777 3.42681 5.25 6.8125 5.25V37.25ZM17.2375 33.5932L22.2054 29.6187L2.21473 4.63127L-2.75314 8.60571L17.2375 33.5932ZM12.2101 33.125H20.5625V1.125H12.2101V33.125ZM20.5625 33.125C30.5362 33.125 38.625 25.0362 38.625 15.0625H6.625C6.625 7.36307 12.8631 1.125 20.5625 1.125V33.125ZM38.625 15.0625V4.0625H6.625V15.0625H38.625ZM38.625 4.0625C38.625 -5.91118 30.5362 -14 20.5625 -14V18C12.8631 18 6.625 11.7619 6.625 4.0625H38.625ZM12.3125 -4.375H6.8125V27.625H12.3125V-4.375ZM6.8125 -4.375C15.2793 -4.375 22.125 2.49087 22.125 10.9375H-9.875C-9.875 20.1431 -2.41466 27.625 6.8125 27.625V-4.375ZM22.125 10.9375C22.125 19.3841 15.2793 26.25 6.8125 26.25V-5.75C-2.41466 -5.75 -9.875 1.73187 -9.875 10.9375H22.125ZM6.8125 26.25H12.3125V-5.75H6.8125V26.25ZM12.3125 26.25C3.84571 26.25 -3 19.3841 -3 10.9375H29C29 1.73187 21.5397 -5.75 12.3125 -5.75V26.25ZM-3 10.9375C-3 2.49087 3.84571 -4.375 12.3125 -4.375V27.625C21.5397 27.625 29 20.1431 29 10.9375H-3ZM17.8125 -7.125H6.8125V24.875H17.8125V-7.125ZM6.8125 -7.125C15.2793 -7.125 22.125 -0.259133 22.125 8.1875H-9.875C-9.875 17.3931 -2.41466 24.875 6.8125 24.875V-7.125ZM22.125 8.1875C22.125 16.6341 15.2793 23.5 6.8125 23.5V-8.5C-2.41466 -8.5 -9.875 -1.01813 -9.875 8.1875H22.125ZM6.8125 23.5H17.8125V-8.5H6.8125V23.5ZM17.8125 23.5C9.34571 23.5 2.5 16.6341 2.5 8.1875H34.5C34.5 -1.01813 27.0397 -8.5 17.8125 -8.5V23.5ZM2.5 8.1875C2.5 -0.259133 9.34571 -7.125 17.8125 -7.125V24.875C27.0397 24.875 34.5 17.3931 34.5 8.1875H2.5Z"
          fill="#F2994A" mask="url(#path-1-inside-1_3146_15134)"/>


</svg>
