<svg width="24" height="24" viewBox="0 0 24 24" fill="none" xmlns="http://www.w3.org/2000/svg">
    <path d="M12 2C6.47301 2 2 6.4725 2 12C2 17.5269 6.4725 22 12 22C17.527 22 22 17.5275 22 12C22 6.47301 17.5275 2 12 2ZM11.7041 16.6804C11.1381 16.6804 10.7037 16.2066 10.7037 15.6668C10.7037 15.114 11.1512 14.6533 11.7041 14.6533C12.257 14.6533 12.7176 15.114 12.7176 15.6669C12.7176 16.2065 12.2701 16.6804 11.7041 16.6804ZM13.2046 11.56C12.4807 12.126 12.4675 12.5209 12.4675 13.2054C12.4675 13.4555 12.3359 13.7451 11.6909 13.7451C11.1512 13.7451 10.967 13.5476 10.967 12.8632C10.967 11.7311 11.4671 11.1914 11.8489 10.8624C12.2832 10.4938 13.0204 10.0858 13.0204 9.375C13.0204 8.76945 12.4939 8.47988 11.8357 8.47988C10.4931 8.47988 10.7827 9.49348 10.0718 9.49348C9.71645 9.49348 9.28207 9.25648 9.28207 8.74316C9.28207 8.03238 10.0982 6.9793 11.8752 6.9793C13.56 6.9793 14.6789 7.91391 14.6789 9.15121C14.6789 10.3885 13.56 11.2836 13.2046 11.56Z" fill="#F2994A"/>
</svg>
