<svg width="24" height="24" viewBox="0 0 24 24" fill="none" xmlns="http://www.w3.org/2000/svg">
<defs>
<linearGradient id="paint0_linear_515_3710" x1="22" y1="13.1762" x2="2.6897" y2="13.1762" gradientUnits="userSpaceOnUse">
<stop stop-color="#EA1E5B"/>
<stop offset="1" stop-color="#F5932F"/>
</linearGradient>
<linearGradient id="paint1_linear_515_3710" x1="12.743" y1="5.13213" x2="11.9469" y2="5.13213" gradientUnits="userSpaceOnUse">
<stop stop-color="#EA1E5B"/>
<stop offset="1" stop-color="#F5932F"/>
</linearGradient>
</defs>
<path d="M20.5248 6.30811H12.7431V8.08561C12.7431 8.31352 12.5649 8.49811 12.3449 8.49811C12.1248 8.49811 11.947 8.31352 11.947 8.08561V6.30811H4.16493C3.35148 6.30811 2.6897 6.99311 2.6897 7.83561V18.5164C2.6897 19.3589 3.35148 20.0444 4.16493 20.0444H20.5248C21.3383 20.0444 22 19.3589 22 18.5164V7.83561C22 6.99311 21.3383 6.30811 20.5248 6.30811ZM8.38263 8.71227C9.32602 8.71227 10.0936 9.50769 10.0936 10.4852C10.0936 11.4619 9.32602 12.256 8.38263 12.256C7.43924 12.256 6.67165 11.4619 6.67165 10.4852C6.67165 9.50811 7.43964 8.71227 8.38263 8.71227ZM12.2455 17.5731H4.51975C4.46504 17.5731 4.42039 17.5273 4.42039 17.4702C4.42039 15.2073 6.19815 13.3664 8.38303 13.3664C10.5679 13.3664 12.3449 15.2073 12.3449 17.4702C12.3449 17.5273 12.3002 17.5731 12.2455 17.5731ZM19.0395 14.9777H14.0233C13.8032 14.9777 13.6254 14.7931 13.6254 14.5652C13.6254 14.3373 13.8032 14.1531 14.0233 14.1531H19.0395C19.2596 14.1531 19.4374 14.3373 19.4374 14.5652C19.4374 14.7931 19.2596 14.9777 19.0395 14.9777ZM19.0395 11.7589H14.0233C13.8032 11.7589 13.6254 11.5748 13.6254 11.3464C13.6254 11.1185 13.8032 10.9344 14.0233 10.9344H19.0395C19.2596 10.9344 19.4374 11.1185 19.4374 11.3464C19.4374 11.5748 19.2596 11.7589 19.0395 11.7589Z" fill="url(#paint0_linear_515_3710)"/>
<path d="M12.743 4.36838C12.743 4.14047 12.5648 3.9563 12.3448 3.9563C12.1247 3.9563 11.9469 4.14047 11.9469 4.36838V6.30796H12.743V4.36838Z" fill="url(#paint1_linear_515_3710)"/>
</svg>
