<svg width="24" height="24" viewBox="0 0 24 24" fill="none" xmlns="http://www.w3.org/2000/svg">
<defs>
<linearGradient id="paint0_linear_515_3690" x1="22" y1="12" x2="2" y2="12" gradientUnits="userSpaceOnUse">
<stop stop-color="#EA1E5B"/>
<stop offset="1" stop-color="#F5932F"/>
</linearGradient>
</defs>
<path d="M11.9996 2C6.47746 2 2 6.47746 2 11.9996C2 17.5217 6.47746 22 11.9996 22C17.5217 22 22 17.5217 22 11.9996C22 6.47746 17.5217 2 11.9996 2ZM14.0813 17.498C13.5666 17.7012 13.1568 17.8552 12.8495 17.9619C12.5431 18.0686 12.1867 18.1219 11.7812 18.1219C11.1581 18.1219 10.673 17.9695 10.3276 17.6656C9.98222 17.3617 9.81037 16.9765 9.81037 16.5084C9.81037 16.3263 9.82307 16.1401 9.84847 15.9505C9.87471 15.7608 9.91619 15.5475 9.97291 15.3079L10.6171 13.0324C10.6739 12.814 10.723 12.6066 10.7619 12.4135C10.8008 12.2188 10.8195 12.0402 10.8195 11.8777C10.8195 11.5881 10.7594 11.385 10.64 11.2707C10.5189 11.1564 10.2912 11.1005 9.95175 11.1005C9.78582 11.1005 9.61481 11.1251 9.43958 11.1767C9.26603 11.2301 9.11534 11.2783 8.99175 11.3257L9.1619 10.6248C9.58349 10.4529 9.9873 10.3056 10.3725 10.1837C10.7577 10.0601 11.1217 9.99915 11.4646 9.99915C12.0834 9.99915 12.5608 10.1498 12.8969 10.4478C13.2313 10.7467 13.3998 11.1352 13.3998 11.6127C13.3998 11.7117 13.3879 11.8861 13.3651 12.135C13.3422 12.3848 13.299 12.6125 13.2364 12.8216L12.5956 15.0904C12.5431 15.2724 12.4965 15.4806 12.4542 15.7134C12.4127 15.9462 12.3924 16.124 12.3924 16.2434C12.3924 16.5448 12.4593 16.7505 12.5947 16.8597C12.7285 16.9689 12.963 17.0239 13.2948 17.0239C13.4514 17.0239 13.6267 16.996 13.8248 16.9418C14.0212 16.8876 14.1634 16.8394 14.2531 16.7979L14.0813 17.498ZM13.9678 8.2891C13.669 8.56677 13.3092 8.70561 12.8885 8.70561C12.4686 8.70561 12.1062 8.56677 11.8049 8.2891C11.5052 8.01143 11.3537 7.67365 11.3537 7.27915C11.3537 6.8855 11.506 6.54688 11.8049 6.26667C12.1062 5.98561 12.4686 5.84593 12.8885 5.84593C13.3092 5.84593 13.6698 5.98561 13.9678 6.26667C14.2667 6.54688 14.4165 6.8855 14.4165 7.27915C14.4165 7.6745 14.2667 8.01143 13.9678 8.2891Z" fill="url(#paint0_linear_515_3690)"/>
</svg>
