<svg width="24" height="28" viewBox="0 0 24 28" fill="none" xmlns="http://www.w3.org/2000/svg">
    <defs>
        <linearGradient id="paint0_linear_3115_19027" x1="23.0525" y1="13.9472" x2="0.842041" y2="13.9472" gradientUnits="userSpaceOnUse">
            <stop stop-color="#EA1E5B"/>
            <stop offset="1" stop-color="#F5932F"/>
        </linearGradient>
        <linearGradient id="paint1_linear_3115_19027" x1="17.4722" y1="13.6929" x2="6.42236" y2="13.6929" gradientUnits="userSpaceOnUse">
            <stop stop-color="#EA1E5B"/>
            <stop offset="1" stop-color="#F5932F"/>
        </linearGradient>
    </defs>
    <path d="M23.0263 7.96552L23.0258 7.9406C23.0135 7.28876 23.0018 6.67306 23.0018 6.08071C23.0018 5.18337 22.2718 4.45335 21.3744 4.45335C17.9024 4.45335 15.2672 3.46343 13.0814 1.33808C12.4452 0.719373 11.4484 0.719322 10.8123 1.33803C8.62657 3.46343 5.99167 4.45335 2.52015 4.45335C1.62281 4.45335 0.892792 5.18337 0.892792 6.08071C0.892792 6.68573 0.880895 7.30755 0.868283 7.96603C0.809563 11.0399 0.736495 14.8655 2.02032 18.3381C2.72623 20.2475 3.79509 21.9069 5.19722 23.2701C6.79415 24.8227 8.88575 26.0543 11.4137 26.9306C11.5856 26.9902 11.765 27.0204 11.9468 27.0204C12.1288 27.0204 12.3083 26.9902 12.4798 26.9306C15.0081 26.0543 17.0999 24.8227 18.6969 23.27C20.0992 21.9068 21.1682 20.2473 21.8741 18.3378C23.1581 14.8651 23.085 11.0394 23.0263 7.96552ZM20.4373 17.8066C19.0834 21.4685 16.3163 23.9796 11.9776 25.4835C11.9578 25.4903 11.936 25.4905 11.9155 25.4833C7.57752 23.9797 4.81074 21.4687 3.45702 17.8069C2.27353 14.6056 2.34057 11.0938 2.39975 7.99528C2.41252 7.3294 2.42457 6.70043 2.42457 6.08071C2.42457 6.02806 2.46741 5.98517 2.5201 5.98517C6.41599 5.98517 9.39023 4.85749 11.8802 2.43619C11.8989 2.41806 11.9228 2.40898 11.9467 2.40898C11.9707 2.40898 11.9947 2.41812 12.0134 2.43624C14.5035 4.85749 17.478 5.98517 21.3744 5.98517C21.427 5.98517 21.4699 6.02806 21.4699 6.08071C21.4699 6.68762 21.4817 7.31035 21.4943 7.96965L21.4947 7.99467V7.99472C21.5539 11.0932 21.621 14.6052 20.4373 17.8066Z" fill="url(#paint0_linear_3115_19027)"/>
    <path d="M16.7063 11.3986H14.2418V8.93388C14.2418 8.51089 13.8989 8.16797 13.4759 8.16797H10.4191C9.99611 8.16797 9.65319 8.51089 9.65319 8.93388V11.3986H7.18828C6.76529 11.3986 6.42236 11.7416 6.42236 12.1646V15.2214C6.42236 15.6443 6.76529 15.9873 7.18828 15.9873H9.65319V18.452C9.65319 18.875 9.99611 19.2179 10.4191 19.2179H13.4759C13.8989 19.2179 14.2418 18.875 14.2418 18.452V15.9873H16.7063C17.1293 15.9873 17.4722 15.6443 17.4722 15.2214V12.1646C17.4722 11.7415 17.1293 11.3986 16.7063 11.3986ZM15.9404 14.4554H13.4759C13.0529 14.4554 12.71 14.7984 12.71 15.2214V17.6861H11.185V15.2214C11.185 14.7984 10.8421 14.4554 10.4191 14.4554H7.95419V12.9305H10.4191C10.8421 12.9305 11.185 12.5875 11.185 12.1646V9.69979H12.71V12.1646C12.71 12.5875 13.0529 12.9305 13.4759 12.9305H15.9404V14.4554H15.9404Z" fill="url(#paint1_linear_3115_19027)"/>
</svg>
