<svg width="30" height="20" viewBox="0 0 30 20" fill="none" xmlns="http://www.w3.org/2000/svg">
    <defs>
        <linearGradient id="paint0_linear_3115_19025" x1="29.4482" y1="10.0077" x2="0.547363" y2="10.0077" gradientUnits="userSpaceOnUse">
            <stop stop-color="#EA1E5B"/>
            <stop offset="1" stop-color="#F5932F"/>
        </linearGradient>
    </defs>
    <path d="M29.4408 4.70117L28.2166 5.6538C25.0587 2.35485 21.4545 1.61169 17.4229 3.79275C14.7229 5.2538 13.5598 8.31169 13.7829 10.4391C13.9408 10.4475 14.1082 10.4643 14.2756 10.4643C15.2924 10.4643 16.3103 10.477 17.3282 10.4643C17.7377 10.458 17.8829 10.6191 17.884 11.0233C17.8914 12.8127 17.7082 14.5633 16.8703 16.1812C16.6703 16.5664 16.784 16.7264 17.0914 16.937C20.2219 19.0791 24.7366 18.6738 27.5187 15.9833C27.7187 15.7896 27.8872 15.5622 28.1051 15.3106L29.4482 16.3148C28.7766 17.2685 27.924 17.9517 26.9651 18.5043C24.9524 19.6622 22.7756 20.0075 20.4808 19.7959C18.7545 19.637 17.1535 19.1464 15.744 18.1117C15.464 17.9012 15.2703 18.0064 15.0408 18.158C13.5378 19.1228 11.7725 19.5976 9.98821 19.517C6.54294 19.3875 3.82821 17.818 2.00716 14.8959C-1.60126 9.10643 1.81979 1.53801 8.53979 0.334851C10.944 -0.0956748 13.2103 0.264327 15.3219 1.51064C15.4998 1.61591 15.6651 1.74222 15.9229 1.91696C15.4629 2.32117 15.0629 2.70433 14.6229 3.03275C14.5261 3.10538 14.2629 3.03275 14.1145 2.94959C13.1745 2.45696 12.1935 2.09906 11.1356 1.98012C9.05347 1.74538 7.24821 2.44748 5.57558 3.61906C1.60716 6.40117 0.937683 13.8749 6.98189 16.8822C9.19242 17.9791 11.3545 17.9864 13.5324 16.8538C13.6377 16.797 13.7429 16.7306 13.8482 16.6696L14.0324 16.5643C13.8872 16.3538 13.7777 16.177 13.6598 16.0117C11.1335 12.478 11.1893 6.72012 14.9619 3.41801C17.1356 1.51485 19.6819 0.834852 22.5145 1.03485C24.9135 1.20433 27.0019 2.06748 28.7072 3.79064C28.904 3.98959 29.0851 4.20643 29.2661 4.42222C29.331 4.51087 29.3894 4.6041 29.4408 4.70117ZM15.5124 15.4938C16.0387 14.5127 16.3082 13.5864 16.3008 12.5938C16.3008 12.4706 16.0998 12.2517 15.985 12.2443C15.4091 12.2106 14.8316 12.2106 14.2556 12.2443C14.1503 12.2496 13.9598 12.4749 13.9798 12.5549C14.2474 13.6433 14.7731 14.6513 15.5124 15.4938Z" fill="url(#paint0_linear_3115_19025)"/>
</svg>
