<svg width="32" height="32" viewBox="0 0 32 32" fill="none" xmlns="http://www.w3.org/2000/svg">
    <defs>
        <linearGradient id="paint0_linear_141_1133" x1="29.415" y1="16" x2="2.58496" y2="16" gradientUnits="userSpaceOnUse">
            <stop stop-color="#EA1E5B"/>
            <stop offset="1" stop-color="#F5932F"/>
        </linearGradient>
    </defs>
    <path fill-rule="evenodd" clip-rule="evenodd" d="M16 32C22.2382 29.8419 25.7042 26.9413 27.5539 22.3515C29.3711 17.8417 29.5955 11.6947 29.3144 3.30319L16 0L2.68554 3.30319C2.40448 11.6947 2.62879 17.8417 4.44585 22.3515C6.29567 26.9413 9.76179 29.8419 16 32ZM22.856 15.2984C22.856 15.9314 22.3427 16.4445 21.7097 16.4445H17.1464V21.008C17.1464 21.6407 16.6331 22.1544 16 22.1544C15.3669 22.1544 14.8535 21.6407 14.8535 21.008V16.4445H10.2904C9.65723 16.4445 9.14391 15.9314 9.14391 15.2984C9.14391 14.6646 9.65723 14.1519 10.2904 14.1519H14.8535V9.58844C14.8535 8.95569 15.3669 8.442 16 8.442C16.6331 8.442 17.1464 8.95575 17.1464 9.58844V14.1519H21.7097C22.3427 14.1519 22.856 14.6646 22.856 15.2984Z" fill="url(#paint0_linear_141_1133)"/>
</svg>
