<svg width="40" height="40" viewBox="0 0 40 40" fill="none" xmlns="http://www.w3.org/2000/svg">
<defs>
<linearGradient id="paint0_linear_11_932" x1="31.0876" y1="5.92048" x2="11.4587" y2="35.917" gradientUnits="userSpaceOnUse">
<stop stop-color="#E92259"/>
<stop offset="1" stop-color="#F28834"/>
</linearGradient>
<linearGradient id="paint1_linear_11_932" x1="31.0876" y1="5.92048" x2="11.4587" y2="35.917" gradientUnits="userSpaceOnUse">
<stop stop-color="#E92259"/>
<stop offset="1" stop-color="#F28834"/>
</linearGradient>
</defs>
<path d="M37.3563 15.1942C31.4381 26.4628 14.0766 27.5987 2.95965 25.8102C3.51252 27.4406 4.30066 28.9814 5.29911 30.3841C12.3235 31.9188 22.4551 30.7104 28.9597 27.3026C25.0364 31.7134 16.5188 34.2752 8.32771 33.7073C11.2617 36.204 14.9198 37.6938 18.7641 37.9577C22.6084 38.2216 26.4359 37.2457 29.6839 35.1734C32.9319 33.1011 35.429 30.0418 36.8079 26.4454C38.1868 22.849 38.3748 18.9053 37.3442 15.1942H37.3563Z" fill="url(#paint0_linear_11_932)"/>
<path d="M36.0868 11.9073C35.3975 10.5489 34.5404 9.28223 33.5357 8.13701C32.4053 15.2969 20.0128 18.5657 13.9919 18.1307C18.9308 17.454 31.5227 12.433 31.6799 6.30624C28.8969 3.9319 25.4559 2.46188 21.8156 2.09217C18.1753 1.72245 14.5088 2.4706 11.3048 4.23687C8.10085 6.00315 5.51166 8.70363 3.88244 11.9783C2.25322 15.2529 1.66138 18.9462 2.18583 22.5656C13.1456 25.0368 30.9968 23.5686 36.0868 11.9073Z" fill="url(#paint1_linear_11_932)"/>
</svg>
