<svg width="37" height="36" viewBox="0 0 37 36" fill="none" xmlns="http://www.w3.org/2000/svg">
    <defs>
        <linearGradient id="paint0_linear_416_6313" x1="32" y1="4.5" x2="23" y2="4.5" gradientUnits="userSpaceOnUse">
            <stop stop-color="#EA1E5B"/>
            <stop offset="1" stop-color="#F5932F"/>
        </linearGradient>
        <linearGradient id="paint1_linear_416_6313" x1="31.1563" y1="18" x2="5.84375" y2="18" gradientUnits="userSpaceOnUse">
            <stop stop-color="#EA1E5B"/>
            <stop offset="1" stop-color="#F5932F"/>
        </linearGradient>
    </defs>
    <path d="M23 0V9H32L23 0Z" fill="url(#paint0_linear_416_6313)"/>
    <path d="M22.7188 11.6719C21.5565 11.6719 20.6094 10.7248 20.6094 9.5625V1.125H7.95312C6.79086 1.125 5.84375 2.07211 5.84375 3.23438V32.7656C5.84375 33.93 6.79086 34.875 7.95312 34.875H29.0469C30.2113 34.875 31.1562 33.93 31.1562 32.7656V11.6719H22.7188ZM13.2266 7.58391V6.39844C13.2266 5.81625 13.6991 5.34375 14.2812 5.34375C14.8634 5.34375 15.3359 5.81625 15.3359 6.39844V7.58602C15.9962 7.73578 16.6121 8.01422 17.1205 8.42766C17.574 8.79469 17.6415 9.45914 17.2723 9.91055C16.9032 10.3641 16.2388 10.4295 15.7895 10.0624C15.3908 9.73969 14.855 9.5625 14.2812 9.5625C13.138 9.5625 12.1719 10.286 12.1719 11.1445C12.1719 12.003 13.138 12.7266 14.2812 12.7266C16.6079 12.7266 18.5 14.3824 18.5 16.418C18.5 18.1329 17.15 19.5652 15.3359 19.9786V21.1641C15.3359 21.7463 14.8634 22.2188 14.2812 22.2188C13.6991 22.2188 13.2266 21.7463 13.2266 21.1641V19.9765C12.5663 19.8267 11.9504 19.5483 11.442 19.1348C10.9885 18.7657 10.921 18.1012 11.2902 17.6498C11.6593 17.1942 12.3216 17.1309 12.773 17.498C13.1717 17.8228 13.7075 18 14.2812 18C15.4245 18 16.3906 17.2765 16.3906 16.418C16.3906 15.5595 15.4245 14.8359 14.2812 14.8359C11.9546 14.8359 10.0625 13.1801 10.0625 11.1445C10.0625 9.42961 11.4125 7.99734 13.2266 7.58391ZM25.8828 30.6562H11.1172C10.535 30.6562 10.0625 30.1838 10.0625 29.6016C10.0625 29.0194 10.535 28.5469 11.1172 28.5469H25.8828C26.465 28.5469 26.9375 29.0194 26.9375 29.6016C26.9375 30.1838 26.465 30.6562 25.8828 30.6562ZM25.8828 26.4375H11.1172C10.535 26.4375 10.0625 25.965 10.0625 25.3828C10.0625 24.8006 10.535 24.3281 11.1172 24.3281H25.8828C26.465 24.3281 26.9375 24.8006 26.9375 25.3828C26.9375 25.965 26.465 26.4375 25.8828 26.4375ZM25.8828 22.2188H21.6641C21.0819 22.2188 20.6094 21.7463 20.6094 21.1641C20.6094 20.5819 21.0819 20.1094 21.6641 20.1094H25.8828C26.465 20.1094 26.9375 20.5819 26.9375 21.1641C26.9375 21.7463 26.465 22.2188 25.8828 22.2188ZM25.8828 18H21.6641C21.0819 18 20.6094 17.5275 20.6094 16.9453C20.6094 16.3631 21.0819 15.8906 21.6641 15.8906H25.8828C26.465 15.8906 26.9375 16.361 26.9375 16.9453C26.9375 17.5275 26.465 18 25.8828 18Z" fill="url(#paint1_linear_416_6313)"/>
</svg>
