<svg width="32" height="32" viewBox="0 0 32 32" fill="none" xmlns="http://www.w3.org/2000/svg">
    <defs>
        <linearGradient id="paint0_linear_397_6268" x1="27.3333" y1="16" x2="2" y2="16" gradientUnits="userSpaceOnUse">
            <stop stop-color="#EA1E5B"/>
            <stop offset="1" stop-color="#F5932F"/>
        </linearGradient>
    </defs>
    <path d="M4.66667 0.666626C3.95942 0.666626 3.28115 0.947578 2.78105 1.44767C2.28095 1.94777 2 2.62605 2 3.33329V31.3333H24.6667V3.33329C24.6667 2.62605 24.9476 1.94777 25.4477 1.44767C25.9478 0.947578 26.6261 0.666626 27.3333 0.666626H4.66667ZM14 11.3333H12.6667C12.1362 11.3333 11.6275 11.1226 11.2525 10.7475C10.8774 10.3724 10.6667 9.86373 10.6667 9.33329V8.66663C10.6667 8.13619 10.8774 7.62749 11.2525 7.25241C11.6275 6.87734 12.1362 6.66663 12.6667 6.66663V5.99996C12.6667 5.82315 12.7369 5.65358 12.8619 5.52855C12.987 5.40353 13.1565 5.33329 13.3333 5.33329C13.5101 5.33329 13.6797 5.40353 13.8047 5.52855C13.9298 5.65358 14 5.82315 14 5.99996V6.66663C16 6.66663 16.6133 9.33329 15.3333 9.33329C15.1565 9.33329 14.987 9.26305 14.8619 9.13803C14.7369 9.01301 14.6667 8.84344 14.6667 8.66663C14.6667 8.48982 14.5964 8.32025 14.4714 8.19522C14.3464 8.0702 14.1768 7.99996 14 7.99996H12.6667C12.4899 7.99996 12.3203 8.0702 12.1953 8.19522C12.0702 8.32025 12 8.48982 12 8.66663V9.33329C12 9.5101 12.0702 9.67967 12.1953 9.8047C12.3203 9.92972 12.4899 9.99996 12.6667 9.99996H14C14.5304 9.99996 15.0391 10.2107 15.4142 10.5857C15.7893 10.9608 16 11.4695 16 12V12.6666C16 13.1971 15.7893 13.7058 15.4142 14.0808C15.0391 14.4559 14.5304 14.6666 14 14.6666V15.3333C14 15.5101 13.9298 15.6797 13.8047 15.8047C13.6797 15.9297 13.5101 16 13.3333 16C13.1565 16 12.987 15.9297 12.8619 15.8047C12.7369 15.6797 12.6667 15.5101 12.6667 15.3333V14.6666C10.6667 14.6666 10.0533 12 11.3333 12C11.5101 12 11.6797 12.0702 11.8047 12.1952C11.9298 12.3202 12 12.4898 12 12.6666C12 12.8434 12.0702 13.013 12.1953 13.138C12.3203 13.2631 12.4899 13.3333 12.6667 13.3333H14C14.1768 13.3333 14.3464 13.2631 14.4714 13.138C14.5964 13.013 14.6667 12.8434 14.6667 12.6666V12C14.6667 11.8231 14.5964 11.6536 14.4714 11.5286C14.3464 11.4035 14.1768 11.3333 14 11.3333ZM20.6667 28H6C5.82319 28 5.65362 27.9297 5.5286 27.8047C5.40357 27.6797 5.33333 27.5101 5.33333 27.3333C5.33333 27.1565 5.40357 26.9869 5.5286 26.8619C5.65362 26.7369 5.82319 26.6666 6 26.6666H20.6667C20.8435 26.6666 21.013 26.7369 21.1381 26.8619C21.2631 26.9869 21.3333 27.1565 21.3333 27.3333C21.3333 27.5101 21.2631 27.6797 21.1381 27.8047C21.013 27.9297 20.8435 28 20.6667 28ZM20.6667 24.6666H6C5.82319 24.6666 5.65362 24.5964 5.5286 24.4714C5.40357 24.3463 5.33333 24.1768 5.33333 24C5.33333 23.8231 5.40357 23.6536 5.5286 23.5286C5.65362 23.4035 5.82319 23.3333 6 23.3333H20.6667C20.8435 23.3333 21.013 23.4035 21.1381 23.5286C21.2631 23.6536 21.3333 23.8231 21.3333 24C21.3333 24.1768 21.2631 24.3463 21.1381 24.4714C21.013 24.5964 20.8435 24.6666 20.6667 24.6666ZM20.6667 21.3333H6C5.82319 21.3333 5.65362 21.2631 5.5286 21.138C5.40357 21.013 5.33333 20.8434 5.33333 20.6666C5.33333 20.4898 5.40357 20.3202 5.5286 20.1952C5.65362 20.0702 5.82319 20 6 20H20.6667C20.8435 20 21.013 20.0702 21.1381 20.1952C21.2631 20.3202 21.3333 20.4898 21.3333 20.6666C21.3333 20.8434 21.2631 21.013 21.1381 21.138C21.013 21.2631 20.8435 21.3333 20.6667 21.3333Z" fill="url(#paint0_linear_397_6268)"/>
    <path d="M28 2C27.4696 2 26.9609 2.21071 26.5858 2.58579C26.2107 2.96086 26 3.46957 26 4V6H30V4C30 3.46957 29.7893 2.96086 29.4142 2.58579C29.0391 2.21071 28.5304 2 28 2Z" fill="#BC2A45"/>
</svg>
