<svg width="24" height="24" viewBox="0 0 24 24" fill="none" xmlns="http://www.w3.org/2000/svg">
<defs>
<linearGradient id="paint0_linear_515_3699" x1="19.5" y1="12" x2="4.5" y2="12" gradientUnits="userSpaceOnUse">
<stop stop-color="#EA1E5B"/>
<stop offset="1" stop-color="#F5932F"/>
</linearGradient>
</defs>
<path d="M19.0833 9.5H17.8333V7.83332C17.8333 4.6168 15.2166 2 12 2C8.78344 2 6.16668 4.6168 6.16668 7.83332V9.5H4.91668C4.68637 9.5 4.5 9.68637 4.5 9.91668V20.3334C4.5 21.2525 5.24746 22 6.16668 22H17.8334C18.7525 22 19.5 21.2525 19.5 20.3333V9.91668C19.5 9.68637 19.3136 9.5 19.0833 9.5ZM13.2476 18.204C13.2606 18.3216 13.2228 18.4396 13.1438 18.5279C13.0649 18.6162 12.9518 18.6667 12.8334 18.6667H11.1667C11.0483 18.6667 10.9352 18.6162 10.8562 18.5279C10.7773 18.4396 10.7394 18.3216 10.7525 18.204L11.0153 15.8404C10.5885 15.5299 10.3334 15.0387 10.3334 14.5C10.3334 13.5808 11.0808 12.8333 12 12.8333C12.9193 12.8333 13.6667 13.5808 13.6667 14.5C13.6667 15.0387 13.4116 15.5299 12.9848 15.8404L13.2476 18.204ZM15.3333 9.5H8.66668V7.83332C8.66668 5.99535 10.162 4.5 12 4.5C13.838 4.5 15.3333 5.99535 15.3333 7.83332V9.5Z" fill="url(#paint0_linear_515_3699)"/>
</svg>
