<svg width="22" height="18" viewBox="0 0 22 18" fill="none" xmlns="http://www.w3.org/2000/svg">
    <defs>
        <linearGradient id="paint0_linear_1087_5418" x1="9.00299" y1="9.00001" x2="3.44295e-08" y2="9.00001" gradientUnits="userSpaceOnUse">
            <stop stop-color="#EA1E5B"/>
            <stop offset="1" stop-color="#F5932F"/>
        </linearGradient>
        <linearGradient id="paint1_linear_1087_5418" x1="22" y1="9.00005" x2="5.3877" y2="9.00005" gradientUnits="userSpaceOnUse">
            <stop stop-color="#EA1E5B"/>
            <stop offset="1" stop-color="#F5932F"/>
        </linearGradient>
    </defs>
    <path d="M8.97964 16.6326C8.95153 16.5578 8.94185 16.4942 8.95138 16.4427C8.96086 16.3916 8.92818 16.3493 8.85324 16.3166C8.7783 16.284 8.7409 16.2581 8.7409 16.2396C8.7409 16.2209 8.68719 16.2068 8.57952 16.1976C8.47189 16.1882 8.41818 16.1834 8.41818 16.1834H8.23586H8.08155H4.04073C3.42339 16.1834 2.89486 15.9638 2.45518 15.5239C2.0156 15.0843 1.79583 14.5559 1.79583 13.9387V4.06103C1.79583 3.4437 2.01555 2.91537 2.45518 2.47573C2.89486 2.03605 3.42339 1.81614 4.04073 1.81614H8.53047C8.6521 1.81614 8.74773 1.78596 8.81806 1.72503C8.88808 1.66424 8.93477 1.57298 8.95826 1.4514C8.98165 1.32982 8.99576 1.22004 9.00047 1.1218C9.00509 1.02366 9.00283 0.899624 8.9934 0.749984C8.98411 0.600393 8.97944 0.506875 8.97944 0.46928C8.97944 0.347701 8.93497 0.242683 8.84617 0.153636C8.75727 0.0649821 8.6521 0.0205078 8.53052 0.0205078H4.04073C2.92774 0.0205078 1.97594 0.415714 1.18547 1.20608C0.395207 1.99644 0 2.94809 0 4.06118V13.9386C0 15.0516 0.395207 16.0035 1.18547 16.7936C1.97594 17.5843 2.92774 17.9795 4.04073 17.9795H8.53067C8.6523 17.9795 8.74798 17.949 8.81825 17.8884C8.88828 17.8275 8.93497 17.7364 8.95846 17.6146C8.98185 17.4932 8.99595 17.3829 9.00067 17.285C9.00529 17.1868 9.00303 17.063 8.99359 16.9134C8.98421 16.7636 8.97964 16.6701 8.97964 16.6326Z" fill="url(#paint0_linear_1087_5418)"/>
    <path d="M21.7334 8.36861L14.1008 0.735789C13.9232 0.558285 13.7127 0.469238 13.4695 0.469238C13.2263 0.469238 13.0158 0.558285 12.838 0.735789C12.6602 0.913539 12.5714 1.12421 12.5714 1.36728V5.4081H6.28573C6.04238 5.4081 5.832 5.49715 5.65425 5.67465C5.4765 5.8524 5.3877 6.06293 5.3877 6.30614V11.694C5.3877 11.9371 5.4765 12.1477 5.65425 12.3253C5.83219 12.5027 6.04252 12.592 6.28573 12.592H12.5715V16.6328C12.5715 16.8758 12.6603 17.0865 12.838 17.2641C13.0158 17.4419 13.2263 17.5309 13.4695 17.5309C13.7127 17.5309 13.9232 17.4419 14.1009 17.2641L21.7334 9.63164C21.9112 9.45374 22 9.2435 22 9.00025C22 8.75709 21.9112 8.54636 21.7334 8.36861Z" fill="url(#paint1_linear_1087_5418)"/>
</svg>
