<svg xmlns="http://www.w3.org/2000/svg" width="91" height="40" fill="none">
    <defs>
        <linearGradient id="b" x1="79.684" x2="79.823" y1="38.698" y2="22.521" gradientUnits="userSpaceOnUse">
            <stop stop-color="#F6F6F6"/>
            <stop offset=".478" stop-color="#EAEAEA"/>
            <stop offset="1" stop-color="#DADADA"/>
        </linearGradient>
        <linearGradient id="c" x1="79.201" x2="75.391" y1="24.551" y2="26.237" gradientUnits="userSpaceOnUse">
            <stop stop-color="#BDBCBC"/>
            <stop offset="1" stop-color="#D0D0D0"/>
        </linearGradient>
        <linearGradient id="d" x1="84.2" x2="63.258" y1="23.538" y2="3.99" gradientUnits="userSpaceOnUse">
            <stop stop-color="#FAFAFA"/>
            <stop offset="1" stop-color="#E9E9E9"/>
        </linearGradient>
        <clipPath id="a">
            <path fill="#fff" d="M0 0h90.314v40H0z"/>
        </clipPath>
    </defs>
    <g clip-path="url(#a)">
        <path fill="#fff"
              d="M13.01 18.293c0-3.055-1.977-5.14-5.427-5.14-3.99 0-7.583 3.127-7.583 7.8 0 4.06 2.552 5.822 5.894 5.822 2.336 0 4.42-.575 6.038-1.654l-1.366-2.767c-1.186.719-2.3 1.258-3.702 1.258-1.33 0-2.551-.503-2.695-2.444h8.374c.143-.467.467-1.725.467-2.875Zm-5.535-1.977c1.043 0 1.725.611 1.725 1.905 0 .108 0 .216-.036.323h-4.6c.647-1.545 1.94-2.228 2.911-2.228ZM17.179 9.56h5.463c3.342 0 6.073 1.258 6.073 4.636 0 4.96-3.701 6.756-7.906 6.756h-1.761l-1.114 5.499H13.8L17.18 9.56Zm3.881 8.122c2.193 0 3.45-1.006 3.45-2.875 0-1.366-.898-1.977-2.515-1.977h-1.33l-.934 4.852h1.33ZM28.284 21.743c0-4.78 3.342-8.59 6.936-8.59 1.653 0 2.875.612 3.45 1.618h.108l.575-1.294h3.342l-2.587 13.01h-3.45v-1.725h-.108c-1.186 1.294-2.696 2.012-4.097 2.012-2.552 0-4.17-1.796-4.17-5.03Zm8.59-.144.862-4.06c-.36-.684-1.186-1.007-1.725-1.007-1.761 0-3.379 1.94-3.379 4.672 0 1.545.576 2.192 1.474 2.192.79 0 1.905-.503 2.767-1.797ZM42.695 24.403l2.265-2.588c1.365 1.366 2.947 1.94 4.456 1.94 1.006 0 1.51-.25 1.51-.718 0-.575-.432-.827-2.229-1.402-2.587-.826-4.097-2.012-4.097-4.06 0-2.876 2.696-4.385 5.715-4.385 2.551 0 4.276.898 5.498 2.12l-2.264 2.408c-1.042-.827-2.408-1.474-3.738-1.474-.79 0-1.365.252-1.365.791 0 .503.575.79 2.551 1.474 2.3.79 3.81 1.832 3.81 3.953 0 2.983-2.66 4.384-6.074 4.384-2.48-.072-4.564-1.006-6.038-2.443ZM55.705 24.403l2.264-2.588c1.366 1.366 2.947 1.94 4.457 1.94 1.006 0 1.51-.25 1.51-.718 0-.575-.432-.827-2.229-1.402-2.587-.826-4.097-2.012-4.097-4.06 0-2.876 2.696-4.385 5.714-4.385 2.552 0 4.277.898 5.499 2.12l-2.264 2.408c-1.042-.827-2.408-1.474-3.738-1.474-.79 0-1.365.252-1.365.791 0 .503.575.79 2.551 1.474 2.3.79 3.81 1.832 3.81 3.953 0 2.983-2.66 4.384-6.074 4.384-2.48-.072-4.564-1.006-6.038-2.443Z"/>
        <path fill="url(#b)"
              d="M69.757 39.82s-.61-4.384-.503-4.887l10.387-25.05c.251-.251.682-.251.97 0l9.524 9.488c.251.252.251.683 0 .97L70.728 39.856c-.288.216-.719.216-.97-.036Z"/>
        <path fill="url(#c)" d="m80.755 29.686-.79.826c-.504-.503-6.254-6.325-6.254-6.325l1.76-4.277 5.284 9.776Z"
              opacity=".7"/>
        <path fill="url(#d)"
              d="M69.937.216s-.934 4.24-.826 4.744l10.853 25.552c.072-.072.395-.431.683-.683l9.488-9.523c.251-.252.251-.683 0-.97L70.872.18a.642.642 0 0 0-.935.036Z"/>
        <path fill="#fff"
              d="M86.864 16.1s.683 1.33.324 2.876c-.324 1.437-1.761 3.81-3.055 5.606-3.055 4.277-4.169 5.894-4.169 5.894L90.1 20.27s.467-.468 0-.97c-.467-.468-3.235-3.2-3.235-3.2Z"
              opacity=".3"/>
    </g>
</svg>