<svg width="20" height="20" viewBox="0 0 20 20" fill="none" xmlns="http://www.w3.org/2000/svg">
    <defs>
        <clipPath id="clip0_1329_11426">
            <rect width="18.3333" height="18.3333" fill="white" transform="translate(0.833008 0.833496)"/>
        </clipPath>
    </defs>
    <g clip-path="url(#clip0_1329_11426)">
        <path fill-rule="evenodd" clip-rule="evenodd" d="M11.1459 4.84366C11.1459 2.63234 12.9447 0.833496 15.156 0.833496C17.3674 0.833496 19.1662 2.63234 19.1662 4.84366C19.1662 6.90145 15.9489 10.5461 15.5823 10.9552C15.4734 11.0755 15.3187 11.1454 15.156 11.1454C14.9933 11.1454 14.8387 11.0755 14.7298 10.9552C14.3632 10.5461 11.1459 6.90145 11.1459 4.84366ZM12.2916 4.84366C12.2916 5.93672 13.9049 8.21449 15.156 9.69825C16.4072 8.21449 18.0204 5.93557 18.0204 4.84366C18.0204 3.2648 16.7349 1.97926 15.156 1.97926C13.5772 1.97926 12.2916 3.2648 12.2916 4.84366ZM15.156 3.12496C14.2084 3.12496 13.4373 3.89606 13.4373 4.8436C13.4373 5.79115 14.2084 6.56224 15.156 6.56224C16.1035 6.56224 16.8746 5.79115 16.8746 4.8436C16.8746 3.89606 16.1035 3.12496 15.156 3.12496ZM15.156 5.41648C14.8397 5.41648 14.5831 5.15983 14.5831 4.8436C14.5831 4.52737 14.8397 4.27072 15.156 4.27072C15.4722 4.27072 15.7289 4.52737 15.7289 4.8436C15.7289 5.15983 15.4722 5.41648 15.156 5.41648ZM18.5933 8.85392C18.2771 8.85392 18.0204 9.11057 18.0204 9.4268V15.9141L13.4374 17.7473V11.7183C13.4374 11.4021 13.1807 11.1454 12.8645 11.1454C12.5483 11.1454 12.2916 11.4021 12.2916 11.7183V17.7462L7.70855 15.913V6.83623L10.3633 7.89835C10.6532 8.01522 10.99 7.87314 11.108 7.57868C11.226 7.28537 11.0828 6.95195 10.7884 6.83393L7.3591 5.46131H7.35795L7.34879 5.45787C7.21244 5.40288 7.06005 5.40288 6.92371 5.45787L6.9134 5.46131H6.91225L1.19375 7.7494C0.977205 7.83648 0.833984 8.04615 0.833984 8.28103V18.5929C0.833984 18.7831 0.929083 18.9607 1.08605 19.0672C1.1823 19.1326 1.29343 19.1658 1.40687 19.1658C1.47905 19.1658 1.55123 19.152 1.61998 19.1245L7.13567 16.9189L12.6411 19.1211H12.6422L12.6525 19.1257C12.7889 19.1807 12.9412 19.1807 13.0776 19.1257L13.0879 19.1211H13.0891L18.8075 16.8342C19.023 16.7459 19.1662 16.5363 19.1662 16.3014V9.4268C19.1662 9.11057 18.9095 8.85392 18.5933 8.85392ZM6.56279 15.913L1.97975 17.7462V8.6683L6.56279 6.83508V15.913Z" fill="#0065ED"/>
    </g>

</svg>
