<svg width="24" height="24" viewBox="0 0 24 24" fill="none" xmlns="http://www.w3.org/2000/svg">
    <defs>
        <radialGradient id="paint0_radial_332_2780" cx="0" cy="0" r="1" gradientUnits="userSpaceOnUse"
                        gradientTransform="translate(5.23672 22.7329) scale(23.9594 23.9593)">
            <stop stop-color="#0099FF"/>
            <stop offset="0.6098" stop-color="#A033FF"/>
            <stop offset="0.9348" stop-color="#FF5280"/>
            <stop offset="1" stop-color="#FF7061"/>
        </radialGradient>
    </defs>
    <path fill-rule="evenodd" clip-rule="evenodd"
          d="M12 1C5.80335 1 1 5.53905 1 11.67C1 14.8769 2.31429 17.648 4.4546 19.5621C4.6343 19.7229 4.74275 19.9482 4.7501 20.1893L4.81 22.146C4.82912 22.7701 5.47382 23.1762 6.04496 22.9241L8.22829 21.9602C8.41336 21.8786 8.62077 21.8634 8.8158 21.9171C9.81912 22.193 10.8869 22.34 12 22.34C18.1966 22.34 23 17.8009 23 11.67C23 5.539 18.1966 1 12 1V1Z"
          fill="url(#paint0_radial_332_2780)"/>
    <path fill-rule="evenodd" clip-rule="evenodd"
          d="M5.3945 14.7904L8.62575 9.66395C9.13974 8.8484 10.2404 8.64533 11.0116 9.22373L13.5815 11.1512C13.8174 11.3281 14.1418 11.3271 14.3766 11.1489L17.8475 8.51479C18.3108 8.16322 18.9155 8.71765 18.6055 9.20964L15.3742 14.3361C14.8602 15.1516 13.7595 15.3547 12.9884 14.7763L10.4183 12.8487C10.1825 12.6719 9.85809 12.6729 9.62331 12.8511L6.15242 15.4852C5.68913 15.8368 5.08439 15.2824 5.3945 14.7904Z"
          fill="white"/>

</svg>
