<svg width="50" height="50" viewBox="0 0 50 50" fill="none" xmlns="http://www.w3.org/2000/svg">
<path fill-rule="evenodd" clip-rule="evenodd" d="M25 49.0002C38.2548 49.0002 49 38.2551 49 25.0002C49 11.7454 38.2548 1.00024 25 1.00024C11.7452 1.00024 1 11.7454 1 25.0002C1 38.2551 11.7452 49.0002 25 49.0002Z" fill="white" stroke="#E9E9E9"/>
<path d="M31.6361 25.95C30.8835 31.3798 30.0781 36.7964 30.0781 36.7964C30.0781 36.7964 29.4047 41.6303 25.4702 41.8687C21.3244 42.1203 14.8548 42.2792 13.4685 41.127C14.2343 42.6765 16.558 42.8884 16.558 42.8884C16.558 42.8884 20.5586 43.14 25.8399 42.8884C30.3554 42.6633 31.0815 37.1805 31.0815 37.1805C31.0815 37.1805 31.6361 33.0088 32.2962 27.473C32.3358 26.5195 31.8737 26.0559 31.6361 25.95Z" fill="#7A7A7A"/>
<path d="M24.2687 40.8489C28.4277 40.8489 28.9558 35.6707 28.9558 35.6707C28.9558 35.6707 29.6556 30.8104 30.3818 25.5792C30.4054 25.4344 30.3773 25.2859 30.3024 25.1599C30.2275 25.0339 30.1107 24.9385 29.9725 24.8905C28.0316 24.2151 20.5322 22.1094 13.5873 26.3473C13.2741 26.5405 12.9858 26.7718 12.7291 27.036C12.5791 27.2257 12.4752 27.4479 12.4255 27.6849L11.2504 35.7899C11.0127 38.1605 11.6465 39.4451 12.4915 40.094C14.023 41.286 20.0965 40.8489 24.2687 40.8489ZM23.8726 30.3601L23.965 29.8701C24.031 29.4728 24.3743 29.1549 24.7176 29.1549L26.5264 29.1152C26.8829 29.1152 27.1074 29.4198 27.0282 29.8038L26.9357 30.2939C26.9032 30.4782 26.8125 30.6472 26.677 30.7759C26.5415 30.9046 26.3684 30.9864 26.1832 31.009L24.3743 31.0487C24.031 31.0487 23.8066 30.7441 23.8726 30.3601ZM23.3313 33.2869L23.4237 32.7969C23.4897 32.4128 23.833 32.0817 24.1763 32.0817L25.9851 32.042C26.3416 32.042 26.5529 32.3466 26.4868 32.7307L26.3944 33.2207C26.3284 33.6047 25.9851 33.9358 25.6418 33.9358L23.833 33.9755C23.4765 33.9755 23.2653 33.6709 23.3313 33.2869ZM22.7899 36.2137L22.8824 35.7237C22.9149 35.5394 23.0056 35.3704 23.1411 35.2417C23.2766 35.1129 23.4497 35.0312 23.635 35.0085L25.4438 34.9821C25.8003 34.9688 26.0115 35.2734 25.9455 35.6575L25.8531 36.1607C25.7871 36.5448 25.4438 36.8626 25.1005 36.8626L23.2917 36.9024C22.9352 36.9024 22.7239 36.5978 22.7899 36.2137ZM19.5288 30.4395L19.6212 29.9495C19.6537 29.7652 19.7444 29.5962 19.8799 29.4675C20.0154 29.3387 20.1885 29.257 20.3738 29.2344L22.1826 29.1946C22.5391 29.1946 22.7503 29.4992 22.6843 29.8833L22.5919 30.3733C22.5259 30.7706 22.1826 31.0885 21.8393 31.0885L20.0305 31.1282C19.674 31.1282 19.4628 30.8236 19.5288 30.4395ZM18.9874 33.3663L19.0799 32.8763C19.1124 32.692 19.2031 32.523 19.3386 32.3943C19.4741 32.2656 19.6472 32.1838 19.8324 32.1612L21.6413 32.1347C21.9978 32.1215 22.209 32.4261 22.143 32.8234L22.0506 33.3134C21.9846 33.6974 21.6413 34.0153 21.298 34.0153L19.4892 34.055C19.1327 34.0683 18.9214 33.7504 18.9874 33.3663ZM18.4461 36.2932L18.5385 35.8032C18.6045 35.4191 18.9478 35.1012 19.2911 35.1012L21.0999 35.0615C21.4432 35.0483 21.6677 35.3661 21.6017 35.7502L21.5092 36.2402C21.4767 36.4245 21.386 36.5935 21.2505 36.7222C21.115 36.851 20.9419 36.9327 20.7567 36.9553L18.9478 36.9818C18.5913 36.9951 18.3669 36.6905 18.4461 36.2932ZM17.2578 35.8296L17.1654 36.3196C17.0862 36.7169 16.7561 37.0348 16.4128 37.0348L14.5908 37.0745C14.2475 37.0745 14.023 36.7699 14.1023 36.3859L14.1947 35.8959C14.2272 35.7115 14.3179 35.5426 14.4534 35.4138C14.5889 35.2851 14.762 35.2034 14.9473 35.1807L16.7561 35.141C17.0994 35.141 17.3238 35.4456 17.2578 35.8296ZM17.7992 32.9028L17.7067 33.3928C17.6742 33.5772 17.5835 33.7461 17.448 33.8749C17.3125 34.0036 17.1394 34.0853 16.9541 34.108L15.1453 34.1477C14.7888 34.1477 14.5644 33.8431 14.6436 33.4591L14.736 32.969C14.802 32.5717 15.1453 32.2539 15.4886 32.2539L17.2974 32.2142C17.6407 32.2142 17.8652 32.5188 17.7992 32.9028ZM17.4955 31.1812L15.6866 31.2077C15.3302 31.2209 15.1189 30.9163 15.1849 30.519L15.2773 30.029C15.3434 29.6449 15.6866 29.3271 16.0299 29.3271L17.8388 29.2874C18.1952 29.2741 18.4065 29.592 18.3405 29.976L18.2481 30.466C18.2155 30.6503 18.1248 30.8193 17.9893 30.9481C17.8538 31.0768 17.6807 31.1585 17.4955 31.1812Z" fill="#7A7A7A"/>
<path d="M38.3301 12.6138L37.7095 12.3224L36.2308 23.5927C36.2308 23.5927 35.9667 26.0692 33.1412 25.46C33.1412 25.46 34.2899 26.387 35.2934 26.4533C37.221 26.5857 37.4455 24.1489 37.4455 24.1489C37.5247 23.5 38.7394 13.8719 38.7394 13.8719L38.7922 13.5011C38.7922 13.5011 38.8978 12.8389 38.3301 12.6138Z" fill="#EE0033"/>
<path d="M30.9098 21.9504C31.6756 22.0829 32.3886 21.4869 32.481 20.6923L33.9862 8.65398C34.0139 8.45707 34.0007 8.25655 33.9475 8.06498C33.8943 7.87342 33.8022 7.69495 33.677 7.54077C33.5518 7.38658 33.3961 7.26001 33.2199 7.16898C33.0436 7.07795 32.8505 7.02444 32.6527 7.01179C29.4311 6.85287 21.5488 8.30965 15.4225 12.9184C14.7875 13.4167 14.3707 14.1435 14.2606 14.9446L12.597 26.5459C12.597 26.5459 18.9742 20.0566 30.9098 21.9504ZM25.1136 18.8912C24.6 18.6388 24.1936 18.2101 23.9683 17.6827C23.743 17.1554 23.7137 16.5645 23.8858 16.0174C24.0603 15.4457 24.4061 14.9417 24.876 14.5738C25.3637 14.1939 25.9507 13.9639 26.566 13.9117C27.1642 13.8551 27.7649 13.9895 28.2824 14.2957L28.454 14.4149L28.6257 13.0906L27.5166 13.0243C27.4063 13.02 27.302 12.9724 27.2262 12.8919C27.1917 12.8523 27.1657 12.806 27.1498 12.7558C27.1339 12.7057 27.1284 12.6529 27.1337 12.6005C27.1535 12.4856 27.2146 12.382 27.3054 12.3092C27.3966 12.2413 27.509 12.2084 27.6222 12.2165L28.7313 12.2695L28.8369 11.5543C28.8454 11.4711 28.8709 11.3905 28.9118 11.3176C28.9527 11.2447 29.0081 11.181 29.0746 11.1305C29.2108 11.0161 29.3859 10.9592 29.5631 10.9716C29.6463 10.9751 29.728 10.9957 29.8029 11.0321C29.8779 11.0686 29.9446 11.1201 29.9988 11.1835C30.0535 11.2412 30.0948 11.3103 30.1199 11.3858C30.145 11.4613 30.1533 11.5415 30.1441 11.6205L29.4707 16.7458C29.4575 16.7458 29.4575 16.7458 29.4575 16.759C29.4349 16.9205 29.3996 17.0799 29.3519 17.2358C29.1641 17.7573 28.8292 18.2128 28.388 18.5469C27.945 18.906 27.4092 19.1311 26.8433 19.1958C26.2491 19.2784 25.6442 19.1718 25.1136 18.8912Z" fill="#EE0033"/>
<path d="M27.7939 17.4212C27.9918 17.2033 28.1205 16.9313 28.1636 16.6398C28.1845 16.455 28.1672 16.2679 28.1126 16.0901C28.0581 15.9124 27.9676 15.7478 27.8467 15.6068C27.5777 15.3204 27.2087 15.1496 26.8169 15.13C26.5138 15.1153 26.2124 15.184 25.9455 15.3287C25.6712 15.4583 25.4448 15.6715 25.2985 15.9379C25.1421 16.1814 25.0723 16.4707 25.1005 16.759C25.1248 17.0377 25.2356 17.3017 25.4173 17.5139C25.6158 17.729 25.8729 17.881 26.1567 17.9509C26.4519 18.0163 26.7592 18.0017 27.0469 17.9086C27.3346 17.8155 27.5924 17.6473 27.7939 17.4212Z" fill="#EE0033"/>
<path d="M35.8611 9.687L35.201 9.52808L33.8014 21.6194C33.6826 22.5729 33.2601 23.5 31.5833 23.1689C30.976 23.0497 30.263 22.904 29.4312 22.7981H29.4048C27.3816 22.5488 25.3341 22.5756 23.3181 22.8775C22.5058 22.9786 21.7024 23.1424 20.9152 23.3675C24.8761 22.9437 27.794 23.3543 29.7349 23.8708L30.7779 24.2284H30.8043L30.9892 24.2946C31.6493 24.5462 33.775 25.1686 34.62 23.6721C34.7762 23.3501 34.883 23.0063 34.9369 22.6524L36.4421 11.3689C36.5345 10.4949 36.6401 10.0181 35.8611 9.687Z" fill="#EE0033"/>
</svg>
