<svg width="24" height="24" viewBox="0 0 24 24" fill="none" xmlns="http://www.w3.org/2000/svg">
    <defs>
        <clipPath id="clip0_1329_16877">
            <rect width="24" height="24" fill="white"/>
        </clipPath>
    </defs>
    <g clip-path="url(#clip0_1329_16877)">
        <path d="M23.9876 10.8919L19.6048 10.1754L19.7172 11.1027C19.984 13.4627 19.1833 15.7806 17.5115 17.4524C15.9943 18.9555 13.9809 19.761 12.0001 19.761C10.2441 19.761 8.44143 19.1241 7.00845 17.9299L8.94698 15.9914L0.672852 14.6148L2.04962 22.9358L4.01616 20.955C6.20774 22.9076 9.05007 23.9753 12.0001 23.9753C15.189 23.9753 18.228 22.7392 20.4897 20.4775C22.8497 18.1172 24.1421 14.8629 23.9877 11.5196V10.8919H23.9876Z" fill="#A29FDE"/>
        <path d="M23.3272 9.36069L21.9506 1.03967L19.9839 3.02031C17.7925 1.06768 14.9499 0 11.9999 0C8.81099 0 5.772 1.23632 3.51029 3.49803C1.15025 5.85807 -0.142102 9.17813 0.012438 12.5214V13.0834L4.39542 13.7997L4.28299 12.8726C4.01602 10.5126 4.81674 8.19467 6.48849 6.52293C8.0057 5.01982 10.0191 4.21434 11.9999 4.21434C13.7559 4.21434 15.5588 4.85118 16.9916 6.04521L15.053 7.98392L23.3272 9.36069Z" fill="#A29FDE"/>
        <path d="M11.9998 11.2853C11.6123 11.2853 11.2974 10.9704 11.2974 10.583C11.2974 10.1953 11.6123 9.88056 11.9998 9.88056C12.3874 9.88056 12.7021 10.1953 12.7021 10.583H14.1069C14.1069 9.66834 13.5181 8.896 12.7021 8.60504V7.0708H11.2974V8.60504C10.4816 8.896 9.89258 9.66834 9.89258 10.583C9.89258 11.7448 10.8378 12.6901 11.9998 12.6901C12.3874 12.6901 12.7021 13.0049 12.7021 13.3925C12.7021 13.78 12.3874 14.0949 11.9998 14.0949C11.6123 14.0949 11.2974 13.78 11.2974 13.3925H9.89258C9.89258 14.307 10.4816 15.0793 11.2974 15.3703V16.9045H12.7021V15.3703C13.5181 15.0793 14.1069 14.307 14.1069 13.3925C14.1069 12.2305 13.1617 11.2853 11.9998 11.2853Z" fill="#FFDA2D"/>
        <path d="M23.9875 11.5194C24.142 14.8629 22.8497 18.1172 20.4897 20.4773C18.2279 22.739 15.189 23.9753 12 23.9753V19.761C13.9808 19.761 15.9942 18.9555 17.5115 17.4524C19.1832 15.7806 19.9839 13.4627 19.717 11.1027L19.6045 10.1754L23.9875 10.8919V11.5194Z" fill="#767ECE"/>
        <path d="M15.0531 7.98395L16.9918 6.04523C15.5588 4.8512 13.756 4.21436 12 4.21436V0C14.95 0 17.7925 1.06769 19.9839 3.02032L21.9507 1.03967L23.3273 9.36072L15.0531 7.98395Z" fill="#767ECE"/>
        <path d="M12 7.0708V9.88055C12.3876 9.88055 12.7024 10.1953 12.7024 10.5829H14.1072C14.1072 9.66833 13.5183 8.896 12.7024 8.60504V7.0708H12Z" fill="#FDBF00"/>
        <path d="M12.7024 15.3702C13.5183 15.0793 14.1072 14.3069 14.1072 13.3923C14.1072 12.2305 13.162 11.2852 12 11.2852V12.6899C12.3876 12.6899 12.7024 13.0049 12.7024 13.3923C12.7024 13.78 12.3876 14.0947 12 14.0947V16.9043H12.7024V15.3702Z" fill="#FDBF00"/>
    </g>

</svg>
