<svg width="32" height="32" viewBox="0 0 32 32" fill="none" xmlns="http://www.w3.org/2000/svg">
<defs>
<linearGradient id="paint0_linear_141_1074" x1="25.7226" y1="16" x2="2" y2="16" gradientUnits="userSpaceOnUse">
<stop stop-color="#EA1E5B"/>
<stop offset="1" stop-color="#F5932F"/>
</linearGradient>
</defs>
<path d="M28.3674 18.1175C25.654 15.3993 21.2508 15.3954 18.5326 18.1088C17.5151 19.1245 16.8374 20.4305 16.5928 21.8472L16.1649 21.4193C15.9546 21.2091 15.6137 21.2091 15.4035 21.4193C15.1932 21.6296 15.1932 21.9705 15.4035 22.1808L16.6425 23.4198C16.8533 23.6295 17.1938 23.6295 17.4046 23.4198L18.6439 22.1808C18.8542 21.9705 18.8542 21.6296 18.6439 21.4193C18.4337 21.2091 18.0927 21.2091 17.8825 21.4193L17.7602 21.5416C18.5902 18.4029 21.8076 16.5313 24.9463 17.3613C28.085 18.1914 29.9565 21.4088 29.1265 24.5474C28.2964 27.6861 25.0791 29.5577 21.9404 28.7277C20.9359 28.462 20.0197 27.9348 19.2852 27.1998C19.075 26.9896 18.734 26.9896 18.5238 27.1998C18.3135 27.4101 18.3135 27.751 18.5238 27.9613C21.2436 30.678 25.6507 30.6754 28.3674 27.9556C31.082 25.238 31.0819 20.8351 28.3674 18.1175V18.1175Z" fill="#BC2A45"/>
<path d="M23.4457 18.3773C23.1484 18.3773 22.9073 18.6182 22.9073 18.9155V18.9158V23.0394C22.9081 23.1823 22.9649 23.3192 23.0655 23.4207L25.0169 25.3721C25.2286 25.5809 25.5695 25.5788 25.7783 25.3671C25.9853 25.1574 25.9853 24.8203 25.7783 24.6107L23.9842 22.8165V18.9158C23.9842 18.6185 23.7433 18.3774 23.446 18.3773C23.4459 18.3773 23.4458 18.3773 23.4457 18.3773Z" fill="#BC2A45"/>
<path d="M14.9539 24.1726C14.9383 24.0554 14.8845 23.9465 14.8009 23.8629L14.2611 23.3229C13.5906 22.6601 13.4372 21.6345 13.8846 20.8046H9.10046C8.80309 20.8046 8.56199 20.5635 8.56199 20.2662C8.56199 19.9688 8.80309 19.7277 9.10046 19.7277H15.2342C15.2625 19.7204 15.2893 19.7093 15.318 19.703C15.481 19.6671 15.6182 19.5576 15.6893 19.4064C16.0809 18.5785 16.6026 17.8187 17.2347 17.1558H9.10046C8.80309 17.1558 8.56199 16.9147 8.56199 16.6173C8.56199 16.32 8.80309 16.0789 9.10046 16.0789H18.4674C19.9171 15.0332 21.6582 14.4683 23.4457 14.4635C23.9948 14.4635 24.5427 14.5158 25.0819 14.6197C25.2396 14.6511 25.4031 14.6095 25.5267 14.5066C25.6507 14.4043 25.7226 14.252 25.7226 14.0912V2.53846C25.7226 2.24116 25.4817 2.00007 25.1844 2C25.1843 2 25.1842 2 25.1841 2H5.36905C5.07175 1.99993 4.83066 2.24089 4.83059 2.53819V2.53846V22.6277C4.83719 25.0494 3.87475 27.373 2.15774 29.0808C1.94747 29.2911 1.9474 29.632 2.15767 29.8423C2.25863 29.9433 2.3956 30.0001 2.53843 30H16.9859C17.2833 29.9999 17.5243 29.7588 17.5243 29.4615C17.5243 29.3193 17.4679 29.1828 17.3677 29.0819C16.0509 27.7513 15.2035 26.0279 14.9539 24.1726V24.1726ZM9.10046 8.78233H21.4528C21.7501 8.78233 21.9912 9.02342 21.9912 9.32079C21.9912 9.61815 21.7501 9.85925 21.4528 9.85925H9.10046C8.80309 9.85925 8.56199 9.61815 8.56199 9.32079C8.56199 9.02342 8.80309 8.78233 9.10046 8.78233ZM9.10046 12.4306H21.4528C21.7501 12.4306 21.9912 12.6717 21.9912 12.9691C21.9912 13.2664 21.7501 13.5075 21.4528 13.5075H9.10046C8.80309 13.5075 8.56199 13.2664 8.56199 12.9691C8.56199 12.6717 8.80309 12.4306 9.10046 12.4306Z" fill="url(#paint0_linear_141_1074)"/>
</svg>
