<svg width="36" height="36" viewBox="0 0 36 36" fill="none" xmlns="http://www.w3.org/2000/svg">
    <defs>
        <linearGradient id="paint0_linear_370_5077" x1="33" y1="9.56249" x2="-0.75" y2="9.56249" gradientUnits="userSpaceOnUse">
            <stop stop-color="#EA1E5B" />
            <stop offset="1" stop-color="#F5932F" />
        </linearGradient>
        <linearGradient id="paint1_linear_370_5077" x1="33" y1="0.213764" x2="-0.75" y2="0.213764" gradientUnits="userSpaceOnUse">
            <stop stop-color="#EA1E5B" />
            <stop offset="1" stop-color="#F5932F" />
        </linearGradient>
    </defs>
    <path
        d="M1.8 31.9008V34.1994C1.8 34.6768 1.98964 35.1346 2.32721 35.4721C2.66477 35.8097 3.12261 35.9993 3.6 35.9993H5.4C5.87739 35.9993 6.33523 35.8097 6.67279 35.4721C7.01036 35.1346 7.2 34.6768 7.2 34.1994V32.3994H28.8V34.1994C28.8 34.6768 28.9896 35.1346 29.3272 35.4721C29.6648 35.8097 30.1226 35.9993 30.6 35.9993H32.4C32.8774 35.9993 33.3352 35.8097 33.6728 35.4721C34.0104 35.1346 34.2 34.6768 34.2 34.1994V31.9008C34.7461 31.5877 35.2 31.1361 35.516 30.5916C35.832 30.0472 35.999 29.429 36 28.7995V23.3996C36 21.9039 35.0874 20.6241 33.7896 20.0787L31.3272 12.6917C30.97 11.6162 30.2829 10.6806 29.3636 10.0179C28.4443 9.35516 27.3395 8.999 26.2062 9H9.7938C8.6605 8.999 7.55571 9.35516 6.63639 10.0179C5.71708 10.6806 5.03001 11.6162 4.6728 12.6917L2.2104 20.0787C1.55574 20.3529 0.996681 20.8144 0.603422 21.4052C0.210163 21.9961 0.000235192 22.6899 0 23.3996V28.7995C0 30.1279 0.7272 31.2763 1.8 31.9008ZM6.3 28.7995C5.94531 28.7994 5.59412 28.7294 5.26648 28.5936C4.93884 28.4577 4.64116 28.2587 4.39044 28.0078C3.88409 27.5012 3.59976 26.8141 3.6 26.0978C3.60024 25.3815 3.88503 24.6946 4.39171 24.1883C4.8984 23.6819 5.58548 23.3976 6.3018 23.3978C7.01812 23.3981 7.70501 23.6829 8.21136 24.1895C8.71771 24.6962 9.00204 25.3833 9.0018 26.0996C9.00156 26.8159 8.71677 27.5028 8.21009 28.0091C7.7034 28.5154 7.01632 28.7998 6.3 28.7995ZM29.7 28.7995C28.9837 28.7993 28.2968 28.5145 27.7904 28.0078C27.2841 27.5012 26.9998 26.8141 27 26.0978C27.0002 25.3815 27.285 24.6946 27.7917 24.1883C28.2984 23.6819 28.9855 23.3976 29.7018 23.3978C30.4181 23.3981 31.105 23.6829 31.6114 24.1895C32.1177 24.6962 32.402 25.3833 32.4018 26.0996C32.4016 26.8159 32.1168 27.5028 31.6101 28.0091C31.1034 28.5154 30.4163 28.7998 29.7 28.7995ZM9.7938 12.5999H26.2044C26.5823 12.5998 26.9507 12.7187 27.2573 12.9397C27.5639 13.1606 27.7932 13.4725 27.9126 13.8311L29.9034 19.7997H6.0966L8.0856 13.8311C8.3322 13.0949 9.0198 12.5999 9.7938 12.5999Z"
        fill="url(#paint0_linear_370_5077)" />
    <path d="M36 9.69907V5.90297L18.5688 0.092708C18.1836 -0.0362347 17.766 -0.0305232 17.3844 0.108907L0 6.43035V10.2607L18.027 3.70522L36 9.69907Z" fill="url(#paint1_linear_370_5077)" />
</svg>
