<svg width="24" height="24" viewBox="0 0 24 24" fill="none" xmlns="http://www.w3.org/2000/svg">
    <defs>
        <linearGradient id="paint0_linear_484_6699" x1="17.5" y1="11.9999" x2="2.5" y2="11.9999" gradientUnits="userSpaceOnUse">
            <stop stop-color="#EA1E5B" />
            <stop offset="1" stop-color="#F5932F" />
        </linearGradient>
        <linearGradient id="paint1_linear_484_6699" x1="15.1094" y1="17.5188" x2="12.1873" y2="17.5188" gradientUnits="userSpaceOnUse">
            <stop stop-color="#EA1E5B" />
            <stop offset="1" stop-color="#F5932F" />
        </linearGradient>
        <linearGradient id="paint2_linear_484_6699" x1="18.3321" y1="11.669" x2="9" y2="11.669" gradientUnits="userSpaceOnUse">
            <stop stop-color="#EA1E5B" />
            <stop offset="1" stop-color="#F5932F" />
        </linearGradient>
    </defs>
    <path
        d="M4.5 0.999908C3.40065 0.999908 2.5 1.90056 2.5 2.99991V20.9999C2.5 22.0993 3.40065 22.9999 4.5 22.9999H15.5C16.5994 22.9999 17.5 22.0993 17.5 20.9999V18.5106H10.6338C9.1835 18.5106 7.99024 17.3174 7.99024 15.8671V9.6337C7.99024 8.1834 9.18424 6.99112 10.6338 6.99112H17.5V2.99991C17.5 1.90056 16.5994 0.999908 15.5 0.999908H13.5V2.49991C13.5 3.32226 12.8224 3.99991 12 3.99991H8C7.17765 3.99991 6.5 3.32226 6.5 2.49991V0.999908H4.5ZM7.5 0.999908V2.49991C7.5 2.78556 7.71435 2.99991 8 2.99991H12C12.2857 2.99991 12.5 2.78556 12.5 2.49991V0.999908H7.5Z"
        fill="url(#paint0_linear_484_6699)" />
    <path d="M13.6509 18.1901C14.38 18.1933 15.0008 17.6217 15.1094 16.8474H12.1873C12.3043 17.6189 12.9232 18.1866 13.6509 18.1901Z" fill="url(#paint1_linear_484_6699)" />
    <path
        d="M17.48 14.385H17.4279C17.1402 14.385 16.907 14.1346 16.907 13.8256V11.7667C16.9051 10.4971 16.2605 9.32901 15.2246 8.71762C15.1473 8.67787 15.0956 8.5968 15.0891 8.50502C15.0749 7.66495 14.4337 6.99378 13.6515 7.00004C12.865 7.00899 12.2279 7.68834 12.2138 8.53297C12.2075 8.62172 12.1607 8.70134 12.0888 8.74558C11.042 9.34868 10.3863 10.5188 10.3803 11.7947V13.8871C10.3803 14.1961 10.1471 14.4466 9.85947 14.4466C9.38108 14.4527 8.99711 14.8726 9.00002 15.3865C9.00002 15.3902 9.00004 15.394 9.00009 15.3977C9.00585 15.9229 9.40694 16.3437 9.89595 16.3375H17.4227C17.9089 16.3545 18.3158 15.8835 18.3316 15.3613C18.3474 14.8391 17.9661 14.402 17.48 14.385Z"
        fill="url(#paint2_linear_484_6699)" />
</svg>
