<svg xmlns="http://www.w3.org/2000/svg" xmlns:xlink="http://www.w3.org/1999/xlink" width="603" zoomAndPan="magnify" viewBox="0 0 452.25 452.249989" height="603" preserveAspectRatio="xMidYMid meet" version="1.0"><defs><clipPath id="c54d1a5da4"><path d="M 81.355469 67.726562 L 370.375 67.726562 L 370.375 383.699219 L 81.355469 383.699219 Z M 81.355469 67.726562 " clip-rule="nonzero"/></clipPath></defs><path fill="#ffffff" d="M 173.417969 336.847656 C 172.421875 336.847656 171.429688 336.945312 170.449219 337.140625 C 169.46875 337.335938 168.519531 337.625 167.59375 338.003906 C 166.671875 338.386719 165.792969 338.855469 164.960938 339.410156 C 164.132812 339.964844 163.363281 340.597656 162.65625 341.304688 C 161.949219 342.007812 161.320312 342.777344 160.765625 343.609375 C 160.210938 344.4375 159.742188 345.316406 159.359375 346.238281 C 158.976562 347.160156 158.6875 348.113281 158.492188 349.089844 C 158.300781 350.070312 158.203125 351.058594 158.203125 352.058594 C 158.203125 353.058594 158.300781 354.046875 158.496094 355.023438 C 158.691406 356.003906 158.980469 356.953125 159.367188 357.878906 C 159.75 358.800781 160.21875 359.675781 160.773438 360.503906 C 161.332031 361.335938 161.960938 362.101562 162.667969 362.808594 C 163.375 363.511719 164.144531 364.144531 164.976562 364.695312 C 165.808594 365.25 166.6875 365.71875 167.609375 366.101562 C 168.535156 366.480469 169.488281 366.769531 170.46875 366.960938 C 171.449219 367.15625 172.4375 367.253906 173.4375 367.25 C 174.4375 367.25 175.425781 367.152344 176.40625 366.953125 C 177.386719 366.757812 178.339844 366.46875 179.261719 366.085938 C 180.183594 365.703125 181.0625 365.234375 181.890625 364.675781 C 182.722656 364.121094 183.492188 363.488281 184.195312 362.78125 C 184.902344 362.074219 185.53125 361.304688 186.085938 360.476562 C 186.640625 359.644531 187.105469 358.765625 187.488281 357.84375 C 187.871094 356.921875 188.15625 355.96875 188.351562 354.988281 C 188.542969 354.007812 188.640625 353.019531 188.636719 352.023438 C 188.636719 351.023438 188.535156 350.039062 188.339844 349.058594 C 188.144531 348.082031 187.855469 347.132812 187.472656 346.214844 C 187.089844 345.292969 186.617188 344.417969 186.0625 343.589844 C 185.507812 342.761719 184.875 341.996094 184.171875 341.289062 C 183.464844 340.585938 182.695312 339.957031 181.867188 339.402344 C 181.035156 338.851562 180.160156 338.382812 179.238281 338.003906 C 178.316406 337.621094 177.363281 337.332031 176.386719 337.140625 C 175.40625 336.945312 174.417969 336.847656 173.417969 336.847656 Z M 173.417969 359.078125 C 172.957031 359.078125 172.496094 359.035156 172.042969 358.945312 C 171.585938 358.855469 171.144531 358.71875 170.714844 358.542969 C 170.289062 358.367188 169.878906 358.148438 169.496094 357.890625 C 169.109375 357.632812 168.753906 357.339844 168.425781 357.011719 C 168.097656 356.683594 167.804688 356.328125 167.546875 355.941406 C 167.289062 355.558594 167.070312 355.152344 166.890625 354.722656 C 166.714844 354.292969 166.582031 353.855469 166.492188 353.398438 C 166.398438 352.945312 166.355469 352.484375 166.355469 352.023438 C 166.355469 351.558594 166.398438 351.101562 166.492188 350.644531 C 166.582031 350.191406 166.714844 349.75 166.890625 349.320312 C 167.070312 348.894531 167.289062 348.484375 167.546875 348.101562 C 167.804688 347.714844 168.097656 347.359375 168.425781 347.03125 C 168.753906 346.703125 169.109375 346.410156 169.496094 346.152344 C 169.878906 345.894531 170.289062 345.679688 170.714844 345.5 C 171.144531 345.324219 171.585938 345.191406 172.042969 345.101562 C 172.496094 345.007812 172.957031 344.964844 173.417969 344.964844 C 173.882812 344.964844 174.34375 345.007812 174.796875 345.101562 C 175.253906 345.191406 175.695312 345.324219 176.125 345.5 C 176.550781 345.679688 176.960938 345.894531 177.34375 346.152344 C 177.730469 346.410156 178.085938 346.703125 178.414062 347.03125 C 178.742188 347.359375 179.035156 347.714844 179.292969 348.101562 C 179.550781 348.484375 179.769531 348.894531 179.945312 349.320312 C 180.125 349.75 180.257812 350.191406 180.347656 350.644531 C 180.441406 351.101562 180.484375 351.558594 180.484375 352.023438 C 180.484375 352.484375 180.441406 352.945312 180.347656 353.398438 C 180.257812 353.855469 180.125 354.292969 179.945312 354.722656 C 179.769531 355.152344 179.550781 355.558594 179.292969 355.941406 C 179.035156 356.328125 178.742188 356.683594 178.414062 357.011719 C 178.085938 357.339844 177.730469 357.632812 177.34375 357.890625 C 176.960938 358.148438 176.550781 358.367188 176.125 358.542969 C 175.695312 358.71875 175.253906 358.855469 174.796875 358.945312 C 174.34375 359.035156 173.882812 359.078125 173.417969 359.078125 Z M 173.417969 359.078125 " fill-opacity="1" fill-rule="nonzero"/><path fill="#ffffff" d="M 159.019531 96.988281 L 187.820312 96.988281 C 188.089844 96.988281 188.355469 96.960938 188.617188 96.910156 C 188.878906 96.859375 189.132812 96.78125 189.382812 96.679688 C 189.628906 96.574219 189.863281 96.449219 190.085938 96.300781 C 190.308594 96.152344 190.515625 95.984375 190.703125 95.796875 C 190.894531 95.605469 191.0625 95.402344 191.210938 95.179688 C 191.359375 94.957031 191.484375 94.722656 191.585938 94.476562 C 191.691406 94.226562 191.765625 93.972656 191.820312 93.710938 C 191.871094 93.449219 191.898438 93.183594 191.898438 92.917969 C 191.898438 92.648438 191.871094 92.382812 191.820312 92.121094 C 191.765625 91.859375 191.691406 91.605469 191.585938 91.359375 C 191.484375 91.109375 191.359375 90.875 191.210938 90.652344 C 191.0625 90.433594 190.894531 90.226562 190.703125 90.039062 C 190.515625 89.847656 190.308594 89.679688 190.085938 89.53125 C 189.863281 89.382812 189.628906 89.257812 189.382812 89.15625 C 189.132812 89.050781 188.878906 88.976562 188.617188 88.921875 C 188.355469 88.871094 188.089844 88.84375 187.820312 88.84375 L 159.019531 88.84375 C 158.75 88.84375 158.484375 88.871094 158.222656 88.921875 C 157.960938 88.976562 157.707031 89.050781 157.457031 89.15625 C 157.210938 89.257812 156.976562 89.382812 156.753906 89.53125 C 156.53125 89.679688 156.324219 89.847656 156.136719 90.039062 C 155.945312 90.226562 155.777344 90.433594 155.628906 90.652344 C 155.480469 90.875 155.355469 91.109375 155.253906 91.359375 C 155.148438 91.605469 155.074219 91.859375 155.019531 92.121094 C 154.96875 92.382812 154.941406 92.648438 154.941406 92.917969 C 154.941406 93.183594 154.96875 93.449219 155.019531 93.710938 C 155.074219 93.972656 155.148438 94.226562 155.253906 94.476562 C 155.355469 94.722656 155.480469 94.957031 155.628906 95.179688 C 155.777344 95.402344 155.945312 95.605469 156.136719 95.796875 C 156.324219 95.984375 156.53125 96.152344 156.753906 96.300781 C 156.976562 96.449219 157.210938 96.574219 157.457031 96.679688 C 157.707031 96.78125 157.960938 96.859375 158.222656 96.910156 C 158.484375 96.960938 158.75 96.988281 159.019531 96.988281 Z M 159.019531 96.988281 " fill-opacity="1" fill-rule="nonzero"/><g clip-path="url(#c54d1a5da4)"><path fill="#ffffff" d="M 347.167969 145.90625 L 265.375 145.90625 L 265.375 90.800781 C 265.375 90.042969 265.335938 89.285156 265.261719 88.53125 C 265.1875 87.777344 265.074219 87.027344 264.925781 86.285156 C 264.777344 85.542969 264.589844 84.808594 264.371094 84.085938 C 264.148438 83.359375 263.890625 82.648438 263.601562 81.949219 C 263.308594 81.25 262.984375 80.566406 262.625 79.898438 C 262.265625 79.230469 261.875 78.582031 261.453125 77.953125 C 261.03125 77.324219 260.578125 76.714844 260.09375 76.132812 C 259.613281 75.546875 259.101562 74.988281 258.5625 74.453125 C 258.027344 73.917969 257.464844 73.410156 256.875 72.933594 C 256.289062 72.453125 255.679688 72.003906 255.046875 71.585938 C 254.414062 71.164062 253.765625 70.777344 253.09375 70.421875 C 252.425781 70.066406 251.738281 69.746094 251.039062 69.457031 C 250.335938 69.167969 249.621094 68.917969 248.894531 68.699219 C 248.167969 68.480469 247.433594 68.300781 246.6875 68.15625 C 245.945312 68.007812 245.195312 67.902344 244.441406 67.828125 C 243.683594 67.757812 242.929688 67.722656 242.167969 67.726562 L 104.5625 67.726562 C 103.804688 67.726562 103.050781 67.765625 102.296875 67.839844 C 101.546875 67.914062 100.800781 68.023438 100.058594 68.171875 C 99.316406 68.320312 98.582031 68.503906 97.859375 68.726562 C 97.136719 68.945312 96.425781 69.199219 95.726562 69.488281 C 95.027344 69.777344 94.34375 70.101562 93.679688 70.457031 C 93.011719 70.8125 92.363281 71.203125 91.734375 71.621094 C 91.105469 72.042969 90.5 72.492188 89.914062 72.972656 C 89.332031 73.449219 88.773438 73.957031 88.238281 74.492188 C 87.703125 75.027344 87.195312 75.585938 86.714844 76.167969 C 86.234375 76.753906 85.785156 77.359375 85.363281 77.984375 C 84.945312 78.613281 84.554688 79.261719 84.199219 79.925781 C 83.84375 80.59375 83.519531 81.277344 83.230469 81.972656 C 82.941406 82.671875 82.683594 83.382812 82.464844 84.105469 C 82.246094 84.828125 82.058594 85.558594 81.914062 86.300781 C 81.765625 87.039062 81.652344 87.785156 81.578125 88.539062 C 81.503906 89.289062 81.464844 90.042969 81.464844 90.800781 L 81.464844 360.628906 C 81.464844 361.382812 81.503906 362.136719 81.578125 362.886719 C 81.652344 363.640625 81.765625 364.386719 81.914062 365.125 C 82.058594 365.867188 82.246094 366.597656 82.464844 367.320312 C 82.683594 368.046875 82.941406 368.753906 83.230469 369.453125 C 83.519531 370.152344 83.84375 370.832031 84.199219 371.5 C 84.554688 372.164062 84.945312 372.8125 85.363281 373.441406 C 85.785156 374.066406 86.234375 374.675781 86.714844 375.257812 C 87.195312 375.84375 87.703125 376.402344 88.238281 376.933594 C 88.773438 377.46875 89.332031 377.976562 89.914062 378.457031 C 90.5 378.933594 91.105469 379.382812 91.734375 379.804688 C 92.363281 380.222656 93.011719 380.613281 93.679688 380.96875 C 94.34375 381.324219 95.027344 381.648438 95.726562 381.9375 C 96.425781 382.226562 97.136719 382.480469 97.859375 382.703125 C 98.582031 382.921875 99.316406 383.105469 100.058594 383.253906 C 100.800781 383.402344 101.546875 383.511719 102.296875 383.585938 C 103.050781 383.664062 103.804688 383.699219 104.5625 383.703125 L 242.167969 383.703125 C 242.925781 383.699219 243.679688 383.664062 244.433594 383.585938 C 245.183594 383.511719 245.933594 383.402344 246.671875 383.253906 C 247.414062 383.105469 248.148438 382.921875 248.871094 382.703125 C 249.59375 382.480469 250.304688 382.226562 251.003906 381.9375 C 251.703125 381.648438 252.386719 381.324219 253.050781 380.96875 C 253.71875 380.613281 254.367188 380.222656 254.996094 379.804688 C 255.625 379.382812 256.230469 378.933594 256.816406 378.457031 C 257.398438 377.976562 257.960938 377.46875 258.492188 376.933594 C 259.027344 376.402344 259.535156 375.84375 260.015625 375.257812 C 260.496094 374.675781 260.945312 374.066406 261.367188 373.441406 C 261.785156 372.8125 262.175781 372.164062 262.53125 371.5 C 262.886719 370.832031 263.210938 370.152344 263.5 369.453125 C 263.792969 368.753906 264.046875 368.046875 264.265625 367.320312 C 264.488281 366.597656 264.671875 365.867188 264.820312 365.125 C 264.96875 364.386719 265.078125 363.640625 265.152344 362.886719 C 265.226562 362.136719 265.265625 361.382812 265.265625 360.628906 L 265.265625 291.785156 L 347.058594 291.785156 C 347.816406 291.785156 348.570312 291.746094 349.324219 291.671875 C 350.074219 291.597656 350.824219 291.484375 351.5625 291.339844 C 352.304688 291.191406 353.039062 291.007812 353.761719 290.785156 C 354.484375 290.566406 355.195312 290.3125 355.894531 290.023438 C 356.59375 289.734375 357.277344 289.410156 357.941406 289.054688 C 358.609375 288.695312 359.257812 288.308594 359.886719 287.890625 C 360.515625 287.46875 361.121094 287.019531 361.707031 286.539062 C 362.289062 286.0625 362.851562 285.554688 363.382812 285.019531 C 363.917969 284.484375 364.425781 283.925781 364.90625 283.34375 C 365.386719 282.757812 365.835938 282.152344 366.257812 281.523438 C 366.675781 280.898438 367.066406 280.25 367.421875 279.582031 C 367.777344 278.917969 368.101562 278.234375 368.390625 277.539062 C 368.683594 276.839844 368.9375 276.128906 369.15625 275.40625 C 369.378906 274.683594 369.5625 273.953125 369.710938 273.210938 C 369.859375 272.472656 369.96875 271.722656 370.042969 270.972656 C 370.117188 270.222656 370.15625 269.46875 370.15625 268.710938 L 370.15625 168.980469 C 370.15625 168.226562 370.121094 167.472656 370.042969 166.722656 C 369.96875 165.976562 369.859375 165.230469 369.710938 164.492188 C 369.566406 163.753906 369.382812 163.023438 369.164062 162.304688 C 368.945312 161.582031 368.691406 160.875 368.402344 160.179688 C 368.113281 159.480469 367.792969 158.800781 367.4375 158.136719 C 367.082031 157.472656 366.699219 156.828125 366.28125 156.199219 C 365.863281 155.574219 365.414062 154.96875 364.9375 154.382812 C 364.460938 153.800781 363.953125 153.242188 363.421875 152.710938 C 362.890625 152.175781 362.335938 151.667969 361.753906 151.1875 C 361.171875 150.710938 360.566406 150.257812 359.941406 149.839844 C 359.316406 149.417969 358.671875 149.03125 358.007812 148.671875 C 357.34375 148.316406 356.664062 147.992188 355.96875 147.699219 C 355.273438 147.410156 354.566406 147.152344 353.847656 146.929688 C 353.125 146.707031 352.394531 146.523438 351.65625 146.371094 C 350.917969 146.21875 350.175781 146.105469 349.425781 146.027344 C 348.675781 145.949219 347.921875 145.910156 347.167969 145.90625 Z M 362.113281 168.980469 L 362.113281 173.429688 L 160.484375 173.429688 L 160.484375 168.980469 C 160.488281 168 160.585938 167.027344 160.777344 166.066406 C 160.96875 165.105469 161.253906 164.175781 161.628906 163.269531 C 162.007812 162.363281 162.46875 161.503906 163.011719 160.691406 C 163.558594 159.875 164.175781 159.121094 164.871094 158.429688 C 165.5625 157.738281 166.320312 157.117188 167.132812 156.574219 C 167.949219 156.027344 168.808594 155.566406 169.714844 155.191406 C 170.621094 154.816406 171.554688 154.53125 172.515625 154.339844 C 173.480469 154.148438 174.449219 154.050781 175.429688 154.046875 L 347.167969 154.046875 C 348.148438 154.050781 349.121094 154.148438 350.082031 154.339844 C 351.042969 154.53125 351.976562 154.816406 352.882812 155.191406 C 353.789062 155.566406 354.652344 156.027344 355.464844 156.574219 C 356.28125 157.117188 357.035156 157.738281 357.730469 158.429688 C 358.421875 159.121094 359.042969 159.875 359.585938 160.691406 C 360.132812 161.503906 360.59375 162.363281 360.96875 163.269531 C 361.34375 164.175781 361.628906 165.105469 361.824219 166.066406 C 362.015625 167.027344 362.113281 168 362.113281 168.980469 Z M 362.113281 192.433594 L 160.484375 192.433594 L 160.484375 181.574219 L 362.113281 181.574219 Z M 104.5625 75.867188 L 242.167969 75.867188 C 243.148438 75.871094 244.121094 75.96875 245.082031 76.160156 C 246.046875 76.351562 246.980469 76.636719 247.882812 77.011719 C 248.789062 77.386719 249.652344 77.847656 250.464844 78.394531 C 251.28125 78.9375 252.035156 79.558594 252.730469 80.25 C 253.421875 80.941406 254.042969 81.695312 254.589844 82.511719 C 255.132812 83.324219 255.59375 84.183594 255.96875 85.089844 C 256.347656 85.996094 256.628906 86.925781 256.824219 87.886719 C 257.015625 88.847656 257.113281 89.820312 257.113281 90.800781 L 257.113281 110.589844 L 89.617188 110.589844 L 89.617188 90.800781 C 89.617188 89.820312 89.714844 88.847656 89.90625 87.886719 C 90.101562 86.925781 90.386719 85.996094 90.761719 85.089844 C 91.136719 84.183594 91.597656 83.324219 92.144531 82.511719 C 92.6875 81.695312 93.308594 80.941406 94 80.25 C 94.695312 79.558594 95.449219 78.9375 96.265625 78.394531 C 97.078125 77.847656 97.941406 77.386719 98.847656 77.011719 C 99.753906 76.636719 100.6875 76.351562 101.648438 76.160156 C 102.609375 75.96875 103.582031 75.871094 104.5625 75.867188 Z M 242.167969 375.558594 L 104.5625 375.558594 C 103.582031 375.554688 102.609375 375.457031 101.648438 375.265625 C 100.6875 375.074219 99.753906 374.789062 98.847656 374.414062 C 97.941406 374.039062 97.082031 373.578125 96.265625 373.03125 C 95.449219 372.488281 94.695312 371.871094 94 371.175781 C 93.308594 370.484375 92.6875 369.730469 92.144531 368.914062 C 91.597656 368.101562 91.136719 367.242188 90.761719 366.335938 C 90.386719 365.433594 90.101562 364.5 89.90625 363.539062 C 89.714844 362.578125 89.617188 361.605469 89.617188 360.628906 L 89.617188 327.101562 L 257.222656 327.101562 L 257.222656 360.628906 C 257.222656 361.613281 257.125 362.585938 256.929688 363.550781 C 256.734375 364.515625 256.449219 365.453125 256.070312 366.363281 C 255.6875 367.269531 255.222656 368.132812 254.675781 368.949219 C 254.125 369.765625 253.5 370.519531 252.800781 371.214844 C 252.101562 371.910156 251.339844 372.527344 250.519531 373.070312 C 249.695312 373.613281 248.832031 374.074219 247.917969 374.445312 C 247.007812 374.816406 246.066406 375.097656 245.097656 375.285156 C 244.132812 375.472656 243.15625 375.5625 242.167969 375.558594 Z M 257.113281 318.957031 L 89.617188 318.957031 L 89.617188 118.730469 L 257.222656 118.730469 L 257.222656 145.878906 L 175.429688 145.878906 C 174.675781 145.878906 173.921875 145.917969 173.167969 145.992188 C 172.414062 146.066406 171.667969 146.175781 170.925781 146.324219 C 170.183594 146.472656 169.453125 146.65625 168.730469 146.878906 C 168.003906 147.097656 167.292969 147.351562 166.597656 147.640625 C 165.898438 147.929688 165.214844 148.253906 164.546875 148.609375 C 163.882812 148.964844 163.234375 149.355469 162.605469 149.773438 C 161.976562 150.195312 161.371094 150.644531 160.785156 151.125 C 160.199219 151.601562 159.640625 152.109375 159.105469 152.644531 C 158.570312 153.179688 158.0625 153.738281 157.585938 154.320312 C 157.105469 154.90625 156.65625 155.511719 156.234375 156.140625 C 155.8125 156.765625 155.425781 157.414062 155.070312 158.078125 C 154.710938 158.746094 154.386719 159.429688 154.097656 160.125 C 153.808594 160.824219 153.554688 161.535156 153.332031 162.257812 C 153.113281 162.980469 152.929688 163.710938 152.78125 164.453125 C 152.632812 165.191406 152.523438 165.9375 152.445312 166.691406 C 152.371094 167.441406 152.332031 168.195312 152.332031 168.953125 L 152.332031 268.710938 C 152.335938 269.46875 152.371094 270.222656 152.445312 270.972656 C 152.523438 271.722656 152.632812 272.472656 152.78125 273.210938 C 152.929688 273.953125 153.113281 274.683594 153.332031 275.40625 C 153.554688 276.128906 153.808594 276.839844 154.097656 277.539062 C 154.386719 278.234375 154.710938 278.917969 155.070312 279.582031 C 155.425781 280.25 155.8125 280.898438 156.234375 281.523438 C 156.65625 282.152344 157.105469 282.757812 157.585938 283.34375 C 158.0625 283.925781 158.570312 284.484375 159.105469 285.019531 C 159.640625 285.554688 160.199219 286.0625 160.785156 286.539062 C 161.371094 287.019531 161.976562 287.46875 162.605469 287.890625 C 163.234375 288.308594 163.882812 288.695312 164.546875 289.054688 C 165.214844 289.410156 165.898438 289.734375 166.597656 290.023438 C 167.292969 290.3125 168.003906 290.566406 168.730469 290.785156 C 169.453125 291.007812 170.183594 291.191406 170.925781 291.339844 C 171.667969 291.484375 172.414062 291.597656 173.167969 291.671875 C 173.921875 291.746094 174.675781 291.785156 175.429688 291.785156 L 257.222656 291.785156 Z M 347.058594 283.667969 L 175.429688 283.667969 C 174.449219 283.667969 173.480469 283.570312 172.515625 283.378906 C 171.554688 283.183594 170.621094 282.902344 169.714844 282.527344 C 168.808594 282.148438 167.949219 281.691406 167.132812 281.144531 C 166.320312 280.601562 165.5625 279.980469 164.871094 279.289062 C 164.175781 278.59375 163.558594 277.84375 163.011719 277.027344 C 162.46875 276.214844 162.007812 275.351562 161.628906 274.449219 C 161.253906 273.542969 160.96875 272.609375 160.777344 271.648438 C 160.585938 270.6875 160.488281 269.71875 160.484375 268.738281 L 160.484375 200.578125 L 362.113281 200.578125 L 362.113281 268.710938 C 362.113281 269.691406 362.015625 270.660156 361.824219 271.621094 C 361.628906 272.582031 361.34375 273.515625 360.96875 274.421875 C 360.59375 275.328125 360.132812 276.1875 359.585938 277 C 359.042969 277.816406 358.421875 278.570312 357.730469 279.261719 C 357.035156 279.953125 356.28125 280.574219 355.464844 281.117188 C 354.652344 281.664062 353.789062 282.121094 352.882812 282.5 C 351.976562 282.875 351.042969 283.160156 350.082031 283.351562 C 349.121094 283.542969 348.148438 283.640625 347.167969 283.640625 Z M 347.058594 283.667969 " fill-opacity="1" fill-rule="nonzero"/></g><path fill="#ffffff" d="M 228.339844 229.675781 L 188.554688 229.675781 C 188.289062 229.675781 188.023438 229.703125 187.761719 229.753906 C 187.496094 229.808594 187.242188 229.882812 186.996094 229.988281 C 186.75 230.089844 186.511719 230.214844 186.292969 230.363281 C 186.070312 230.511719 185.863281 230.679688 185.671875 230.867188 C 185.484375 231.058594 185.316406 231.265625 185.167969 231.484375 C 185.019531 231.707031 184.890625 231.941406 184.789062 232.191406 C 184.6875 232.4375 184.609375 232.691406 184.558594 232.953125 C 184.503906 233.214844 184.480469 233.480469 184.480469 233.75 C 184.480469 234.015625 184.503906 234.28125 184.558594 234.542969 C 184.609375 234.804688 184.6875 235.058594 184.789062 235.304688 C 184.890625 235.554688 185.019531 235.789062 185.167969 236.011719 C 185.316406 236.234375 185.484375 236.4375 185.671875 236.628906 C 185.863281 236.816406 186.070312 236.984375 186.292969 237.132812 C 186.511719 237.28125 186.75 237.40625 186.996094 237.511719 C 187.242188 237.613281 187.496094 237.691406 187.761719 237.742188 C 188.023438 237.792969 188.289062 237.820312 188.554688 237.820312 L 228.339844 237.820312 C 228.605469 237.820312 228.871094 237.792969 229.132812 237.742188 C 229.394531 237.691406 229.652344 237.613281 229.898438 237.511719 C 230.144531 237.40625 230.378906 237.28125 230.601562 237.132812 C 230.824219 236.984375 231.03125 236.816406 231.21875 236.628906 C 231.410156 236.4375 231.578125 236.234375 231.726562 236.011719 C 231.875 235.789062 232 235.554688 232.105469 235.304688 C 232.207031 235.058594 232.285156 234.804688 232.335938 234.542969 C 232.386719 234.28125 232.414062 234.015625 232.414062 233.75 C 232.414062 233.480469 232.386719 233.214844 232.335938 232.953125 C 232.285156 232.691406 232.207031 232.4375 232.105469 232.191406 C 232 231.941406 231.875 231.707031 231.726562 231.484375 C 231.578125 231.265625 231.410156 231.058594 231.21875 230.867188 C 231.03125 230.679688 230.824219 230.511719 230.601562 230.363281 C 230.378906 230.214844 230.144531 230.089844 229.898438 229.988281 C 229.652344 229.882812 229.394531 229.808594 229.132812 229.753906 C 228.871094 229.703125 228.605469 229.675781 228.339844 229.675781 Z M 228.339844 229.675781 " fill-opacity="1" fill-rule="nonzero"/><path fill="#ffffff" d="M 228.339844 253.347656 L 188.554688 253.347656 C 188.289062 253.347656 188.023438 253.375 187.761719 253.425781 C 187.496094 253.476562 187.242188 253.554688 186.996094 253.65625 C 186.75 253.757812 186.511719 253.886719 186.292969 254.035156 C 186.070312 254.183594 185.863281 254.351562 185.671875 254.539062 C 185.484375 254.730469 185.316406 254.933594 185.167969 255.15625 C 185.019531 255.378906 184.890625 255.613281 184.789062 255.859375 C 184.6875 256.109375 184.609375 256.363281 184.558594 256.625 C 184.503906 256.886719 184.480469 257.152344 184.480469 257.417969 C 184.480469 257.6875 184.503906 257.953125 184.558594 258.214844 C 184.609375 258.476562 184.6875 258.730469 184.789062 258.976562 C 184.890625 259.222656 185.019531 259.460938 185.167969 259.679688 C 185.316406 259.902344 185.484375 260.109375 185.671875 260.296875 C 185.863281 260.488281 186.070312 260.65625 186.292969 260.804688 C 186.511719 260.953125 186.75 261.078125 186.996094 261.179688 C 187.242188 261.285156 187.496094 261.359375 187.761719 261.414062 C 188.023438 261.464844 188.289062 261.492188 188.554688 261.492188 L 228.339844 261.492188 C 228.605469 261.492188 228.871094 261.464844 229.132812 261.414062 C 229.394531 261.359375 229.652344 261.285156 229.898438 261.179688 C 230.144531 261.078125 230.378906 260.953125 230.601562 260.804688 C 230.824219 260.65625 231.03125 260.488281 231.21875 260.296875 C 231.410156 260.109375 231.578125 259.902344 231.726562 259.679688 C 231.875 259.460938 232 259.222656 232.105469 258.976562 C 232.207031 258.730469 232.285156 258.476562 232.335938 258.214844 C 232.386719 257.953125 232.414062 257.6875 232.414062 257.417969 C 232.414062 257.152344 232.386719 256.886719 232.335938 256.625 C 232.285156 256.363281 232.207031 256.109375 232.105469 255.859375 C 232 255.613281 231.875 255.378906 231.726562 255.15625 C 231.578125 254.933594 231.410156 254.730469 231.21875 254.539062 C 231.03125 254.351562 230.824219 254.183594 230.601562 254.035156 C 230.378906 253.886719 230.144531 253.757812 229.898438 253.65625 C 229.652344 253.554688 229.394531 253.476562 229.132812 253.425781 C 228.871094 253.375 228.605469 253.347656 228.339844 253.347656 Z M 228.339844 253.347656 " fill-opacity="1" fill-rule="nonzero"/><path fill="#ffffff" d="M 334.015625 229.269531 L 287.195312 229.269531 C 286.929688 229.269531 286.664062 229.296875 286.402344 229.347656 C 286.136719 229.398438 285.882812 229.476562 285.636719 229.578125 C 285.390625 229.679688 285.152344 229.808594 284.933594 229.957031 C 284.710938 230.105469 284.503906 230.273438 284.3125 230.460938 C 284.125 230.652344 283.957031 230.855469 283.808594 231.078125 C 283.660156 231.300781 283.53125 231.535156 283.429688 231.78125 C 283.328125 232.03125 283.25 232.285156 283.199219 232.546875 C 283.144531 232.808594 283.121094 233.074219 283.121094 233.339844 L 283.121094 257.417969 C 283.121094 257.6875 283.144531 257.953125 283.199219 258.214844 C 283.25 258.476562 283.328125 258.730469 283.429688 258.976562 C 283.53125 259.222656 283.660156 259.460938 283.808594 259.679688 C 283.957031 259.902344 284.125 260.109375 284.3125 260.296875 C 284.503906 260.488281 284.710938 260.65625 284.933594 260.804688 C 285.152344 260.953125 285.390625 261.078125 285.636719 261.179688 C 285.882812 261.285156 286.136719 261.359375 286.402344 261.414062 C 286.664062 261.464844 286.929688 261.492188 287.195312 261.492188 L 334.015625 261.492188 C 334.285156 261.492188 334.550781 261.464844 334.8125 261.414062 C 335.074219 261.359375 335.328125 261.285156 335.578125 261.179688 C 335.824219 261.078125 336.058594 260.953125 336.28125 260.804688 C 336.503906 260.65625 336.710938 260.488281 336.898438 260.296875 C 337.089844 260.109375 337.257812 259.902344 337.40625 259.679688 C 337.554688 259.460938 337.679688 259.222656 337.78125 258.976562 C 337.886719 258.730469 337.960938 258.476562 338.015625 258.214844 C 338.066406 257.953125 338.09375 257.6875 338.09375 257.417969 L 338.09375 233.339844 C 338.09375 233.074219 338.066406 232.808594 338.015625 232.546875 C 337.960938 232.285156 337.886719 232.03125 337.78125 231.78125 C 337.679688 231.535156 337.554688 231.300781 337.40625 231.078125 C 337.257812 230.855469 337.089844 230.652344 336.898438 230.460938 C 336.710938 230.273438 336.503906 230.105469 336.28125 229.957031 C 336.058594 229.808594 335.824219 229.679688 335.578125 229.578125 C 335.328125 229.476562 335.074219 229.398438 334.8125 229.347656 C 334.550781 229.296875 334.285156 229.269531 334.015625 229.269531 Z M 329.941406 253.347656 L 291.273438 253.347656 L 291.273438 237.414062 L 329.941406 237.414062 Z M 329.941406 253.347656 " fill-opacity="1" fill-rule="nonzero"/></svg>