<svg width="24" height="24" viewBox="0 0 24 24" fill="none" xmlns="http://www.w3.org/2000/svg">
    <path d="M4 5H8L10 10L7.5 11.5C8.57096 13.6715 10.3285 15.429 12.5 16.5L14 14L19 16V20C19 20.5304 18.7893 21.0391 18.4142 21.4142C18.0391 21.7893 17.5304 22 17 22C13.0993 21.763 9.42015 20.1065 6.65683 17.3432C3.8935 14.5798 2.23705 10.9007 2 7C2 6.46957 2.21071 5.96086 2.58579 5.58579C2.96086 5.21071 3.46957 5 4 5Z" fill="#F2994A"/>
    <path d="M14 8C14.5304 8 15.0391 8.21071 15.4142 8.58579C15.7893 8.96086 16 9.46957 16 10" stroke="#F2994A" stroke-width="1.5" stroke-linecap="round" stroke-linejoin="round"/>
    <path d="M14 4C15.5913 4 17.1174 4.63214 18.2426 5.75736C19.3679 6.88258 20 8.4087 20 10" stroke="#F2994A" stroke-width="1.5" stroke-linecap="round" stroke-linejoin="round"/>
</svg>
