<svg width="24" height="24" viewBox="0 0 24 24" fill="none" xmlns="http://www.w3.org/2000/svg">
<defs>
<linearGradient id="paint0_linear_515_725" x1="8.65063" y1="12.0038" x2="6.1366" y2="12.0038" gradientUnits="userSpaceOnUse">
<stop stop-color="#EA1E5B"/>
<stop offset="1" stop-color="#F5932F"/>
</linearGradient>
<linearGradient id="paint1_linear_515_725" x1="23.0044" y1="12" x2="0.827637" y2="12" gradientUnits="userSpaceOnUse">
<stop stop-color="#EA1E5B"/>
<stop offset="1" stop-color="#F5932F"/>
</linearGradient>
<linearGradient id="paint2_linear_515_725" x1="12.1875" y1="3.71286" x2="11.6444" y2="3.71286" gradientUnits="userSpaceOnUse">
<stop stop-color="#EA1E5B"/>
<stop offset="1" stop-color="#F5932F"/>
</linearGradient>
<linearGradient id="paint3_linear_515_725" x1="19.5361" y1="4.32582" x2="16.1359" y2="4.32582" gradientUnits="userSpaceOnUse">
<stop stop-color="#EA1E5B"/>
<stop offset="1" stop-color="#F5932F"/>
</linearGradient>
<linearGradient id="paint4_linear_515_725" x1="7.69604" y1="4.32582" x2="4.29578" y2="4.32582" gradientUnits="userSpaceOnUse">
<stop stop-color="#EA1E5B"/>
<stop offset="1" stop-color="#F5932F"/>
</linearGradient>
<linearGradient id="paint5_linear_515_725" x1="12.1875" y1="20.2871" x2="11.6444" y2="20.2871" gradientUnits="userSpaceOnUse">
<stop stop-color="#EA1E5B"/>
<stop offset="1" stop-color="#F5932F"/>
</linearGradient>
<linearGradient id="paint6_linear_515_725" x1="19.5361" y1="19.6733" x2="16.1339" y2="19.6733" gradientUnits="userSpaceOnUse">
<stop stop-color="#EA1E5B"/>
<stop offset="1" stop-color="#F5932F"/>
</linearGradient>
<linearGradient id="paint7_linear_515_725" x1="7.6981" y1="19.6733" x2="4.2959" y2="19.6733" gradientUnits="userSpaceOnUse">
<stop stop-color="#EA1E5B"/>
<stop offset="1" stop-color="#F5932F"/>
</linearGradient>
</defs>
<path d="M7.391 10.6575C7.22475 10.6537 7.05955 10.6858 6.90589 10.7516C6.75222 10.8174 6.61343 10.9156 6.49833 11.0399C6.25716 11.2948 6.13658 11.6188 6.1366 12.0119C6.1366 12.45 6.28842 12.7964 6.59207 13.0513C6.81989 13.2476 7.10769 13.3535 7.40401 13.3502C7.56902 13.3527 7.73273 13.3195 7.88464 13.2528C8.03656 13.186 8.17335 13.0871 8.28626 12.9625C8.52082 12.703 8.65111 12.3608 8.65063 12.0053C8.65014 11.6499 8.51891 11.3081 8.28365 11.0493C8.16948 10.9231 8.03107 10.8231 7.87734 10.7556C7.72361 10.6881 7.55794 10.6547 7.391 10.6575Z" fill="url(#paint0_linear_515_725)"/>
<path d="M20.5536 6.98779H3.27839C2.62841 6.98779 2.00506 7.25522 1.54545 7.73123C1.08585 8.20725 0.82764 8.85287 0.827637 9.52606V14.474C0.827637 15.1472 1.08584 15.7928 1.54545 16.2689C2.00505 16.7449 2.62841 17.0123 3.27839 17.0123H20.5536C21.2036 17.0123 21.8269 16.7449 22.2866 16.2689C22.7462 15.7928 23.0044 15.1472 23.0044 14.474V9.52606C23.0044 8.85287 22.7462 8.20725 22.2865 7.73123C21.8269 7.25522 21.2036 6.98779 20.5536 6.98779ZM4.69239 13.9805H3.63605C3.53387 13.9805 3.43587 13.9385 3.36362 13.8636C3.29137 13.7888 3.25078 13.6873 3.25078 13.5815V10.379C3.25078 10.2837 3.28735 10.1923 3.35244 10.1249C3.41753 10.0575 3.50581 10.0196 3.59786 10.0196H3.63166C3.72371 10.0196 3.81199 10.0575 3.87708 10.1249C3.94217 10.1923 3.97874 10.2837 3.97874 10.379V12.8625C3.97874 12.9149 3.9887 12.9668 4.00806 13.0152C4.02743 13.0637 4.0558 13.1077 4.09158 13.1447C4.12736 13.1818 4.16983 13.2112 4.21658 13.2312C4.26332 13.2513 4.31342 13.2616 4.36402 13.2616H4.69239C4.78422 13.2619 4.87218 13.3 4.937 13.3673C5.00182 13.4347 5.03821 13.5259 5.03821 13.6211C5.03821 13.7162 5.00182 13.8074 4.937 13.8748C4.87218 13.9422 4.78422 13.9802 4.69239 13.9805V13.9805ZM8.80232 13.4797C8.62149 13.6737 8.40402 13.8272 8.16346 13.9305C7.9229 14.0338 7.66439 14.0847 7.40401 14.0801C6.82996 14.0801 6.35302 13.8746 5.97318 13.4635C5.76229 13.2412 5.6022 12.9727 5.50469 12.6778C5.40717 12.383 5.3747 12.0692 5.40968 11.7596C5.44465 11.4501 5.54617 11.1526 5.70678 10.889C5.86738 10.6254 6.08299 10.4024 6.33774 10.2365C6.69829 10.0044 7.12009 9.89545 7.54365 9.92493C8.01902 9.95615 8.46561 10.1716 8.79451 10.5285C8.98419 10.7216 9.13382 10.9528 9.23425 11.208C9.33467 11.4631 9.38379 11.7367 9.37858 12.0122C9.37858 12.5902 9.18649 13.0794 8.80231 13.4797L8.80232 13.4797ZM13.6085 13.1242C13.4497 13.4195 13.2171 13.665 12.9351 13.8351C12.6596 13.9985 12.3363 14.0801 11.9654 14.0801C11.595 14.0869 11.2292 13.9946 10.9034 13.8122C10.5931 13.6344 10.3372 13.3699 10.165 13.0488C9.98517 12.7235 9.89145 12.3547 9.89335 11.9799C9.88648 11.4744 10.0659 10.9852 10.3951 10.612C10.792 10.1506 11.3085 9.91995 11.9446 9.91995C12.265 9.91741 12.5826 9.98246 12.8779 10.1111C13.0381 10.1838 13.1874 10.2797 13.3213 10.3961C13.3584 10.4276 13.3886 10.4669 13.4101 10.5112C13.4316 10.5556 13.4439 10.6042 13.4461 10.6538C13.4483 10.7034 13.4405 10.753 13.423 10.7992C13.4056 10.8455 13.379 10.8875 13.345 10.9224L13.3156 10.9525C13.2574 11.0134 13.1799 11.0504 13.0975 11.0567C13.015 11.063 12.9331 11.0382 12.8669 10.9869C12.606 10.7718 12.2819 10.6556 11.9484 10.6577C11.7736 10.653 11.5997 10.6849 11.4372 10.7515C11.2746 10.8182 11.1268 10.9182 11.0025 11.0455C10.8795 11.1667 10.7821 11.3131 10.7165 11.4753C10.6508 11.6375 10.6184 11.8121 10.6213 11.9879C10.6182 12.1695 10.6519 12.3498 10.72 12.5172C10.7881 12.6846 10.8892 12.8354 11.0168 12.96C11.1455 13.0907 11.2981 13.1934 11.4658 13.2618C11.6334 13.3303 11.8127 13.3631 11.9928 13.3585C12.2156 13.3662 12.436 13.3093 12.6292 13.1942C12.7246 13.133 12.8091 13.055 12.8788 12.9638C12.899 12.9386 12.9119 12.9079 12.916 12.8754C12.9201 12.8428 12.9151 12.8098 12.9018 12.78C12.8884 12.7503 12.8671 12.7251 12.8405 12.7074C12.8138 12.6896 12.7828 12.6801 12.7511 12.6799H12.2813C12.1906 12.6799 12.1036 12.6426 12.0395 12.5762C11.9754 12.5098 11.9394 12.4198 11.9394 12.3259C11.9394 12.232 11.9754 12.1419 12.0395 12.0755C12.1036 12.0091 12.1906 11.9718 12.2813 11.9718H13.702C13.7452 11.9718 13.7868 11.9892 13.8179 12.0203C13.8489 12.0515 13.8671 12.094 13.8685 12.1387C13.8684 12.4854 13.7786 12.8257 13.6085 13.1242L13.6085 13.1242ZM16.6971 13.6062C16.6971 13.7055 16.659 13.8007 16.5912 13.8709C16.5235 13.9411 16.4315 13.9805 16.3357 13.9805C16.2399 13.9805 16.1479 13.9411 16.0802 13.8709C16.0124 13.8007 15.9743 13.7055 15.9743 13.6062V10.3939C15.9743 10.2946 16.0124 10.1994 16.0802 10.1292C16.1479 10.059 16.2399 10.0196 16.3357 10.0196C16.4315 10.0196 16.5235 10.059 16.5912 10.1292C16.659 10.1994 16.6971 10.2946 16.6971 10.3939V13.6062ZM20.5812 13.5117C20.5812 13.5732 20.5695 13.6342 20.5468 13.6911C20.524 13.748 20.4907 13.7997 20.4486 13.8432C20.4066 13.8867 20.3567 13.9213 20.3018 13.9448C20.2468 13.9684 20.188 13.9805 20.1285 13.9805H20.1263C20.051 13.9805 19.9768 13.961 19.9106 13.9239C19.8443 13.8867 19.7881 13.833 19.747 13.7676L18.2466 11.3821V13.6036C18.2466 13.7035 18.2082 13.7994 18.14 13.8701C18.0717 13.9408 17.9791 13.9805 17.8826 13.9805C17.7861 13.9805 17.6935 13.9408 17.6252 13.8701C17.557 13.7994 17.5186 13.7035 17.5186 13.6036V10.4884C17.5186 10.4269 17.5303 10.3659 17.5531 10.309C17.5758 10.2521 17.6092 10.2004 17.6512 10.1569C17.6932 10.1134 17.7431 10.0788 17.7981 10.0553C17.853 10.0317 17.9119 10.0196 17.9713 10.0196C18.0467 10.0196 18.1209 10.0391 18.1872 10.0763C18.2535 10.1136 18.3097 10.1674 18.3508 10.2329L19.8533 12.6261V10.3966C19.8533 10.347 19.8627 10.298 19.881 10.2523C19.8993 10.2066 19.9261 10.165 19.9599 10.13C19.9937 10.095 20.0338 10.0672 20.078 10.0483C20.1221 10.0293 20.1694 10.0196 20.2172 10.0196C20.3138 10.0196 20.4064 10.0593 20.4746 10.13C20.5429 10.2007 20.5812 10.2966 20.5812 10.3966L20.5812 13.5117Z" fill="url(#paint1_linear_515_725)"/>
<path d="M11.916 6.08661C11.8439 6.08661 11.7749 6.05698 11.7239 6.00424C11.673 5.95149 11.6444 5.87995 11.6444 5.80536V1.62036C11.6444 1.54577 11.673 1.47423 11.7239 1.42149C11.7749 1.36874 11.8439 1.33911 11.916 1.33911C11.988 1.33911 12.0571 1.36874 12.108 1.42149C12.1589 1.47423 12.1875 1.54577 12.1875 1.62036V5.80536C12.1875 5.87995 12.1589 5.95149 12.108 6.00424C12.0571 6.05698 11.988 6.08661 11.916 6.08661Z" fill="url(#paint2_linear_515_725)"/>
<path d="M16.4074 6.0867C16.3537 6.0867 16.3012 6.0702 16.2565 6.0393C16.2119 6.00839 16.1771 5.96447 16.1565 5.91308C16.136 5.8617 16.1306 5.80515 16.1411 5.7506C16.1516 5.69605 16.1774 5.64593 16.2154 5.6066L19.0726 2.64732C19.1235 2.59457 19.1925 2.56494 19.2646 2.56494C19.3366 2.56494 19.4057 2.59457 19.4566 2.64732C19.5075 2.70006 19.5361 2.7716 19.5361 2.84619C19.5361 2.92078 19.5075 2.99232 19.4566 3.04507L16.5994 6.00429C16.5742 6.03045 16.5443 6.0512 16.5113 6.06535C16.4784 6.07949 16.4431 6.08675 16.4074 6.0867Z" fill="url(#paint3_linear_515_725)"/>
<path d="M7.42451 6.08668C7.38884 6.08673 7.35351 6.07948 7.32056 6.06534C7.28761 6.05119 7.25768 6.03045 7.23249 6.00429L4.37531 3.04507C4.32439 2.99232 4.29578 2.92078 4.29578 2.84619C4.29578 2.7716 4.32439 2.70006 4.37531 2.64732C4.42624 2.59457 4.49531 2.56494 4.56733 2.56494C4.63935 2.56494 4.70842 2.59457 4.75935 2.64732L7.61653 5.6066C7.6545 5.64593 7.68035 5.69605 7.69083 5.7506C7.7013 5.80515 7.69592 5.8617 7.67537 5.91309C7.65482 5.96447 7.62002 6.0084 7.57537 6.0393C7.53071 6.0702 7.47822 6.0867 7.42451 6.0867L7.42451 6.08668Z" fill="url(#paint4_linear_515_725)"/>
<path d="M11.916 22.6608C11.8439 22.6608 11.7749 22.6312 11.7239 22.5785C11.673 22.5257 11.6444 22.4542 11.6444 22.3796V18.1946C11.6444 18.12 11.673 18.0485 11.7239 17.9957C11.7749 17.943 11.8439 17.9133 11.916 17.9133C11.988 17.9133 12.0571 17.943 12.108 17.9957C12.1589 18.0485 12.1875 18.12 12.1875 18.1946V22.3796C12.1875 22.4542 12.1589 22.5257 12.108 22.5785C12.0571 22.6312 11.988 22.6608 11.916 22.6608Z" fill="url(#paint5_linear_515_725)"/>
<path d="M19.2646 21.4351C19.2289 21.4352 19.1936 21.4279 19.1606 21.4138C19.1277 21.3996 19.0977 21.3789 19.0726 21.3527L16.2154 18.3935C16.1898 18.3675 16.1694 18.3364 16.1554 18.3022C16.1414 18.268 16.1341 18.2312 16.1339 18.194C16.1337 18.1569 16.1407 18.12 16.1543 18.0856C16.168 18.0513 16.1881 18.02 16.2135 17.9937C16.2388 17.9675 16.269 17.9466 16.3022 17.9325C16.3354 17.9184 16.371 17.9112 16.4068 17.9114C16.4427 17.9116 16.4782 17.9191 16.5113 17.9336C16.5443 17.9481 16.5743 17.9692 16.5994 17.9958L19.4566 20.955C19.4946 20.9944 19.5204 21.0445 19.5309 21.099C19.5414 21.1536 19.536 21.2101 19.5154 21.2615C19.4949 21.3129 19.4601 21.3568 19.4154 21.3877C19.3708 21.4186 19.3183 21.4351 19.2646 21.4351H19.2646Z" fill="url(#paint6_linear_515_725)"/>
<path d="M4.56744 21.4351C4.51373 21.4351 4.46124 21.4186 4.41658 21.3877C4.37193 21.3568 4.33713 21.3129 4.31657 21.2615C4.29602 21.2101 4.29064 21.1536 4.30111 21.099C4.31159 21.0445 4.33744 20.9944 4.37541 20.955L7.23259 17.9958C7.25771 17.9692 7.28766 17.9481 7.32072 17.9336C7.35377 17.9191 7.38927 17.9116 7.42516 17.9114C7.46105 17.9112 7.49662 17.9184 7.52982 17.9325C7.56301 17.9466 7.59317 17.9675 7.61855 17.9937C7.64393 18.02 7.66403 18.0513 7.67768 18.0856C7.69133 18.12 7.69827 18.1569 7.69809 18.194C7.69791 18.2312 7.69062 18.268 7.67664 18.3022C7.66265 18.3364 7.64226 18.3675 7.61663 18.3935L4.75945 21.3527C4.73426 21.3789 4.70434 21.3997 4.67138 21.4138C4.63843 21.4279 4.60311 21.4352 4.56744 21.4351Z" fill="url(#paint7_linear_515_725)"/>
</svg>
