<svg width="37" height="36" viewBox="0 0 37 36" fill="none" xmlns="http://www.w3.org/2000/svg">
    <defs>
        <linearGradient id="paint0_linear_416_6305" x1="26.7499" y1="18" x2="4.24994" y2="18" gradientUnits="userSpaceOnUse">
            <stop stop-color="#EA1E5B"/>
            <stop offset="1" stop-color="#F5932F"/>
        </linearGradient>
        <linearGradient id="paint1_linear_416_6305" x1="32.75" y1="19.1265" x2="14" y2="19.1265" gradientUnits="userSpaceOnUse">
            <stop stop-color="#EA1E5B"/>
            <stop offset="1" stop-color="#F5932F"/>
        </linearGradient>
    </defs>
    <path d="M7.24994 1.5C5.60091 1.5 4.24994 2.85098 4.24994 4.5V31.5C4.24994 33.149 5.60091 34.5 7.24994 34.5H23.7499C25.399 34.5 26.7499 33.149 26.7499 31.5V27.7661H16.4506C14.2752 27.7661 12.4853 25.9762 12.4853 23.8008V14.4507C12.4853 12.2752 14.2763 10.4868 16.4506 10.4868H26.7499V4.5C26.7499 2.85098 25.399 1.5 23.7499 1.5H20.7499V3.75C20.7499 4.98353 19.7335 6 18.4999 6H12.4999C11.2664 6 10.2499 4.98353 10.2499 3.75V1.5H7.24994ZM11.7499 1.5V3.75C11.7499 4.17847 12.0715 4.5 12.4999 4.5H18.4999C18.9284 4.5 19.2499 4.17847 19.2499 3.75V1.5H11.7499Z" fill="url(#paint0_linear_416_6305)"/>
    <path d="M16.4507 12.0015C16.1333 12.0015 15.8307 12.0669 15.5513 12.1787L22.9663 19.5308C23.201 19.7635 23.5428 19.762 23.7939 19.522L31.3833 12.2681C31.0546 12.1032 30.6893 12.0015 30.2993 12.0015L16.4507 12.0015ZM14.3896 13.1411C14.1456 13.5215 14 13.9691 14 14.4507V23.8008C14 24.1775 14.0929 24.5323 14.2476 24.8525L19.8857 18.5903L14.3896 13.1411ZM32.457 13.3184L26.8994 18.6284L32.5024 24.8525C32.6571 24.5323 32.75 24.1775 32.75 23.8008V14.4507C32.75 14.0407 32.6382 13.6593 32.457 13.3184ZM20.9521 19.648L15.2876 25.9424C15.6357 26.1334 16.0288 26.2515 16.4507 26.2515H30.2993C30.7212 26.2515 31.1143 26.1334 31.4624 25.9424L25.814 19.667L24.8311 20.606C24.0235 21.3777 22.7139 21.3941 21.9087 20.5957L20.9521 19.648Z" fill="url(#paint1_linear_416_6305)"/>
</svg>
