<svg width="37" height="36" viewBox="0 0 37 36" fill="none" xmlns="http://www.w3.org/2000/svg">
    <defs>
        <linearGradient id="paint0_linear_2110_16902" x1="36.5" y1="30.5548" x2="0.5" y2="30.5548"
                        gradientUnits="userSpaceOnUse">
            <stop stop-color="#EA1E5B"/>
            <stop offset="1" stop-color="#F5932F"/>
        </linearGradient>
        <linearGradient id="paint1_linear_2110_16902" x1="30.4103" y1="27.8057" x2="6.58978" y2="27.8057"
                        gradientUnits="userSpaceOnUse">
            <stop stop-color="#EA1E5B"/>
            <stop offset="1" stop-color="#F5932F"/>
        </linearGradient>
        <linearGradient id="paint2_linear_2110_16902" x1="28.3044" y1="13.7332" x2="8.69562" y2="13.7332"
                        gradientUnits="userSpaceOnUse">
            <stop stop-color="#EA1E5B"/>
            <stop offset="1" stop-color="#F5932F"/>
        </linearGradient>
        <clipPath id="clip0_2110_16902">
            <rect width="36" height="36" fill="white" transform="translate(0.5)"/>
        </clipPath>
    </defs>
    <g clip-path="url(#clip0_2110_16902)">
        <path d="M33.4294 25.2402C32.9187 24.9597 32.2775 25.1463 31.9972 25.6567C31.7167 26.1673 31.9032 26.8085 32.4137 27.0889C33.6701 27.7791 34.3906 28.5443 34.3906 29.1882C34.3906 29.9757 33.2748 31.1964 30.1428 32.2604C27.0487 33.3117 22.9139 33.8906 18.5 33.8906C14.0861 33.8906 9.95127 33.3117 6.85716 32.2604C3.72523 31.1964 2.60938 29.9757 2.60938 29.1882C2.60938 28.5443 3.32994 27.7791 4.58628 27.0889C5.09682 26.8084 5.28329 26.1672 5.00281 25.6567C4.72234 25.1462 4.0813 24.9596 3.57062 25.2401C2.16985 26.0097 0.5 27.3193 0.5 29.1882C0.5 30.6207 1.48522 32.6632 6.17858 34.2577C9.48552 35.3812 13.8613 36 18.5 36C23.1387 36 27.5145 35.3812 30.8214 34.2577C35.5148 32.6632 36.5 30.6207 36.5 29.1882C36.5 27.3193 34.8302 26.0097 33.4294 25.2402Z"
              fill="url(#paint0_linear_2110_16902)"/>
        <path d="M10.5373 30.7357C12.6783 31.3405 15.5062 31.6737 18.5 31.6737C21.4939 31.6737 24.3218 31.3406 26.4628 30.7357C29.0821 29.9958 30.4103 28.9247 30.4103 27.5523C30.4103 26.1799 29.0821 25.1089 26.4628 24.369C25.8813 24.2047 25.2489 24.0607 24.5766 23.9377C24.2114 24.5686 23.8289 25.2179 23.4289 25.886C24.1731 25.9976 24.8717 26.1345 25.5062 26.2962C27.4339 26.7872 28.1382 27.3399 28.283 27.5524C28.1381 27.7649 27.434 28.3176 25.5063 28.8086C23.6818 29.2733 21.3343 29.5383 18.8619 29.562C18.7422 29.5709 18.6215 29.5759 18.5 29.5759C18.3785 29.5759 18.2579 29.5709 18.1381 29.562C15.6657 29.5383 13.3182 29.2733 11.4937 28.8086C9.56597 28.3176 8.86179 27.7649 8.71702 27.5524C8.86179 27.3399 9.56604 26.7872 11.4937 26.2962C12.1282 26.1346 12.8269 25.9976 13.5712 25.886C13.1712 25.218 12.7886 24.5685 12.4235 23.9377C11.7511 24.0607 11.1187 24.2047 10.5373 24.369C7.91792 25.1089 6.58978 26.1799 6.58978 27.5523C6.58978 28.9247 7.91792 29.9957 10.5373 30.7357Z"
              fill="url(#paint1_linear_2110_16902)"/>
        <path d="M18.5 27.4665C19.4389 27.4665 20.2917 26.988 20.7815 26.1867C24.2134 20.5718 28.3044 13.1716 28.3044 9.8043C28.3044 4.39819 23.9062 0 18.5 0C13.0938 0 8.69562 4.39819 8.69562 9.8043C8.69562 13.1716 12.7866 20.5718 16.2185 26.1867C16.7083 26.988 17.5612 27.4665 18.5 27.4665ZM14.5592 9.13113C14.5592 6.95827 16.3271 5.19047 18.5 5.19047C20.6729 5.19047 22.4408 6.95827 22.4408 9.13113C22.4408 11.3041 20.6729 13.0719 18.5 13.0719C16.3271 13.0719 14.5592 11.3041 14.5592 9.13113Z"
              fill="url(#paint2_linear_2110_16902)"/>
    </g>
</svg>
