<svg width="32" height="32" viewBox="0 0 32 32" fill="none" xmlns="http://www.w3.org/2000/svg">
    <defs>
        <linearGradient id="paint0_linear_141_1120" x1="30.375" y1="17.9788" x2="1.625" y2="17.9788" gradientUnits="userSpaceOnUse">
            <stop stop-color="#EA1E5B"/>
            <stop offset="1" stop-color="#F5932F"/>
        </linearGradient>
        <linearGradient id="paint1_linear_141_1120" x1="30.375" y1="17.9788" x2="1.625" y2="17.9788" gradientUnits="userSpaceOnUse">
            <stop stop-color="#EA1E5B"/>
            <stop offset="1" stop-color="#F5932F"/>
        </linearGradient>
    </defs>
    <path d="M28.965 11.2L1.625 10.13L20.9875 7.24999L21.8525 7.12249L28.2175 6.17499L28.965 11.2Z" fill="#BC2A45"/>
    <path d="M21.725 9.22749C21.7034 9.23031 21.6817 9.23198 21.66 9.23249C21.5549 9.23227 21.4534 9.19427 21.374 9.12542C21.2946 9.05658 21.2426 8.96149 21.2275 8.85749L20.9875 7.25L21.8525 7.1225L22.0925 8.72999C22.1088 8.84456 22.0794 8.96095 22.0107 9.05403C21.9419 9.14711 21.8393 9.20942 21.725 9.22749Z" fill="white"/>
    <path d="M28.6675 16.27C28.3297 16.6077 28.0996 17.038 28.0064 17.5065C27.9132 17.9749 27.961 18.4605 28.1438 18.9018C28.3265 19.3431 28.6361 19.7203 29.0333 19.9856C29.4304 20.251 29.8974 20.3926 30.375 20.3925V25.825H1.625V20.3925C2.26517 20.3925 2.87911 20.1382 3.33178 19.6855C3.78444 19.2329 4.03875 18.6189 4.03875 17.9788C4.03875 17.3386 3.78444 16.7246 3.33178 16.272C2.87911 15.8193 2.26517 15.565 1.625 15.565V10.1325H30.375V15.565C30.058 15.5646 29.7441 15.6267 29.4511 15.7477C29.1581 15.8686 28.8919 16.0461 28.6675 16.27Z" fill="url(#paint0_linear_141_1120)"/>
    <path d="M28.6675 16.27C28.3297 16.6077 28.0996 17.038 28.0064 17.5065C27.9132 17.9749 27.961 18.4605 28.1438 18.9018C28.3265 19.3431 28.6361 19.7203 29.0333 19.9856C29.4304 20.251 29.8974 20.3926 30.375 20.3925V25.825H1.625V20.3925C2.26517 20.3925 2.87911 20.1382 3.33178 19.6855C3.78444 19.2329 4.03875 18.6189 4.03875 17.9788C4.03875 17.3386 3.78444 16.7246 3.33178 16.272C2.87911 15.8193 2.26517 15.565 1.625 15.565V10.1325H30.375V15.565C30.058 15.5646 29.7441 15.6267 29.4511 15.7477C29.1581 15.8686 28.8919 16.0461 28.6675 16.27Z" fill="url(#paint1_linear_141_1120)"/>
    <path d="M23.465 10.1325V11.7575C23.465 11.8735 23.4189 11.9848 23.3369 12.0669C23.2548 12.1489 23.1436 12.195 23.0275 12.195C22.9115 12.195 22.8002 12.1489 22.7182 12.0669C22.6361 11.9848 22.59 11.8735 22.59 11.7575V10.1325H23.465Z" fill="white"/>
    <path d="M23.0275 18.6525C22.97 18.6524 22.9131 18.6636 22.8599 18.6855C22.8068 18.7075 22.7585 18.7397 22.7179 18.7804C22.6772 18.821 22.645 18.8693 22.6231 18.9224C22.6011 18.9756 22.5899 19.0325 22.59 19.09V21.9775C22.59 22.0935 22.6361 22.2048 22.7182 22.2869C22.8002 22.3689 22.9115 22.415 23.0275 22.415C23.1436 22.415 23.2548 22.3689 23.3369 22.2869C23.4189 22.2048 23.465 22.0935 23.465 21.9775V19.09C23.4649 18.974 23.4188 18.8628 23.3367 18.7808C23.2547 18.6988 23.1435 18.6526 23.0275 18.6525ZM23.0275 13.5425C22.97 13.5424 22.9131 13.5536 22.8599 13.5755C22.8068 13.5975 22.7585 13.6297 22.7179 13.6704C22.6772 13.711 22.645 13.7593 22.6231 13.8124C22.6011 13.8656 22.5899 13.9225 22.59 13.98V16.8675C22.59 16.9835 22.6361 17.0948 22.7182 17.1769C22.8002 17.2589 22.9115 17.305 23.0275 17.305C23.1436 17.305 23.2548 17.2589 23.3369 17.1769C23.4189 17.0948 23.465 16.9835 23.465 16.8675V13.98C23.4649 13.864 23.4188 13.7528 23.3367 13.6708C23.2547 13.5888 23.1435 13.5426 23.0275 13.5425Z" fill="white"/>
    <path d="M23.465 24.2V25.825H22.59V24.2C22.59 24.084 22.6361 23.9727 22.7182 23.8907C22.8002 23.8086 22.9115 23.7625 23.0275 23.7625C23.1436 23.7625 23.2548 23.8086 23.3369 23.8907C23.4189 23.9727 23.465 24.084 23.465 24.2Z" fill="white"/>
    <path d="M12.2515 14.255H6.82025C6.70422 14.255 6.59294 14.2089 6.51089 14.1269C6.42885 14.0448 6.38275 13.9335 6.38275 13.8175C6.38275 13.7015 6.42885 13.5902 6.51089 13.5081C6.59294 13.4261 6.70422 13.38 6.82025 13.38H12.2515C12.3675 13.38 12.4788 13.4261 12.5609 13.5081C12.6429 13.5902 12.689 13.7015 12.689 13.8175C12.689 13.9335 12.6429 14.0448 12.5609 14.1269C12.4788 14.2089 12.3675 14.255 12.2515 14.255Z" fill="white"/>
    <path d="M17.6825 17.029H6.82025C6.70422 17.029 6.59294 16.9829 6.51089 16.9009C6.42885 16.8188 6.38275 16.7075 6.38275 16.5915C6.38275 16.4755 6.42885 16.3642 6.51089 16.2821C6.59294 16.2001 6.70422 16.154 6.82025 16.154H17.6825C17.7985 16.154 17.9098 16.2001 17.9919 16.2821C18.0739 16.3642 18.12 16.4755 18.12 16.5915C18.12 16.7075 18.0739 16.8188 17.9919 16.9009C17.9098 16.9829 17.7985 17.029 17.6825 17.029Z" fill="white"/>
    <path d="M17.6825 19.8035H6.82025C6.70422 19.8035 6.59294 19.7574 6.51089 19.6754C6.42885 19.5933 6.38275 19.482 6.38275 19.366C6.38275 19.25 6.42885 19.1387 6.51089 19.0566C6.59294 18.9746 6.70422 18.9285 6.82025 18.9285H17.6825C17.7985 18.9285 17.9098 18.9746 17.9919 19.0566C18.0739 19.1387 18.12 19.25 18.12 19.366C18.12 19.482 18.0739 19.5933 17.9919 19.6754C17.9098 19.7574 17.7985 19.8035 17.6825 19.8035Z" fill="white"/>
    <path d="M17.6825 22.5778H6.82025C6.70422 22.5778 6.59294 22.5317 6.51089 22.4496C6.42885 22.3676 6.38275 22.2563 6.38275 22.1403C6.38275 22.0242 6.42885 21.9129 6.51089 21.8309C6.59294 21.7489 6.70422 21.7028 6.82025 21.7028H17.6825C17.7985 21.7028 17.9098 21.7489 17.9919 21.8309C18.0739 21.9129 18.12 22.0242 18.12 22.1403C18.12 22.2563 18.0739 22.3676 17.9919 22.4496C17.9098 22.5317 17.7985 22.5778 17.6825 22.5778Z" fill="white"/>
</svg>
