<svg width="56" height="56" viewBox="0 0 56 56" fill="none" xmlns="http://www.w3.org/2000/svg">
    <path fill-rule="evenodd" clip-rule="evenodd" d="M12.4296 6.74795C17.2316 4.12991 22.4676 2.79995 28.0256 2.79995C33.5976 2.79995 38.2596 3.99 43.6216 6.762C43.8316 6.86004 44.0416 6.91595 44.2657 6.91595C44.7697 6.91595 45.2596 6.63599 45.5116 6.15995C45.8617 5.47391 45.5956 4.62 44.9096 4.26995C39.1976 1.31604 33.9896 0 28.0256 0C22.0056 0 16.3076 1.44204 11.0856 4.284C10.3995 4.662 10.1616 5.502 10.5255 6.18804C10.9035 6.87395 11.7435 7.11204 12.4296 6.74795ZM17.5258 46.2278C15.8317 43.1898 14.9358 39.4658 14.9358 35.4338C14.9358 28.6578 20.8018 23.1419 27.9978 23.1419C35.2078 23.1419 41.0598 28.6579 41.0598 35.4338C41.0598 36.2039 41.6898 36.8339 42.4598 36.8339C43.2299 36.8339 43.8599 36.2039 43.8599 35.4338C43.8599 27.1038 36.7478 20.3418 27.9979 20.3418C19.248 20.3418 12.1357 27.1178 12.1357 35.4338C12.1357 39.9419 13.1578 44.1558 15.0898 47.5998C16.9798 50.9738 18.2958 52.5278 20.7178 54.9777C20.9977 55.2577 21.3478 55.3977 21.7117 55.3977C22.0618 55.3977 22.4257 55.2717 22.6777 54.9777C23.2378 54.4458 23.2378 53.5497 22.6918 53.0037C20.5357 50.8339 19.3318 49.4479 17.5258 46.2278ZM6.87181 26.39C10.6098 18.578 18.8698 13.5239 27.8997 13.5239C40.6257 13.5239 50.9857 23.366 50.9855 35.4619C50.9855 40.012 47.1075 43.708 42.3615 43.708C37.6155 43.708 33.7375 40.012 33.7375 35.4619C33.7375 32.466 31.1194 30.016 27.9135 30.016C24.7076 30.016 22.0896 32.452 22.0896 35.4619C22.0896 40.2359 23.9515 44.7299 27.3255 48.0899C29.9715 50.7218 32.5476 52.1779 36.4956 53.2559C37.2376 53.4659 37.6856 54.2359 37.4756 54.9779C37.3076 55.594 36.7476 55.9999 36.1316 55.9999C36.0056 55.9999 35.8796 55.9859 35.7677 55.9439C31.3017 54.7259 28.3897 53.0738 25.3657 50.0639C21.4597 46.1719 19.3037 40.9778 19.3037 35.4479C19.3037 30.8979 23.1677 27.2019 27.9277 27.2019C32.6877 27.2019 36.5517 30.8979 36.5517 35.4479C36.5517 38.4438 39.1698 40.8939 42.3757 40.8939C45.5816 40.8939 48.1996 38.4579 48.1996 35.4479C48.1996 24.892 39.0997 16.31 27.9137 16.31C19.9477 16.31 12.6817 20.7339 9.40572 27.5939C8.31372 29.8619 7.76772 32.5079 7.76772 35.4479C7.76772 37.6319 7.96368 41.0759 9.62977 45.5418C9.89581 46.2698 9.53185 47.0678 8.80381 47.3478C8.07577 47.6138 7.27777 47.2499 6.99781 46.5218C5.62586 42.8399 4.95386 39.2279 4.95386 35.4479C4.95386 32.0879 5.59777 29.036 6.87181 26.39ZM52.9456 19.3199C50.1596 15.4279 46.6316 12.3758 42.4456 10.2199C33.6256 5.68392 22.3696 5.69796 13.5637 10.2479C9.3637 12.4178 5.82165 15.4979 3.04965 19.4179C2.6017 20.0479 2.75565 20.9159 3.38565 21.3639C3.63765 21.5319 3.91761 21.6159 4.1977 21.6159C4.63174 21.6159 5.06565 21.42 5.34574 21.042C7.8517 17.486 11.0577 14.7 14.8518 12.74C22.8738 8.59609 33.1358 8.58205 41.1717 12.7121C44.9517 14.6441 48.1437 17.4161 50.6637 20.9441C51.1117 21.5741 51.9937 21.7141 52.6237 21.266C53.2537 20.8178 53.3937 19.9499 52.9456 19.3199ZM41.7737 47.4179C42.4457 47.4179 43.5797 47.3478 44.6997 47.1518C45.4557 47.0119 46.1836 47.5298 46.3237 48.2858C46.4637 49.0418 45.9457 49.7698 45.1897 49.9098C43.5517 50.2038 42.1656 50.2178 41.7736 50.2178C38.4417 50.2178 35.5156 49.3778 33.0936 47.7398C28.9356 44.9119 26.4436 40.3199 26.4436 35.4479C26.4436 34.6778 27.0736 34.0479 27.8436 34.0479C28.6137 34.0479 29.2437 34.6778 29.2437 35.4479C29.2437 39.382 31.2737 43.1059 34.6757 45.4159C36.6497 46.7599 38.9738 47.4179 41.7737 47.4179Z" fill="#8F9294"/>
</svg>
