<svg width="24" height="24" viewBox="0 0 24 24" fill="none" xmlns="http://www.w3.org/2000/svg">
    <path d="M7.00044 18.0002C5.75272 18.0002 4.5561 17.5261 3.67383 16.6822C2.79155 15.8383 2.2959 14.6937 2.2959 13.5002C2.2959 12.3067 2.79155 11.1621 3.67383 10.3182C4.5561 9.4743 5.75272 9.0002 7.00044 9.0002C7.29513 7.68737 8.15721 6.53368 9.39703 5.79291C10.0109 5.42612 10.6991 5.17174 11.4222 5.04431C12.1453 4.91687 12.8893 4.91887 13.6116 5.0502C14.3338 5.18152 15.0203 5.43959 15.6317 5.80968C16.2432 6.17976 16.7677 6.65461 17.1752 7.20712C17.5828 7.75963 17.8654 8.37898 18.007 9.02979C18.1486 9.68061 18.1464 10.3502 18.0004 11.0002H19.0004C19.9287 11.0002 20.8189 11.3689 21.4753 12.0253C22.1317 12.6817 22.5004 13.5719 22.5004 14.5002C22.5004 15.4285 22.1317 16.3187 21.4753 16.9751C20.8189 17.6314 19.9287 18.0002 19.0004 18.0002H18.0004" stroke="#333333" stroke-width="1.5" stroke-linecap="round" stroke-linejoin="round"/>
    <path d="M9 15L12 12L15 15" stroke="#333333" stroke-width="1.5" stroke-linecap="round" stroke-linejoin="round"/>
    <path d="M12 12V21" stroke="#333333" stroke-width="1.5" stroke-linecap="round" stroke-linejoin="round"/>
</svg>
