<svg width="32" height="32" viewBox="0 0 32 32" fill="none" xmlns="http://www.w3.org/2000/svg">
    <defs>
        <linearGradient id="paint0_linear_141_1114" x1="18.8062" y1="30.125" x2="1.0625" y2="30.125" gradientUnits="userSpaceOnUse">
            <stop stop-color="#EA1E5B"/>
            <stop offset="1" stop-color="#F5932F"/>
        </linearGradient>
        <linearGradient id="paint1_linear_141_1114" x1="25.8625" y1="16" x2="4.71875" y2="16" gradientUnits="userSpaceOnUse">
            <stop stop-color="#EA1E5B"/>
            <stop offset="1" stop-color="#F5932F"/>
        </linearGradient>
        <linearGradient id="paint2_linear_141_1114" x1="19.675" y1="10.9687" x2="9.45624" y2="10.9687" gradientUnits="userSpaceOnUse">
            <stop stop-color="#EA1E5B"/>
            <stop offset="1" stop-color="#F5932F"/>
        </linearGradient>
        <linearGradient id="paint3_linear_141_1114" x1="17.575" y1="6.92187" x2="11.5375" y2="6.92187" gradientUnits="userSpaceOnUse">
            <stop stop-color="#EA1E5B"/>
            <stop offset="1" stop-color="#F5932F"/>
        </linearGradient>
    </defs>
    <path d="M17.8438 28.25C1.16875 28.25 7.85625 28.25 1.0625 28.25C1.5 30.3875 3.39375 32 5.65625 32H18.8062C18.2125 31.2125 17.8438 30.2437 17.8438 29.1875V28.25Z" fill="url(#paint0_linear_141_1114)"/>
    <path d="M29.0938 0C28.0562 0 27.2188 0.8375 27.2188 1.875V5.6875H30.9688V1.875C30.9688 0.8375 30.1312 0 29.0938 0Z" fill="#BC2A45"/>
    <path d="M9.40625 0C6.81875 0 4.71875 2.1625 4.71875 4.75V26.375H6.3125H10.8938H11.6687H15.8562H19.7188V29.1875C19.7188 30.7437 20.975 32 22.5312 32C24.0875 32 25.3438 30.7437 25.3438 29.1875C25.3438 19.6063 25.3438 12.05 25.3438 1.875C25.3438 1.1875 25.5437 0.55625 25.8625 0H9.40625ZM8.425 10.2563C8.425 9.1375 9.18125 8.19375 10.2063 7.89375L10.6687 5.8625C10.7 5.725 10.7625 5.59375 10.8625 5.4875C11.0688 5.2625 11.95 4.525 14.5562 4.525C17.1625 4.525 18.05 5.2625 18.25 5.4875C18.3438 5.5875 18.4125 5.725 18.4438 5.8625L18.9062 7.89375C19.9375 8.1875 20.6875 9.13125 20.6875 10.2563V12.7125C20.6875 13.1687 20.3187 13.5312 19.8687 13.5312V14.35C19.8687 14.8063 19.5 15.1687 19.05 15.1687C18.5937 15.1687 18.2313 14.8 18.2313 14.35V13.5312H10.875V14.35C10.875 14.8063 10.5062 15.1687 10.0562 15.1687C9.6 15.1687 9.2375 14.8 9.2375 14.35V13.5312C8.78125 13.5312 8.41875 13.1625 8.41875 12.7125V10.2563H8.425ZM21.425 22.6375H8.575C8.1875 22.6375 7.875 22.35 7.875 21.9875C7.875 21.6312 8.1875 21.3375 8.575 21.3375H21.425C21.8125 21.3375 22.125 21.625 22.125 21.9875C22.125 22.35 21.8125 22.6375 21.425 22.6375ZM21.425 19.975H8.575C8.1875 19.975 7.875 19.6875 7.875 19.325C7.875 18.9625 8.1875 18.675 8.575 18.675H21.425C21.8125 18.675 22.125 18.9625 22.125 19.325C22.125 19.6875 21.8125 19.975 21.425 19.975Z" fill="url(#paint1_linear_141_1114)"/>
    <path d="M18.7375 9.46249C18.7312 9.46249 18.7312 9.46249 18.7312 9.46249H10.3812C9.86874 9.46249 9.45624 9.88124 9.45624 10.3875V12.475H19.675V10.3875C19.6687 9.88124 19.2562 9.46874 18.7375 9.46249Z" fill="url(#paint2_linear_141_1114)"/>
    <path d="M17.575 8.15625L17.2563 6.125C16.9313 5.9625 16.1438 5.6875 14.5625 5.6875C12.9813 5.6875 12.1938 5.96875 11.8688 6.125L11.5375 8.15625H17.575Z" fill="url(#paint3_linear_141_1114)"/>
</svg>
