<svg width="145" height="50" viewBox="0 0 145 50" fill="none" xmlns="http://www.w3.org/2000/svg">
    <path d="M75.2458 22.4905H76.3685C76.8062 22.4905 77.1677 22.1285 77.1677 21.6903V13.3643C77.1677 12.9261 76.8062 12.5641 76.3685 12.5641H75.2458C74.8081 12.5641 74.4465 12.9261 74.4465 13.3643V21.6713C74.4275 22.1285 74.7891 22.4905 75.2458 22.4905Z" fill="#EE0033"/>
    <path d="M67.4437 22.5862C68.1288 22.5862 68.909 22.548 69.3276 21.7097L74.047 12.5454H72.3153C71.6112 12.5454 71.0213 12.9646 70.7358 13.5742L67.7672 19.8997C67.6911 20.0521 67.5579 20.2998 67.4437 20.2998C67.3295 20.2998 67.1773 20.0521 67.1202 19.8997L64.1326 13.5742C63.8471 12.9646 63.2572 12.5454 62.5531 12.5454H60.8214L65.5217 21.7097C65.9975 22.6052 66.9489 22.5862 67.4437 22.5862Z" fill="#EE0033"/>
    <path d="M127.234 22.4901C127.672 22.4901 128.033 22.1281 128.033 21.6899V20.8135H127.367C126.873 20.8135 125.845 20.7944 125.236 20.3753C124.437 19.8418 124.513 18.9082 124.513 18.2414V11.0395C124.513 10.6013 124.151 10.2393 123.714 10.2393H122.591C122.153 10.2393 121.792 10.6013 121.792 11.0395V19.2512C121.792 20.5086 122.229 21.2326 123.029 21.7661C123.809 22.2805 124.684 22.4901 126.34 22.4901H127.234Z" fill="#EE0033"/>
    <path d="M92.9811 19.2512C92.9811 20.5086 93.4188 21.2326 94.218 21.7661C94.9982 22.2805 95.8736 22.4901 97.5292 22.4901H98.4236C98.8613 22.4901 99.2228 22.1281 99.2228 21.6899V20.8135H98.5378C98.043 20.8135 97.0154 20.7944 96.4064 20.3753C95.6072 19.8418 95.6833 18.9082 95.6833 18.2414V14.2403H101.392V19.2321C101.392 20.4896 101.83 21.2136 102.629 21.7471C103.409 22.2615 104.285 22.4711 105.94 22.4711H106.835C107.272 22.4711 107.634 22.1091 107.634 21.6709V20.7944H107.006C106.511 20.7944 105.484 20.7754 104.875 20.3562C104.075 19.8227 104.151 18.8892 104.151 18.2223V14.2403H106.797C107.234 14.2403 107.596 13.8783 107.596 13.4401V12.5637H104.151V11.0395C104.151 10.6013 103.79 10.2393 103.352 10.2393H102.229C101.792 10.2393 101.43 10.6013 101.43 11.0395V12.5637H95.7214V11.0395C95.7214 10.6013 95.3598 10.2393 94.9221 10.2393H93.7994C93.3617 10.2393 93.0001 10.6013 93.0001 11.0395V12.5637H91.2875V13.4401C91.2875 13.8783 91.649 14.2403 92.0867 14.2403H92.9811V19.2512Z" fill="#EE0033"/>
    <path d="M90.0699 17.8795C90.5837 17.4604 90.6599 16.8888 90.6599 16.3744C90.6599 15.1169 90.3554 13.8785 88.9091 13.1544C87.7673 12.5829 86.264 12.5257 84.8178 12.5257C83.6569 12.5257 81.5447 12.5257 80.1936 13.4593C78.8425 14.3929 78.7283 15.7647 78.7283 17.6128C78.7283 18.9274 78.8044 20.2992 79.6227 21.2328C80.6503 22.395 82.1536 22.4903 83.4096 22.4903H89.48C89.9177 22.4903 90.2793 22.1283 90.2793 21.69V20.8136H84.2278C83.2193 20.8136 82.0775 20.6993 81.735 19.6324C81.6398 19.3275 81.5637 18.6988 81.5637 18.2606H88.7379C89.2326 18.2415 89.7084 18.1653 90.0699 17.8795ZM87.2155 16.5649H83.3334C82.3439 16.5649 81.5447 17.0221 81.5447 17.5747V16.5649C81.5637 15.9171 81.5447 15.3646 82.1155 14.8692C82.8577 14.2023 83.9804 14.2214 84.7036 14.2214C85.4838 14.2214 86.3592 14.2595 87.0442 14.6787C87.4438 14.9263 87.8435 15.3836 87.8435 16.0123C87.8244 16.241 87.7673 16.5649 87.2155 16.5649Z" fill="#EE0033"/>
    <path d="M112.963 22.4903H119.033C119.471 22.4903 119.832 22.1283 119.832 21.69V20.8136H113.781C112.772 20.8136 111.631 20.6993 111.288 19.6324C111.193 19.3275 111.117 18.6988 111.117 18.2606H118.31C118.805 18.2606 119.262 18.1844 119.642 17.8795C120.156 17.4604 120.232 16.8888 120.232 16.3744C120.232 15.1169 119.928 13.8785 118.481 13.1544C117.34 12.5829 115.836 12.5257 114.39 12.5257C113.229 12.5257 111.117 12.5257 109.766 13.4593C108.415 14.3929 108.301 15.7647 108.301 17.6128C108.301 18.9274 108.377 20.2992 109.195 21.2328C110.203 22.395 111.688 22.4903 112.963 22.4903ZM111.117 16.5649C111.136 15.9171 111.117 15.3646 111.669 14.8692C112.411 14.2023 113.534 14.2214 114.257 14.2214C115.037 14.2214 115.912 14.2595 116.597 14.6787C116.997 14.9263 117.397 15.3836 117.397 16.0123C117.397 16.2791 117.321 16.5839 116.788 16.5839H112.906C111.916 16.5839 111.117 17.0412 111.117 17.5937V16.5649Z" fill="#EE0033"/>
    <path d="M75.7971 11.6303H76.349C76.7867 11.6303 77.1482 11.2683 77.1482 10.8301V10.6015C77.1482 10.1633 76.7867 9.80125 76.349 9.80125H75.2262C74.7886 9.80125 74.427 10.1633 74.427 10.6015V10.8301V12.5829H74.446C74.5222 12.1066 75.0359 11.6303 75.7971 11.6303Z" fill="#EE0033"/>
    <path d="M60.8018 37.5993V29.3495C60.8018 28.2254 61.4868 27.6539 62.876 27.6539H73.3993C74.9027 27.6539 76.0635 27.9015 76.8818 28.416C77.7 28.9304 78.1187 29.8068 78.1187 31.0452V36.0561C78.1187 36.8944 77.4146 37.5803 76.5583 37.5803H75.4165V31.6168C75.4165 30.8356 75.2262 30.2641 74.8266 29.9021C74.4269 29.521 73.7799 29.3305 72.8855 29.3305H70.7923V36.0942C70.7923 36.9135 70.1263 37.5803 69.289 37.5803H68.1091V29.3305H64.17C63.7133 29.3305 63.4849 29.521 63.4849 29.9021V36.0942C63.4849 36.9135 62.8189 37.5803 61.9816 37.5803H60.8018V37.5993Z" fill="black"/>
    <path d="M93.4578 37.5993V29.3495C93.4578 28.2254 94.1428 27.6539 95.532 27.6539H99.7946C101.298 27.6539 102.459 27.9015 103.277 28.416C104.095 28.9304 104.514 29.8068 104.514 31.0452V37.5803H101.831V31.6168C101.831 30.8356 101.641 30.2641 101.241 29.9021C100.841 29.521 100.194 29.3305 99.2999 29.3305H96.845C96.3883 29.3305 96.16 29.521 96.16 29.9021V37.5803H93.4578V37.5993Z" fill="black"/>
    <path d="M131.27 27.6725L124.019 40.8189H121.298L123.163 37.5799L117.74 27.6725H119.072C119.947 27.6725 120.765 28.1679 121.165 28.93L124.419 35.2936L127.939 28.7966C128.32 28.1107 129.043 27.6725 129.842 27.6725H131.27Z" fill="black"/>
    <path d="M92.259 32.6834C92.259 34.6078 91.7452 35.9415 90.7366 36.6845C89.728 37.4276 88.0725 37.7896 85.7889 37.7896C83.5054 37.7896 81.8688 37.4276 80.8412 36.6845C79.8326 35.9415 79.3188 34.6078 79.3188 32.6834C79.3188 30.7782 79.8326 29.4635 80.8602 28.7205C81.8878 27.9774 83.5244 27.6154 85.7889 27.6154C88.0534 27.6154 89.69 27.9774 90.7176 28.7205C91.7452 29.4635 92.259 30.7972 92.259 32.6834ZM82.0972 32.6834C82.0972 33.9219 82.3636 34.7983 82.9154 35.3127C83.4673 35.8271 84.4188 36.0939 85.7889 36.0939C87.159 36.0939 88.1105 35.8271 88.6624 35.3127C89.2142 34.7983 89.4807 33.9219 89.4807 32.6834C89.4807 31.4641 89.2142 30.5877 88.6624 30.0732C88.1105 29.5588 87.159 29.3111 85.7889 29.3111C84.4188 29.3111 83.4673 29.5588 82.9154 30.0732C82.3826 30.5877 82.0972 31.4641 82.0972 32.6834Z" fill="black"/>
    <path d="M110.546 37.5228H116.54C116.978 37.5228 117.339 37.1608 117.339 36.7226V35.8461H111.345C110.355 35.8461 109.214 35.7318 108.871 34.6839C108.776 34.3791 108.7 33.7503 108.7 33.3312H115.817C116.312 33.3312 116.768 33.255 117.13 32.9692C117.644 32.5691 117.701 31.9784 117.701 31.4831C117.701 30.2446 117.396 29.0253 115.969 28.3013C114.827 27.7297 113.362 27.6725 111.916 27.6725C110.755 27.6725 108.681 27.6725 107.33 28.6061C105.998 29.5397 105.865 30.8924 105.865 32.7215C105.865 34.0171 105.941 35.3698 106.74 36.3034C107.825 37.4275 109.29 37.5228 110.546 37.5228ZM108.719 31.6736C108.738 31.0258 108.719 30.4923 109.271 29.997C110.013 29.3301 111.117 29.3492 111.84 29.3492C112.601 29.3492 113.476 29.3873 114.161 29.7874C114.561 30.0351 114.942 30.4923 114.942 31.102C114.942 31.3687 114.865 31.6736 114.333 31.6736H110.489C109.518 31.6736 108.719 32.1309 108.719 32.6834V31.6736Z" fill="black"/>
    <path d="M53.2857 25.1578C53.2857 14.012 44.2656 5.00005 33.1523 5.00005C22.02 4.98099 13 14.012 13 25.1578C13 36.2845 22.02 45.3155 33.1333 45.3155C44.2656 45.3155 53.2857 36.2845 53.2857 25.1578Z" fill="#EE0033"/>
    <path d="M30.9457 37.7895H28.2245C26.7973 37.7895 25.6174 36.6273 25.6174 35.1793V34.9125V34.5315V15.7455V15.3835V15.1168C25.6174 13.6878 26.7782 12.5066 28.2245 12.5066H30.9457C31.3073 12.5066 31.5927 12.7924 31.5927 13.1544V15.0977C31.5927 15.4597 31.3073 15.7455 30.9457 15.7455H26.7211V34.5315H30.9457C31.3073 34.5315 31.5927 34.8173 31.5927 35.1793V37.1417C31.5927 37.4846 31.3073 37.7895 30.9457 37.7895Z" fill="white"/>
    <path d="M38.0623 37.7895H35.3411C34.9795 37.7895 34.6941 37.5037 34.6941 37.1417V35.1983C34.6941 34.8363 34.9795 34.5505 35.3411 34.5505H39.5657V15.7646H35.3411C34.9795 15.7646 34.6941 15.4788 34.6941 15.1168V13.1734C34.6941 12.8114 34.9795 12.5256 35.3411 12.5256H38.0623C39.4896 12.5256 40.6694 13.6879 40.6694 15.1359V15.3073V15.7836V34.5315V35.0268V35.1793C40.6694 36.6273 39.4896 37.7895 38.0623 37.7895Z" fill="white"/>
</svg>
