<svg width="48" height="48" viewBox="0 0 48 48" fill="none" xmlns="http://www.w3.org/2000/svg">
    <path d="M46.4667 24C46.4667 11.5591 36.3986 1.50003 23.994 1.50003C11.5681 1.47877 1.5 11.5591 1.5 24C1.5 36.4197 11.5681 46.5 23.9727 46.5C36.3986 46.5 46.4667 36.4197 46.4667 24Z" fill="#EE0033"/>
    <path d="M21.5309 38.0995H18.4935C16.9004 38.0995 15.5835 36.8022 15.5835 35.1859V34.8882V34.4629V13.4941V13.09V12.7923C15.5835 11.1973 16.8792 9.87878 18.4935 9.87878H21.5309C21.9345 9.87878 22.2531 10.1978 22.2531 10.6018V12.771C22.2531 13.1751 21.9345 13.4941 21.5309 13.4941H16.8155V34.4629H21.5309C21.9345 34.4629 22.2531 34.7819 22.2531 35.1859V37.3764C22.2531 37.7592 21.9345 38.0995 21.5309 38.0995Z" fill="white"/>
    <path d="M29.4745 38.0995H26.437C26.0335 38.0995 25.7148 37.7805 25.7148 37.3764V35.2072C25.7148 34.8031 26.0335 34.4841 26.437 34.4841H31.1525V13.5154H26.437C26.0335 13.5154 25.7148 13.1964 25.7148 12.7923V10.6231C25.7148 10.219 26.0335 9.90005 26.437 9.90005H29.4745C31.0675 9.90005 32.3845 11.1973 32.3845 12.8136V13.005V13.5366V34.4629V35.0158V35.1859C32.3845 36.8022 31.0675 38.0995 29.4745 38.0995Z" fill="white"/>
</svg>
